<svg width="192" height="192" viewBox="0 0 192 192" fill="none" xmlns="http://www.w3.org/2000/svg">
<path fill-rule="evenodd" clip-rule="evenodd" d="M95.5 0C43.1067 0 1 42.972 1 95.5088C1 148.045 43.5181 191.018 95.5 191.018C147.482 191.018 190 148.045 190 95.5088C190 42.972 148.03 0 95.5 0ZM95.5 30.0804C60.1139 30.0804 31.1742 59.1905 31.1742 95.5088C31.1742 107.984 34.4659 118.935 40.0893 128.916L33.9173 156.64C33.5058 158.581 35.8374 160.521 37.209 160.521L65.6001 153.868C74.5152 158.581 84.939 161.492 95.9115 161.492C131.298 161.076 160.237 131.827 160.237 95.5088C160.237 59.1905 131.435 30.0804 95.5 30.0804ZM69.029 65.9828H122.382C124.714 65.9828 126.634 67.9235 126.634 70.28C126.634 72.6366 124.714 74.5772 122.382 74.5772H69.029C66.6974 74.5772 64.7772 72.6366 64.7772 70.28C64.7772 67.9235 66.6974 65.9828 69.029 65.9828ZM69.029 91.766H122.382C124.714 91.766 126.634 93.7067 126.634 96.0632C126.634 98.4198 124.714 100.36 122.382 100.36H69.029C66.6974 100.36 64.7772 98.4198 64.7772 96.0632C64.7772 93.5681 66.6974 91.766 69.029 91.766ZM69.029 117.549H122.382C124.714 117.549 126.634 119.49 126.634 121.846C126.634 124.203 124.714 126.144 122.382 126.144H69.029C66.6974 126.144 64.7772 124.203 64.7772 121.846C64.7772 119.351 66.6974 117.549 69.029 117.549Z" fill="#32009D"/>
</svg>
