<svg width="469" height="138" viewBox="0 0 469 138" fill="none" xmlns="http://www.w3.org/2000/svg">
<path d="M197.096 44.1004C197.096 40.0004 193.732 36.9004 189.28 36.9004C185.223 36.9004 181.76 40.3004 181.76 44.1004C181.76 47.9004 185.124 51.3004 189.28 51.3004C193.435 51.3004 197.096 48.2004 197.096 44.1004ZM196.404 104.1V57.9004H182.453V104.1H196.404ZM237.267 101.6L232.815 91.3004C231.43 92.3004 229.055 93.0004 226.68 93.0004C221.931 93.0004 218.171 88.2004 218.171 80.6004C218.171 72.7004 221.535 68.2004 226.68 68.2004C229.055 68.2004 231.133 68.9004 232.815 69.9004L237.267 59.9004C234.2 57.8004 230.836 56.8004 224.702 56.8004C213.422 56.8004 203.923 64.7004 203.923 80.9004C203.923 97.1004 213.422 105 224.702 105C230.836 105.1 234.2 103.7 237.267 101.6ZM282.584 78.6004C282.584 65.9004 275.46 56.9004 262.102 56.9004C248.448 56.9004 240.236 66.9004 240.236 81.0004C240.236 94.8004 248.052 105.1 263.784 105.1C270.612 105.1 277.439 103.7 281.495 101.7L277.735 91.4004C274.371 93.1004 269.523 94.2004 264.774 94.2004C258.936 94.2004 254.879 91.8004 253.494 86.6004L281.792 82.8004C282.584 81.3004 282.584 79.9004 282.584 78.6004ZM269.325 75.8004L253.296 77.9004C253.296 70.3004 257.056 66.9004 262.201 66.9004C266.654 66.8004 269.325 69.9004 269.325 75.8004ZM326.614 104.1V60.3004C323.25 58.2004 317.709 57.2004 312.267 57.2004C299.701 57.2004 290.4 64.4004 290.4 80.6004C290.4 94.7004 298.613 102.7 309.793 102.7C313.157 102.7 317.313 101.7 319.688 100.6V104.4C319.688 112.7 315.631 117.5 307.419 117.5C302.669 117.5 297.92 116.1 294.853 114.4L292.775 119.9C296.139 121.6 301.977 123.3 308.111 123.3C319.787 123.4 326.614 116.1 326.614 104.1ZM319.787 94.8004C317.709 95.8004 314.345 96.5004 311.277 96.5004C303.461 96.5004 297.623 91.0004 297.623 80.0004C297.623 67.6004 304.055 62.8004 311.97 62.8004C315.037 62.8004 318.105 63.5004 319.787 64.2004V94.8004ZM360.057 57.2004C358.672 56.9004 357.286 56.9004 355.604 56.9004C349.47 56.9004 343.038 58.3004 338.883 60.0004V103.8H346.007V64.4004C348.085 63.4004 351.449 63.0004 354.516 63.0004C355.901 63.0004 357.286 63.0004 358.573 63.3004L360.057 57.2004ZM397.853 101.6V72.0004C397.853 61.0004 391.026 56.8004 380.835 56.8004C374.997 56.8004 369.259 58.5004 365.795 59.9004L367.478 64.7004C370.545 63.3004 375.69 61.9004 380.043 61.9004C386.475 61.9004 390.927 64.0004 390.927 70.9004V74.3004C377.273 75.0004 362.926 77.1004 362.926 90.2004C362.926 98.8004 369.061 104.3 381.725 104.3C387.959 104.7 394.489 103.4 397.853 101.6ZM391.026 98.2004C389.344 98.9004 385.188 99.6004 381.824 99.6004C374.008 99.6004 369.852 96.2004 369.852 90.6004C369.852 81.0004 380.736 80.3004 391.026 79.9004V98.2004ZM468.4 104.1V71.7004C468.4 62.7004 462.266 56.9004 452.668 56.9004C446.237 56.9004 440.696 59.7004 437.629 62.1004C435.254 59.3004 430.109 56.9004 422.985 56.9004C417.147 56.9004 411.705 58.3004 407.253 60.0004V103.8H414.377V64.4004C416.752 63.4004 419.819 62.7004 423.579 62.7004C430.01 62.7004 434.166 65.8004 434.166 71.0004V103.7H441.29V66.8004C443.664 64.4004 447.127 63.0004 451.184 63.0004C457.022 63.0004 461.078 66.4004 461.078 72.6004V104.3L468.4 104.1Z" fill="#373435"/>
<path fill-rule="evenodd" clip-rule="evenodd" d="M68.1723 0C30.3758 0 0 31 0 68.9C0 106.8 30.6726 137.8 68.1723 137.8C105.672 137.8 136.345 106.8 136.345 68.9C136.345 31 106.068 0 68.1723 0ZM68.1723 21.7C42.6448 21.7 21.7676 42.7 21.7676 68.9C21.7676 77.9 24.1423 85.8 28.199 93L23.7465 113C23.4497 114.4 25.1317 115.8 26.1212 115.8L46.6025 111C53.0339 114.4 60.5536 116.5 68.4691 116.5C93.9966 116.2 114.874 95.1 114.874 68.9C114.874 42.7 94.0956 21.7 68.1723 21.7ZM49.0761 47.6H87.5653C89.2473 47.6 90.6325 49 90.6325 50.7C90.6325 52.4 89.2473 53.8 87.5653 53.8H49.0761C47.3941 53.8 46.0089 52.4 46.0089 50.7C46.0089 49 47.3941 47.6 49.0761 47.6ZM49.0761 66.2H87.5653C89.2473 66.2 90.6325 67.6 90.6325 69.3C90.6325 71 89.2473 72.4 87.5653 72.4H49.0761C47.3941 72.4 46.0089 71 46.0089 69.3C46.0089 67.5 47.3941 66.2 49.0761 66.2ZM49.0761 84.8H87.5653C89.2473 84.8 90.6325 86.2 90.6325 87.9C90.6325 89.6 89.2473 91 87.5653 91H49.0761C47.3941 91 46.0089 89.6 46.0089 87.9C46.0089 86.1 47.3941 84.8 49.0761 84.8Z" fill="#32009D"/>
</svg>
