<?xml version="1.0" encoding="UTF-8"?>
<svg id="Layer_1" data-name="Layer 1" xmlns="http://www.w3.org/2000/svg" xmlns:xlink="http://www.w3.org/1999/xlink" viewBox="0 0 24.42 30" width="50" height="28">
  <defs>
    <style>
      .cls-1 {
        fill: url(#linear-gradient);
      }
    </style>
    <linearGradient id="linear-gradient" x1=".73" y1="25.44" x2="17.84" y2="11.85" gradientUnits="userSpaceOnUse">
      <stop offset="0" stop-color="#39befd"/>
      <stop offset="1" stop-color="#0988f4"/>
    </linearGradient>
  </defs>
  <g id="medal">
    <path class="cls-1" d="M7.36,29.84c-.17,0-.32-.08-.41-.22l-1.95-2.95-3.49.55c-.27.04-.52-.14-.56-.41-.01-.09,0-.19.04-.27l2.99-6.79c-1.56-.76-2.58-2.32-2.64-4.05-.01-.59-.17-1.17-.46-1.69-.36-.65-.55-1.37-.55-2.11-.12-1.31,1.05-2.45,1.01-3.7,0-1.53.81-2.94,2.12-3.72.5-.28.92-.7,1.2-1.19.76-1.32,2.17-2.13,3.69-2.12.57,0,1.14-.16,1.64-.44,1.31-.76,2.93-.76,4.24,0,.5.29,1.06.44,1.64.45,1.52,0,2.93.81,3.69,2.13.29.49.7.9,1.2,1.19,1.31.77,2.12,2.17,2.13,3.69.01.59.17,1.17.46,1.69.35.63.54,1.34.55,2.07.11,1.4-1.04,2.43-1.01,3.74-.06,1.74-1.07,3.31-2.64,4.08l2.99,6.79c.11.25,0,.54-.25.65-.09.04-.18.05-.27.04l-3.49-.55-1.95,2.95c-.1.15-.27.23-.45.22-.18-.01-.34-.13-.41-.29l-2.71-6.14c-1.01.4-2.13.4-3.15,0l-2.71,6.14c-.08.18-.26.29-.45.29ZM14.55,22.98l2.36,5.35,1.63-2.46c.11-.16.3-.25.49-.21l2.91.46-2.41-5.48c-.77,1.29-2.17,2.08-3.68,2.07-.44,0-.88.1-1.29.28ZM5.23,25.64c.17,0,.32.08.41.22l1.63,2.46,2.36-5.35c-1.05-.44-2.4-.13-3.32-.79-.67-.37-1.24-.91-1.66-1.56l-2.41,5.48,2.91-.46s.05,0,.08,0ZM10.52,22.33c1.01.54,2.21.52,3.21-.04.64-.37,1.37-.57,2.11-.57h0c1.11-.01,2.15-.58,2.76-1.5.39-.7.95-1.28,1.64-1.69,1.01-.58,1.63-1.66,1.63-2.82,0-.73.2-1.46.55-2.1.61-1.03.61-2.31,0-3.33-.36-.65-.55-1.38-.55-2.13-.02-1.16-.64-2.22-1.64-2.8-.65-.37-1.18-.9-1.56-1.55-.59-1.01-1.67-1.63-2.83-1.63-.75,0-1.48-.2-2.12-.57-1.01-.58-2.26-.58-3.27,0-.65.37-1.38.57-2.12.57-1.17,0-2.25.62-2.83,1.63-.38.65-.92,1.18-1.57,1.55-1,.59-1.62,1.67-1.63,2.83.12,1.35-1.03,2.46-1.01,3.73-.04,1.39,1.12,2.34,1.01,3.83.01,1.15.63,2.22,1.63,2.79.64.38,1.18.91,1.56,1.56.59.99,1.64,1.61,2.79,1.64.75,0,1.5.19,2.15.57h0s0,0,0,0h0s0,0,0,0h0s0,0,0,0h.02s0,0,0,0l.04.02ZM12.09,19.99c-4.36.07-7.95-3.41-8.01-7.77,0-.09,0-.19,0-.28.04-10.23,15.43-11.13,16.07,0,0,4.45-3.61,8.05-8.06,8.06ZM12.1,4.86c-3.83-.06-6.98,3.01-7.04,6.84,0,.08,0,.16,0,.23.04,8.94,13.53,9.8,14.1,0,0-3.9-3.16-7.06-7.06-7.07h0ZM12.09,15.9c-1.39-.1-4.01-.25-4.1-2.14v-2.1s-1.39-.57-1.39-.57c-.25-.11-.37-.4-.26-.65.05-.12.14-.21.26-.26l5.31-2.17c.12-.05.25-.05.37,0l5.31,2.17c.25.11.37.4.26.65-.05.12-.14.21-.26.26l-1.39.57v2.1c-.1,1.89-2.72,2.04-4.11,2.14h0ZM8.97,12.06v1.7c0,.24.14.46.36.55,1.75.81,3.77.81,5.52,0,.22-.1.36-.31.36-.55v-1.7l-2.93,1.2c-.06.02-.12.04-.19.04-.06,0-.13-.01-.19-.04l-2.93-1.2ZM8.65,10.86s3.43,1.4,3.44,1.41l4-1.64-4-1.63-4.01,1.63.56.23Z"/>
  </g>
</svg>