<?xml version="1.0" encoding="UTF-8"?>
<svg id="Layer_1" data-name="Layer 1" xmlns="http://www.w3.org/2000/svg" xmlns:xlink="http://www.w3.org/1999/xlink" viewBox="0 0 62.78 30" width="50" height="28">
  <defs>
    <style>
      .cls-1 {
        fill: url(#linear-gradient-8);
      }

      .cls-2 {
        fill: url(#linear-gradient-7);
      }

      .cls-3 {
        fill: url(#linear-gradient-5);
      }

      .cls-4 {
        fill: url(#linear-gradient-6);
      }

      .cls-5 {
        fill: url(#linear-gradient-4);
      }

      .cls-6 {
        fill: url(#linear-gradient-3);
      }

      .cls-7 {
        fill: url(#linear-gradient-2);
      }

      .cls-8 {
        fill: url(#linear-gradient);
      }
    </style>
    <linearGradient id="linear-gradient" x1="5.05" y1="21.71" x2="20.72" y2="4.73" gradientUnits="userSpaceOnUse">
      <stop offset="0" stop-color="#39befd"/>
      <stop offset="1" stop-color="#0988f4"/>
    </linearGradient>
    <linearGradient id="linear-gradient-2" x1="7.11" y1="23.62" x2="22.78" y2="6.64" xlink:href="#linear-gradient"/>
    <linearGradient id="linear-gradient-3" x1="6.12" y1="22.71" x2="21.8" y2="5.73" xlink:href="#linear-gradient"/>
    <linearGradient id="linear-gradient-4" x1="20.2" y1="35.7" x2="35.88" y2="18.72" xlink:href="#linear-gradient"/>
    <linearGradient id="linear-gradient-5" x1="7.47" y1="23.95" x2="23.14" y2="6.97" xlink:href="#linear-gradient"/>
    <linearGradient id="linear-gradient-6" x1="28.47" y1="43.34" x2="44.15" y2="26.36" xlink:href="#linear-gradient"/>
    <linearGradient id="linear-gradient-7" x1="17.07" y1="32.81" x2="32.74" y2="15.83" xlink:href="#linear-gradient"/>
    <linearGradient id="linear-gradient-8" x1="9.09" y1="25.45" x2="24.76" y2="8.47" xlink:href="#linear-gradient"/>
  </defs>
  <g>
    <path class="cls-8" d="M15.64,9.66c-.38,0-.74-.25-.86-.63-.15-.48.12-.98.59-1.13l3.83-1.19c.47-.15.98.12,1.13.59.15.48-.12.98-.59,1.13l-3.83,1.19c-.09.03-.18.04-.27.04Z"/>
    <path class="cls-7" d="M19.48,15.07c-.38,0-.74-.24-.86-.63l-1.87-5.87c-.15-.47.11-.98.58-1.13.47-.15.98.11,1.13.58l1.87,5.87c.15.47-.11.98-.58,1.13-.09.03-.18.04-.27.04Z"/>
  </g>
  <g>
    <path class="cls-6" d="M15.9,21.61c-.95,0-1.86-.53-2.31-1.43l-5.46-11.04c-.31-.63-.35-1.34-.12-2.01.24-.66.72-1.19,1.36-1.48C16.19,2.57,23.48,1,31.04,1c1.26,0,2.52.04,3.76.13.5.04.87.47.83.96-.04.5-.46.87-.96.84-1.2-.08-2.42-.13-3.64-.13-7.3,0-14.34,1.51-20.92,4.5-.19.09-.33.24-.41.44-.07.2-.06.41.04.6l5.46,11.04c.18.37.63.53,1.01.36,1.52-.67,3.09-1.24,4.68-1.69.48-.14.98.14,1.11.62.14.48-.14.98-.62,1.11-1.51.43-3,.97-4.45,1.61-.34.15-.7.22-1.04.22Z"/>
    <path class="cls-5" d="M46.18,21.61c-.35,0-.7-.07-1.04-.22-4.43-1.95-9.18-2.94-14.09-2.94-1.89,0-3.78.15-5.61.44-.49.08-.95-.26-1.03-.75-.08-.49.26-.95.75-1.03,1.92-.31,3.91-.46,5.89-.46,5.17,0,10.16,1.04,14.82,3.1.38.17.83,0,1.01-.36l5.46-11.04c.09-.19.11-.4.04-.6-.07-.2-.21-.35-.4-.44-4.46-2.02-9.16-3.38-13.98-4.03-.49-.07-.84-.52-.77-1.01.07-.49.52-.84,1.01-.77,4.99.68,9.87,2.08,14.49,4.18.64.29,1.12.81,1.36,1.48.24.66.19,1.38-.12,2.01l-5.46,11.04c-.45.9-1.35,1.43-2.31,1.43Z"/>
  </g>
  <g>
    <path class="cls-3" d="M10.34,29.15c-.4,0-.8-.1-1.18-.29-.84-.43-1.36-1.25-1.4-2.19l-.22-5.36c-.01-.33-.24-.62-.56-.71l-4.82-1.37c-.97-.28-1.67-1.07-1.84-2.06-.16-.99.25-1.96,1.08-2.53,2.6-1.78,5.36-3.33,8.2-4.61.45-.2.99,0,1.19.45.2.45,0,.99-.45,1.19-2.75,1.24-5.41,2.74-7.92,4.46-.36.25-.34.61-.32.75.02.11.11.5.55.62l4.82,1.37c1.07.31,1.82,1.26,1.87,2.37l.22,5.37c.02.41.3.59.42.66.12.06.43.18.77-.04,3.1-2.03,6.49-3.58,10.09-4.6.29-.08.43-.29.49-.41.06-.12.13-.36,0-.64l-1.01-2.28c-.2-.45,0-.99.46-1.19.45-.2.99,0,1.19.46l1.01,2.28c.3.68.29,1.46-.02,2.14-.32.67-.91,1.18-1.63,1.38-3.42.97-6.65,2.44-9.59,4.37-.43.28-.92.43-1.41.43Z"/>
    <path class="cls-4" d="M51.75,29.15c-.49,0-.98-.14-1.41-.43-2.94-1.93-6.17-3.4-9.59-4.37-.72-.2-1.31-.71-1.63-1.38-.32-.68-.33-1.45-.02-2.14l1.01-2.28c.2-.45.73-.66,1.19-.46.45.2.66.73.46,1.19l-1.01,2.28c-.12.28-.05.52,0,.64.06.12.19.33.49.41,3.6,1.02,6.99,2.56,10.09,4.6.34.22.65.1.77.04.12-.06.4-.25.42-.66l.22-5.36c.05-1.11.8-2.07,1.87-2.37l4.82-1.37c.44-.12.53-.51.55-.62.02-.14.04-.51-.32-.75-2.51-1.72-5.18-3.22-7.92-4.46-.45-.2-.66-.74-.45-1.19.2-.45.74-.66,1.19-.45,2.84,1.28,5.6,2.83,8.2,4.61.83.57,1.24,1.54,1.08,2.53-.16,1-.87,1.79-1.84,2.06l-4.82,1.37c-.32.09-.55.38-.56.71l-.22,5.36c-.04.94-.56,1.76-1.4,2.19-.38.19-.78.29-1.18.29Z"/>
  </g>
  <path class="cls-2" d="M44.93,15.58c-.09,0-.18-.01-.27-.04-6.26-1.96-12.14-2.94-20.5-1.39-.49.09-.96-.23-1.05-.72-.09-.49.23-.96.72-1.05,7.46-1.39,13.65-.97,21.37,1.44.47.15.74.65.59,1.13-.12.39-.48.63-.86.63Z"/>
  <path class="cls-1" d="M18.63,15.4c-.37,0-.72-.23-.85-.6-.17-.47.08-.98.54-1.15l1.7-.61c.47-.17.98.08,1.15.54.17.47-.08.98-.54,1.15l-1.7.61c-.1.04-.2.05-.3.05Z"/>
</svg>