<?xml version="1.0" encoding="UTF-8"?>
<svg id="Layer_1" data-name="Layer 1" xmlns="http://www.w3.org/2000/svg" xmlns:xlink="http://www.w3.org/1999/xlink" viewBox="0 0 30.47 30" width="50" height="28">
  <defs>
    <style>
      .cls-1 {
        fill: url(#linear-gradient-8);
        fill-rule: evenodd;
      }

      .cls-2 {
        fill: url(#linear-gradient-7);
      }

      .cls-3 {
        fill: url(#linear-gradient-5);
      }

      .cls-4 {
        fill: url(#linear-gradient-6);
      }

      .cls-5 {
        fill: url(#linear-gradient-4);
      }

      .cls-6 {
        fill: url(#linear-gradient-3);
      }

      .cls-7 {
        fill: url(#linear-gradient-2);
      }

      .cls-8 {
        fill: url(#linear-gradient);
      }
    </style>
    <linearGradient id="linear-gradient" x1="1.8" y1="27.19" x2="19.73" y2="10.63" gradientUnits="userSpaceOnUse">
      <stop offset="0" stop-color="#39befd"/>
      <stop offset="1" stop-color="#0988f4"/>
    </linearGradient>
    <linearGradient id="linear-gradient-2" x1="-3.8" y1="21.12" x2="14.13" y2="4.57" xlink:href="#linear-gradient"/>
    <linearGradient id="linear-gradient-3" x1=".41" y1="25.68" x2="18.34" y2="9.13" xlink:href="#linear-gradient"/>
    <linearGradient id="linear-gradient-4" x1="3.15" y1="28.65" x2="21.07" y2="12.09" xlink:href="#linear-gradient"/>
    <linearGradient id="linear-gradient-5" x1="5.89" y1="31.61" x2="23.81" y2="15.05" xlink:href="#linear-gradient"/>
    <linearGradient id="linear-gradient-6" x1="-1.06" y1="24.08" x2="16.86" y2="7.53" xlink:href="#linear-gradient"/>
    <linearGradient id="linear-gradient-7" x1="1.67" y1="27.05" x2="19.6" y2="10.49" xlink:href="#linear-gradient"/>
    <linearGradient id="linear-gradient-8" x1="1.04" y1="26.36" x2="18.97" y2="9.81" xlink:href="#linear-gradient"/>
  </defs>
  <path class="cls-8" d="M3.17,5.34C3.17,2.71,5.3.58,7.93.58h16.84c2.63,0,4.76,2.13,4.76,4.76v16.84c0,2.63-2.13,4.76-4.76,4.76h-10.26c-.61,0-1.1-.5-1.1-1.1,0-.6.49-1.09,1.1-1.09h10.26c1.42,0,2.56-1.15,2.56-2.56V5.34c0-1.42-1.15-2.56-2.56-2.56H7.93c-1.42,0-2.56,1.15-2.56,2.56v5.87c0,.61-.49,1.1-1.1,1.1s-1.1-.49-1.1-1.1v-5.87Z"/>
  <path class="cls-7" d="M10.12,9.73c.81,0,1.46-.66,1.46-1.46s-.66-1.46-1.46-1.46-1.46.66-1.46,1.46.66,1.46,1.46,1.46Z"/>
  <path class="cls-6" d="M15.25,7.17c-.61,0-1.1.49-1.1,1.1s.49,1.1,1.1,1.1h8.05c.61,0,1.1-.49,1.1-1.1s-.49-1.1-1.1-1.1h-8.05Z"/>
  <path class="cls-5" d="M14.15,13.75c0-.61.49-1.1,1.1-1.1h8.05c.61,0,1.1.49,1.1,1.1s-.49,1.1-1.1,1.1h-8.05c-.61,0-1.1-.49-1.1-1.1Z"/>
  <path class="cls-3" d="M14.15,19.25c0-.61.49-1.1,1.1-1.1h8.05c.61,0,1.1.49,1.1,1.1s-.49,1.1-1.1,1.1h-8.05c-.61,0-1.1-.49-1.1-1.1Z"/>
  <path class="cls-4" d="M10.12,15.22c.81,0,1.46-.66,1.46-1.46s-.66-1.46-1.46-1.46-1.46.66-1.46,1.46.66,1.46,1.46,1.46Z"/>
  <path class="cls-2" d="M10.12,20.71c.81,0,1.46-.66,1.46-1.46s-.66-1.46-1.46-1.46-1.46.66-1.46,1.46.66,1.46,1.46,1.46Z"/>
  <path class="cls-1" d="M6.84,14.4c-.44-1.15-1.58-1.82-2.74-1.65-.15.02-.3.06-.45.11l-.56.19c-1.17.4-2.36,1.42-2.4,2.99-.07,2.33.81,5.05,2.13,7.41,1.32,2.36,3.15,4.52,5.15,5.62,1.36.75,2.82.19,3.74-.66l.44-.41c.67-.62.94-1.53.81-2.38-.07-.43-.24-.85-.52-1.21l-1.04-1.36c-.6-.79-1.6-1.14-2.56-.91l-1.26.31c-.88-.7-1.38-1.6-1.53-2.75l.9-.98c.67-.73.87-1.79.51-2.72l-.62-1.62ZM4.36,14.66c.3-.04.6.13.72.44l.62,1.62c.09.24.04.51-.13.69l-1.19,1.29c-.18.19-.27.45-.25.72.12,2.07,1.04,3.73,2.73,4.88.22.15.49.2.75.13l1.68-.42c.23-.06.47.03.62.22l1.04,1.36c.08.1.12.21.14.33.04.24-.04.49-.22.65l-.44.41c-.56.52-1.16.61-1.56.39-1.57-.87-3.19-2.7-4.41-4.88-1.22-2.18-1.94-4.55-1.88-6.39.01-.48.4-.98,1.11-1.22l.56-.19s.08-.02.12-.03Z"/>
</svg>