<?xml version="1.0" encoding="UTF-8"?>
<svg id="Layer_1" data-name="Layer 1" xmlns="http://www.w3.org/2000/svg" xmlns:xlink="http://www.w3.org/1999/xlink" viewBox="0 0 22.34 30" width="50" height="28">
  <defs>
    <style>
      .cls-1 {
        fill: url(#linear-gradient-8);
      }

      .cls-2 {
        fill: url(#linear-gradient-7);
      }

      .cls-3 {
        fill: url(#linear-gradient-5);
      }

      .cls-4 {
        fill: url(#linear-gradient-6);
      }

      .cls-5 {
        fill: url(#linear-gradient-9);
      }

      .cls-6 {
        fill: url(#linear-gradient-4);
      }

      .cls-7 {
        fill: url(#linear-gradient-3);
      }

      .cls-8 {
        fill: url(#linear-gradient-2);
      }

      .cls-9 {
        fill: url(#linear-gradient);
      }

      .cls-10 {
        fill: url(#linear-gradient-10);
      }

      .cls-11 {
        fill: url(#linear-gradient-11);
      }

      .cls-12 {
        fill: url(#linear-gradient-12);
      }
    </style>
    <linearGradient id="linear-gradient" x1="-4.76" y1="24.6" x2="12.09" y2="9.45" gradientUnits="userSpaceOnUse">
      <stop offset="0" stop-color="#39befd"/>
      <stop offset="1" stop-color="#0988f4"/>
    </linearGradient>
    <linearGradient id="linear-gradient-2" x1="-4.8" y1="24.55" x2="12.05" y2="9.4" xlink:href="#linear-gradient"/>
    <linearGradient id="linear-gradient-3" x1="-5.03" y1="24.3" x2="11.82" y2="9.15" xlink:href="#linear-gradient"/>
    <linearGradient id="linear-gradient-4" x1="-3.09" y1="26.45" x2="13.76" y2="11.3" xlink:href="#linear-gradient"/>
    <linearGradient id="linear-gradient-5" x1="-4.92" y1="24.42" x2="11.93" y2="9.27" xlink:href="#linear-gradient"/>
    <linearGradient id="linear-gradient-6" x1="-6.4" y1="22.77" x2="10.45" y2="7.62" xlink:href="#linear-gradient"/>
    <linearGradient id="linear-gradient-7" x1="-4.75" y1="24.61" x2="12.1" y2="9.46" xlink:href="#linear-gradient"/>
    <linearGradient id="linear-gradient-8" x1="2.19" y1="32.33" x2="19.04" y2="17.18" xlink:href="#linear-gradient"/>
    <linearGradient id="linear-gradient-9" x1=".92" y1="30.92" x2="17.77" y2="15.77" xlink:href="#linear-gradient"/>
    <linearGradient id="linear-gradient-10" x1="1.96" y1="32.07" x2="18.81" y2="16.92" xlink:href="#linear-gradient"/>
    <linearGradient id="linear-gradient-11" x1="3" y1="33.23" x2="19.85" y2="18.08" xlink:href="#linear-gradient"/>
    <linearGradient id="linear-gradient-12" x1="3.81" y1="34.13" x2="20.66" y2="18.98" xlink:href="#linear-gradient"/>
  </defs>
  <path class="cls-9" d="M11.54,17.88h-1.19c-.58,0-1.05-.47-1.05-1.05v-.19c0-.09-.06-.17-.14-.19-.41-.12-.81-.28-1.19-.48-.07-.04-.17-.02-.23.04l-.13.13c-.41.41-1.08.41-1.48,0l-.84-.84c-.41-.41-.41-1.08,0-1.48l.1-.1c.06-.06.08-.16.04-.23-.21-.38-.39-.79-.52-1.2-.03-.09-.1-.15-.19-.15h-.13c-.58,0-1.05-.47-1.05-1.05v-1.19c0-.58.47-1.05,1.05-1.05h.07c.09,0,.17-.06.19-.15.12-.43.29-.86.5-1.25.04-.08.03-.18-.03-.24l-.04-.04c-.2-.2-.31-.46-.31-.74s.11-.54.31-.74l.84-.84c.41-.41,1.08-.41,1.48,0h0c.06.07.16.08.25.04.41-.23.84-.41,1.29-.54.08-.02.14-.1.14-.19,0-.58.47-1.05,1.05-1.05h1.19c.58,0,1.05.47,1.05,1.05,0,.09.06.17.14.19.45.13.88.31,1.29.54.08.05.18.03.24-.03h0c.41-.42,1.08-.42,1.48,0l.84.84c.41.41.41,1.08,0,1.48l-.04.04c-.06.06-.07.16-.03.24.21.4.38.82.5,1.25.03.09.1.15.19.15h.07c.58,0,1.05.47,1.05,1.05v1.19c0,.58-.47,1.05-1.05,1.05h-.13c-.09,0-.16.06-.19.15-.13.42-.3.82-.52,1.2-.04.07-.03.17.04.23l.1.1c.41.41.41,1.08,0,1.48l-.84.84c-.41.41-1.08.41-1.48,0l-.13-.13c-.06-.06-.15-.08-.23-.04-.38.2-.78.36-1.19.48-.08.02-.14.1-.14.19v.19c0,.58-.47,1.05-1.05,1.05ZM7.89,15.09c.17,0,.33.04.48.12.33.17.67.32,1.03.42.44.13.75.54.75,1.01v.19c0,.11.09.2.2.2h1.19c.11,0,.2-.09.2-.2v-.19c0-.46.31-.88.75-1.01.35-.1.7-.25,1.03-.42.4-.21.91-.14,1.23.19l.13.13c.08.08.2.08.28,0l.84-.84c.08-.08.08-.2,0-.28l-.1-.1c-.33-.33-.4-.85-.18-1.25.19-.33.34-.68.45-1.04.14-.45.54-.74,1-.74h.13c.11,0,.2-.09.2-.2v-1.19c0-.11-.09-.2-.2-.2h-.07c-.47,0-.89-.32-1.01-.78-.1-.38-.25-.74-.43-1.08-.22-.41-.15-.91.18-1.24l.04-.04c.08-.08.08-.2,0-.28l-.84-.84c-.08-.08-.2-.08-.28,0h0c-.33.34-.85.41-1.26.18-.35-.2-.73-.36-1.12-.47-.44-.13-.75-.54-.75-1.01,0-.11-.09-.2-.2-.2h-1.19c-.11,0-.2.09-.2.2,0,.46-.31.88-.75,1.01-.39.11-.76.27-1.12.47-.41.23-.93.16-1.26-.17h0c-.08-.09-.2-.09-.28,0l-.84.84c-.05.05-.06.11-.06.14s0,.09.06.14l.04.04c.33.33.4.83.18,1.24-.18.34-.33.71-.43,1.08-.13.46-.54.78-1.01.78h-.07c-.11,0-.2.09-.2.2v1.19c0,.11.09.2.2.2h.13c.46,0,.87.3,1,.74.11.36.26.71.45,1.04.23.4.15.92-.18,1.25l-.1.1c-.08.08-.08.2,0,.28l.84.84c.08.08.2.08.28,0l.13-.13c.2-.2.47-.31.75-.31Z"/>
  <path class="cls-8" d="M10.95,14.84c-2.45,0-4.45-2-4.45-4.45s2-4.45,4.45-4.45,4.45,2,4.45,4.45-2,4.45-4.45,4.45ZM10.95,6.79c-1.98,0-3.6,1.61-3.6,3.6s1.61,3.6,3.6,3.6,3.6-1.61,3.6-3.6-1.61-3.6-3.6-3.6Z"/>
  <path class="cls-7" d="M10.95,11.85c-1.05,0-1.91-.86-1.91-1.91s.86-1.91,1.91-1.91,1.91.86,1.91,1.91-.86,1.91-1.91,1.91ZM10.95,8.87c-.59,0-1.06.48-1.06,1.06s.48,1.06,1.06,1.06,1.06-.48,1.06-1.06-.48-1.06-1.06-1.06Z"/>
  <path class="cls-6" d="M14.04,13.38c-.15,0-.3-.08-.38-.23-.41-.79-1.13-1.36-1.99-1.57-.23-.06-.37-.29-.31-.51.06-.23.29-.37.51-.31,1.1.27,2.03,1,2.55,2,.11.21.03.47-.18.57-.06.03-.13.05-.2.05Z"/>
  <path class="cls-3" d="M7.85,13.38c-.07,0-.13-.02-.2-.05-.21-.11-.29-.36-.18-.57.52-1.01,1.45-1.74,2.55-2,.23-.06.46.08.51.31.06.23-.08.46-.31.51-.86.21-1.58.78-1.99,1.57-.08.15-.22.23-.38.23Z"/>
  <path class="cls-4" d="M6.21,21.3c-.17,0-.33-.1-.39-.27-.55-1.35-1.32-2.58-2.31-3.66-1.7-1.85-2.64-4.26-2.65-6.77-.01-2.35.81-4.64,2.32-6.46.15-.18.42-.21.6-.06.18.15.21.42.06.6-1.38,1.66-2.13,3.77-2.12,5.91.01,2.3.87,4.5,2.43,6.2,1.05,1.15,1.89,2.47,2.47,3.91.09.22-.02.47-.23.55-.05.02-.11.03-.16.03Z"/>
  <path class="cls-2" d="M18.49,17.02c-.09,0-.19-.03-.27-.09-.18-.15-.21-.41-.07-.6,1.32-1.65,2.02-3.65,2.02-5.77,0-2.48-.97-4.81-2.73-6.56-1.76-1.75-4.09-2.7-6.58-2.68-2.09.02-4.06.72-5.69,2.03-.18.15-.45.12-.6-.07s-.12-.45.07-.6C6.44,1.26,8.59.49,10.87.47c.02,0,.05,0,.08,0,2.68,0,5.2,1.04,7.11,2.93,1.92,1.91,2.98,4.45,2.98,7.16,0,2.28-.78,4.52-2.21,6.3-.08.1-.21.16-.33.16Z"/>
  <path class="cls-1" d="M15.69,21.3c-.05,0-.11-.01-.16-.03-.22-.09-.32-.34-.23-.55.41-1,.94-1.96,1.58-2.83.14-.19.41-.23.59-.09s.23.41.09.59c-.6.82-1.1,1.71-1.48,2.65-.07.17-.23.27-.39.27Z"/>
  <path class="cls-5" d="M15.51,23.37c-.24,0-.43-.19-.43-.43s.19-.43.43-.43c.34,0,.62-.28.62-.62s-.28-.62-.62-.62H6.38c-.34,0-.62.28-.62.62s.28.62.62.62c.24,0,.43.19.43.43s-.19.43-.43.43c-.81,0-1.47-.66-1.47-1.47s.66-1.47,1.47-1.47h9.13c.81,0,1.47.66,1.47,1.47s-.66,1.47-1.47,1.47Z"/>
  <path class="cls-10" d="M15.51,25.46h-6.43c-.24,0-.43-.19-.43-.43s.19-.43.43-.43h6.43c.34,0,.62-.28.62-.62s-.28-.62-.62-.62H6.38c-.34,0-.62.28-.62.62s.28.62.62.62h.71c.24,0,.43.19.43.43s-.19.43-.43.43h-.71c-.81,0-1.47-.66-1.47-1.47s.66-1.47,1.47-1.47h9.13c.81,0,1.47.66,1.47,1.47s-.66,1.47-1.47,1.47Z"/>
  <path class="cls-11" d="M15.51,27.55H6.38c-.81,0-1.47-.66-1.47-1.47s.66-1.47,1.47-1.47c.24,0,.43.19.43.43s-.19.43-.43.43c-.34,0-.62.28-.62.62s.28.62.62.62h9.13c.34,0,.62-.28.62-.62s-.28-.62-.62-.62c-.24,0-.43-.19-.43-.43s.19-.43.43-.43c.81,0,1.47.66,1.47,1.47s-.66,1.47-1.47,1.47Z"/>
  <path class="cls-12" d="M13.63,29.53h-5.37c-1.02,0-1.86-.83-1.86-1.86v-.54c0-.24.19-.43.43-.43s.43.19.43.43v.54c0,.55.45,1,1,1h5.37c.55,0,1-.45,1-1v-.54c0-.24.19-.43.43-.43s.43.19.43.43v.54c0,1.02-.83,1.86-1.86,1.86Z"/>
</svg>