<?xml version="1.0" encoding="UTF-8"?>
<svg id="Layer_1" data-name="Layer 1" xmlns="http://www.w3.org/2000/svg" xmlns:xlink="http://www.w3.org/1999/xlink" viewBox="0 0 31.18 30" width="50" height="28">
  <defs>
    <style>
      .cls-1 {
        fill: url(#linear-gradient-4);
      }

      .cls-2 {
        fill: url(#linear-gradient-3);
      }

      .cls-3 {
        fill: url(#linear-gradient-2);
      }

      .cls-4 {
        fill: url(#linear-gradient);
      }
    </style>
    <linearGradient id="linear-gradient" x1="4.32" y1="28.4" x2="17.74" y2="12.44" gradientUnits="userSpaceOnUse">
      <stop offset="0" stop-color="#39befd"/>
      <stop offset="1" stop-color="#0988f4"/>
    </linearGradient>
    <linearGradient id="linear-gradient-2" x1="2.51" y1="26.88" x2="15.93" y2="10.91" xlink:href="#linear-gradient"/>
    <linearGradient id="linear-gradient-3" x1="7.88" y1="31.39" x2="21.3" y2="15.42" xlink:href="#linear-gradient"/>
    <linearGradient id="linear-gradient-4" x1="6.54" y1="30.27" x2="19.96" y2="14.3" xlink:href="#linear-gradient"/>
  </defs>
  <g id="EAN-13">
    <path class="cls-4" d="M15.59,29.65c-1.98,0-3.9-.39-5.7-1.15-1.74-.74-3.31-1.79-4.66-3.14s-2.4-2.91-3.14-4.66c-.76-1.81-1.15-3.72-1.15-5.7s.39-3.9,1.15-5.7c.74-1.74,1.79-3.31,3.14-4.66s2.91-2.4,4.66-3.14c1.81-.76,3.72-1.15,5.7-1.15s3.9.39,5.7,1.15c1.74.74,3.31,1.79,4.66,3.14s2.4,2.91,3.14,4.66c.76,1.81,1.15,3.72,1.15,5.7s-.39,3.9-1.15,5.7c-.74,1.74-1.79,3.31-3.14,4.66s-2.91,2.4-4.66,3.14c-1.81.76-3.72,1.15-5.7,1.15ZM15.59,1.32c-1.85,0-3.64.36-5.33,1.08-1.63.69-3.09,1.68-4.35,2.93-1.26,1.26-2.24,2.72-2.93,4.35-.71,1.69-1.08,3.48-1.08,5.33s.36,3.64,1.08,5.33c.69,1.63,1.68,3.09,2.93,4.35,1.26,1.26,2.72,2.24,4.35,2.93,1.69.71,3.48,1.08,5.33,1.08s3.64-.36,5.33-1.08c1.63-.69,3.09-1.68,4.35-2.93,1.26-1.26,2.24-2.72,2.93-4.35.71-1.69,1.08-3.48,1.08-5.33s-.36-3.64-1.08-5.33c-.69-1.63-1.68-3.09-2.93-4.35-1.26-1.26-2.72-2.24-4.35-2.93-1.69-.71-3.48-1.08-5.33-1.08Z"/>
    <g>
      <g>
        <path class="cls-3" d="M15.59,16.66c-2.95,0-5.35-2.4-5.35-5.35s2.4-5.35,5.35-5.35,5.35,2.4,5.35,5.35-2.4,5.35-5.35,5.35ZM15.59,6.92c-2.42,0-4.39,1.97-4.39,4.39s1.97,4.39,4.39,4.39,4.39-1.97,4.39-4.39-1.97-4.39-4.39-4.39Z"/>
        <path class="cls-2" d="M22.96,24.04h-14.74c-.27,0-.48-.22-.48-.48,0-2.1.82-4.07,2.3-5.55,1.48-1.48,3.45-2.3,5.55-2.3s4.07.82,5.55,2.3c1.48,1.48,2.3,3.45,2.3,5.55,0,.27-.22.48-.48.48ZM8.72,23.08h13.74c-.25-3.57-3.23-6.4-6.87-6.4s-6.62,2.83-6.87,6.4Z"/>
      </g>
      <path class="cls-1" d="M15.59,23.07c-.15,0-.29-.07-.38-.18l-1.36-1.7c-.1-.12-.13-.29-.08-.44l1.36-4.46c.06-.2.25-.34.46-.34s.4.14.46.34l1.36,4.46c.05.15.01.32-.08.44l-1.36,1.7c-.09.11-.23.18-.38.18ZM14.76,20.78l.83,1.03.83-1.03-.83-2.71-.83,2.71Z"/>
    </g>
  </g>
</svg>