<?xml version="1.0" encoding="UTF-8"?>
<svg id="Layer_1" data-name="Layer 1" xmlns="http://www.w3.org/2000/svg" xmlns:xlink="http://www.w3.org/1999/xlink" viewBox="0 0 31.02 30" width="50" height="28">
  <defs>
    <style>
      .cls-1 {
        fill: url(#linear-gradient-8);
      }

      .cls-2 {
        fill: url(#linear-gradient-7);
      }

      .cls-3 {
        fill: url(#linear-gradient-5);
      }

      .cls-4 {
        fill: url(#linear-gradient-6);
      }

      .cls-5 {
        fill: url(#linear-gradient-9);
      }

      .cls-6 {
        fill: url(#linear-gradient-4);
      }

      .cls-7 {
        fill: url(#linear-gradient-3);
      }

      .cls-8 {
        fill: url(#linear-gradient-2);
      }

      .cls-9 {
        fill: url(#linear-gradient);
      }

      .cls-10 {
        fill: url(#linear-gradient-10);
      }

      .cls-11 {
        fill: url(#linear-gradient-11);
      }
    </style>
    <linearGradient id="linear-gradient" x1="-2.77" y1="31.54" x2="24.85" y2="6.59" gradientUnits="userSpaceOnUse">
      <stop offset="0" stop-color="#39befd"/>
      <stop offset="1" stop-color="#0988f4"/>
    </linearGradient>
    <linearGradient id="linear-gradient-2" x1="-3.22" y1="31.04" x2="24.41" y2="6.1" xlink:href="#linear-gradient"/>
    <linearGradient id="linear-gradient-3" x1="5.49" y1="40.68" x2="33.11" y2="15.74" xlink:href="#linear-gradient"/>
    <linearGradient id="linear-gradient-4" x1="-2.42" y1="31.93" x2="25.21" y2="6.98" xlink:href="#linear-gradient"/>
    <linearGradient id="linear-gradient-5" x1="-2.42" y1="31.93" x2="25.21" y2="6.98" xlink:href="#linear-gradient"/>
    <linearGradient id="linear-gradient-6" x1="-10.64" y1="22.83" x2="16.99" y2="-2.12" xlink:href="#linear-gradient"/>
    <linearGradient id="linear-gradient-7" x1="-11.87" y1="21.46" x2="15.75" y2="-3.49" xlink:href="#linear-gradient"/>
    <linearGradient id="linear-gradient-8" x1="-13.22" y1="19.97" x2="14.41" y2="-4.98" xlink:href="#linear-gradient"/>
    <linearGradient id="linear-gradient-9" x1="11.26" y1="17.15" x2="19.76" y2="17.15" xlink:href="#linear-gradient"/>
    <linearGradient id="linear-gradient-10" x1="13.02" y1="12.15" x2="18" y2="12.15" xlink:href="#linear-gradient"/>
    <linearGradient id="linear-gradient-11" x1="13.02" y1="11.65" x2="18" y2="11.65" xlink:href="#linear-gradient"/>
  </defs>
  <path class="cls-9" d="M26.65,18.59c.38-1.16.57-2.37.57-3.6s-.19-2.43-.56-3.59c2.21-.83,3.78-2.97,3.78-5.46C30.43,2.72,27.82.1,24.6.1c-2.5,0-4.63,1.57-5.46,3.78-1.16-.37-2.36-.56-3.59-.56s-2.44.19-3.59.56c-.23-.6-.55-1.17-.97-1.67-.15-.19-.43-.21-.61-.06-.19.15-.21.43-.06.61.74.89,1.14,2.01,1.14,3.17,0,2.74-2.23,4.97-4.97,4.97S1.52,8.68,1.52,5.94,3.75.97,6.48.97c.73,0,1.43.15,2.08.46.22.1.48,0,.58-.21.1-.22,0-.48-.21-.58-.77-.36-1.59-.54-2.45-.54C3.26.1.65,2.72.65,5.94c0,2.5,1.57,4.63,3.78,5.46-.37,1.16-.56,2.36-.56,3.59s.19,2.44.57,3.6c-2.21.83-3.78,2.97-3.78,5.47,0,3.22,2.62,5.84,5.84,5.84.99,0,1.97-.25,2.83-.73.21-.12.29-.38.17-.59s-.38-.29-.59-.17c-.73.41-1.57.62-2.41.62-2.74,0-4.97-2.23-4.97-4.97s2.23-4.97,4.97-4.97,4.97,2.23,4.97,4.97c0,.47-.06.93-.19,1.37,0,0,0,.02,0,.02-.18.62-.48,1.2-.9,1.72-.15.19-.12.46.07.61.19.15.46.12.61-.07.39-.49.7-1.03.91-1.61,1.16.37,2.36.56,3.59.56s2.43-.19,3.59-.56c.83,2.21,2.97,3.79,5.47,3.79,3.22,0,5.84-2.62,5.84-5.84,0-2.5-1.58-4.63-3.79-5.47ZM18.88,25.27c-1.08.35-2.2.53-3.34.53s-2.27-.18-3.34-.53c.08-.4.13-.8.13-1.21,0-3.22-2.62-5.84-5.84-5.84-.42,0-.82.04-1.22.13-.35-1.08-.53-2.21-.53-3.35s.18-2.27.53-3.34c.39.08.8.13,1.22.13,3.22,0,5.84-2.62,5.84-5.84,0-.41-.04-.82-.13-1.22,1.08-.35,2.2-.53,3.35-.53s2.27.18,3.34.53c-.08.39-.13.8-.13,1.22,0,1.52.58,2.96,1.63,4.05.17.17.44.18.62.01.17-.17.18-.44.01-.62-.9-.93-1.39-2.15-1.39-3.44,0-2.74,2.23-4.97,4.97-4.97s4.97,2.23,4.97,4.97-2.23,4.97-4.97,4.97c-.72,0-1.41-.15-2.06-.45-.22-.1-.48,0-.58.22-.1.22,0,.48.22.58.76.35,1.58.52,2.42.52.42,0,.83-.04,1.22-.13.35,1.08.53,2.2.53,3.34s-.18,2.27-.53,3.35c-.39-.08-.8-.13-1.22-.13-3.22,0-5.84,2.62-5.84,5.84,0,.41.04.82.13,1.21ZM24.6,29.03c-2.74,0-4.97-2.23-4.97-4.97s2.23-4.97,4.97-4.97,4.97,2.23,4.97,4.97-2.23,4.97-4.97,4.97Z"/>
  <path class="cls-8" d="M23.16,6.28h.62v2.6c0,.24.2.44.44.44s.44-.2.44-.44v-2.6h.67c.24,0,.44-.2.44-.44s-.2-.44-.44-.44h-.67v-1.22c0-.42.34-.76.76-.76h.56c.24,0,.44-.2.44-.44s-.2-.44-.44-.44h-.56c-.9,0-1.63.73-1.63,1.63v1.22h-.62c-.24,0-.44.2-.44.44s.2.44.44.44Z"/>
  <path class="cls-7" d="M26.7,23.48l-2.97-1.72c-.19-.11-.42-.11-.6,0-.19.11-.3.31-.3.52v3.43c0,.21.12.41.3.52.09.05.2.08.3.08s.21-.03.3-.08l2.97-1.72c.19-.11.3-.31.3-.52s-.12-.41-.3-.52ZM23.7,25.25v-2.49l2.15,1.24-2.15,1.24Z"/>
  <path class="cls-6" d="M4.4,20.97c-.66,0-1.2.54-1.2,1.2v3.79c0,.66.54,1.2,1.2,1.2h3.79c.66,0,1.2-.54,1.2-1.2v-3.79c0-.66-.54-1.2-1.2-1.2h-3.79ZM8.52,22.16v3.79c0,.18-.14.32-.32.32h-3.79c-.18,0-.32-.14-.32-.32v-3.79c0-.18.14-.32.32-.32h3.79c.18,0,.32.14.32.32Z"/>
  <path class="cls-3" d="M6.3,22.74c-.73,0-1.32.59-1.32,1.32s.59,1.32,1.32,1.32,1.32-.59,1.32-1.32-.59-1.32-1.32-1.32ZM6.3,24.51h0c-.25,0-.45-.2-.45-.45s.2-.45.45-.45.45.2.45.45-.2.45-.45.45Z"/>
  <g>
    <path class="cls-4" d="M8.2,8.15s1.05,0,1.02,0c.09,0,.16-.07.16-.16-.08-1.73.4-3.55-1.39-3.55-.35,0-.62.12-.82.27,0-.32-.35-.14-1.15-.19-.09,0-.16.07-.16.16.07,3.11-.15,3.47.16,3.47h1.02c.3,0,.11-.42.16-1.8,0-.57.16-.68.45-.68.32,0,.37.22.37.71.06,1.36-.13,1.77.16,1.77ZM7.66,5.34c-.99,0-.78,1.09-.78,2.48h-.69v-2.97h.65v.29c0,.16.24.24.33.08.11-.21.39-.45.82-.45.78,0,1.06.38,1.06,1.41v1.65h-.69c0-1.57.17-2.48-.7-2.48h0Z"/>
    <path class="cls-2" d="M4.36,4.52c-.31,0-.1.35-.16,3.47,0,.09.07.16.16.16h1.03c.31,0,.1-.35.16-3.47,0-.28-.41-.12-1.19-.16ZM5.22,7.82h-.7v-2.97h.7v2.97Z"/>
    <path class="cls-1" d="M4.87,2.88c-1.01,0-1,1.52,0,1.52s1.01-1.52,0-1.52ZM4.87,4.07c-.56,0-.57-.86,0-.86s.56.86,0,.86Z"/>
  </g>
  <g id="g2315">
    <g id="path2317">
      <path class="cls-5" d="M15.51,19.97c-1.23,0-2.44-.31-3.51-.9-.55-.31-.84-.94-.71-1.55.21-.94.74-1.8,1.5-2.41.42-.34.9-.6,1.42-.76.21-.07.43.05.5.26.07.21-.05.43-.26.5-.42.13-.81.34-1.16.62-.62.5-1.05,1.2-1.22,1.97-.06.27.07.55.32.68.95.53,2.03.8,3.12.8s2.17-.28,3.13-.8c.25-.14.38-.42.32-.68-.27-1.22-1.19-2.21-2.38-2.59-.21-.07-.32-.29-.26-.5.07-.21.29-.32.5-.26,1.46.46,2.58,1.68,2.92,3.17.14.61-.15,1.24-.71,1.55-1.07.59-2.28.9-3.51.9Z"/>
    </g>
  </g>
  <g id="g2319">
    <g id="path2321">
      <path class="cls-10" d="M15.51,15.49c-1.37,0-2.49-1.12-2.49-2.49v-2.56c0-.9.73-1.62,1.62-1.62h1.73c.9,0,1.62.73,1.62,1.62v2.56c0,1.37-1.12,2.49-2.49,2.49ZM14.64,9.61c-.46,0-.83.37-.83.83v2.56c0,.94.76,1.7,1.7,1.7s1.7-.76,1.7-1.7v-2.56c0-.46-.37-.83-.83-.83h-1.73Z"/>
    </g>
  </g>
  <g id="g2323">
    <g id="path2325">
      <path class="cls-11" d="M13.41,12.4c-.17,0-.32-.11-.38-.27-.07-.21.04-.43.25-.5l1.78-.58c.78-.26,1.61-.14,2.29.32l.47.32c.18.12.23.37.11.55-.12.18-.37.23-.55.11l-.47-.32c-.47-.32-1.06-.4-1.6-.22l-1.78.58s-.08.02-.12.02Z"/>
    </g>
  </g>
</svg>