<?xml version="1.0" encoding="UTF-8"?>
<svg id="Layer_1" data-name="Layer 1" xmlns="http://www.w3.org/2000/svg" xmlns:xlink="http://www.w3.org/1999/xlink" viewBox="0 0 42.19 30" width="50" height="28">
  <defs>
    <style>
      .cls-1 {
        fill: url(#linear-gradient-8);
      }

      .cls-2 {
        fill: url(#linear-gradient-7);
      }

      .cls-3 {
        fill: url(#linear-gradient-5);
      }

      .cls-4 {
        fill: url(#linear-gradient-6);
      }

      .cls-5 {
        fill: url(#linear-gradient-9);
      }

      .cls-6 {
        fill: url(#linear-gradient-4);
      }

      .cls-7 {
        fill: url(#linear-gradient-3);
      }

      .cls-8 {
        fill: url(#linear-gradient-2);
      }

      .cls-9 {
        fill: url(#linear-gradient);
      }
    </style>
    <linearGradient id="linear-gradient" x1="-7.64" y1="44.32" x2="41.78" y2="12.43" gradientUnits="userSpaceOnUse">
      <stop offset="0" stop-color="#39befd"/>
      <stop offset="1" stop-color="#0988f4"/>
    </linearGradient>
    <linearGradient id="linear-gradient-2" x1="-19.73" y1="26.01" x2="29.76" y2="-5.93" xlink:href="#linear-gradient"/>
    <linearGradient id="linear-gradient-3" x1="5.18" y1="21.58" x2="19.26" y2="10.37" xlink:href="#linear-gradient"/>
    <linearGradient id="linear-gradient-4" x1="3.98" y1="20.08" x2="18.06" y2="8.87" xlink:href="#linear-gradient"/>
    <linearGradient id="linear-gradient-5" x1="8.32" y1="25.52" x2="22.4" y2="14.32" xlink:href="#linear-gradient"/>
    <linearGradient id="linear-gradient-6" x1="12.56" y1="24.74" x2="47.87" y2="-4.12" xlink:href="#linear-gradient"/>
    <linearGradient id="linear-gradient-7" x1="12.56" y1="27.95" x2="47.87" y2="-.92" xlink:href="#linear-gradient"/>
    <linearGradient id="linear-gradient-8" x1="12.56" y1="31.15" x2="47.87" y2="2.28" xlink:href="#linear-gradient"/>
    <linearGradient id="linear-gradient-9" x1="12.56" y1="34.35" x2="47.87" y2="5.48" xlink:href="#linear-gradient"/>
  </defs>
  <g>
    <path class="cls-9" d="M38.3,29.44H3.65c-1.54,0-2.8-1.16-2.8-2.58v-3.12c0-.23.2-.42.46-.42s.46.19.46.42v3.12c0,.96.85,1.74,1.89,1.74h34.65c1.04,0,1.89-.78,1.89-1.74V3.34c0-.96-.85-1.74-1.89-1.74h-1.61c-.25,0-.46-.19-.46-.42s.2-.42.46-.42h1.61c1.54,0,2.8,1.16,2.8,2.58v23.51c0,1.42-1.25,2.58-2.8,2.58Z"/>
    <path class="cls-8" d="M1.31,22.19c-.25,0-.46-.19-.46-.42V3.34C.85,1.92,2.11.76,3.65.76h30.92c.25,0,.46.19.46.42s-.2.42-.46.42H3.65c-1.04,0-1.89.78-1.89,1.74v18.43c0,.23-.2.42-.46.42Z"/>
  </g>
  <g>
    <path class="cls-7" d="M13.59,24.66c-5.39,0-9.77-4.38-9.77-9.77S8.21,5.11,13.59,5.11s9.77,4.38,9.77,9.77-4.38,9.77-9.77,9.77ZM13.59,6.26c-4.76,0-8.63,3.87-8.63,8.63s3.87,8.63,8.63,8.63,8.63-3.87,8.63-8.63-3.87-8.63-8.63-8.63Z"/>
    <path class="cls-6" d="M13.59,16.68c-.97,0-1.89-.38-2.57-1.07-.69-.69-1.07-1.6-1.07-2.57v-1.23c0-.97.38-1.89,1.07-2.57.69-.69,1.6-1.07,2.57-1.07s1.89.38,2.57,1.07c.69.69,1.07,1.6,1.07,2.57v1.23c0,.97-.38,1.89-1.07,2.57-.69.69-1.6,1.07-2.57,1.07ZM13.59,9.32c-.66,0-1.3.27-1.76.73-.47.47-.73,1.1-.73,1.76v1.23c0,.67.26,1.29.73,1.76.46.46,1.11.73,1.76.73s1.29-.26,1.76-.73c.47-.47.73-1.1.73-1.76v-1.23c0-.67-.26-1.29-.73-1.76-.47-.47-1.1-.73-1.76-.73Z"/>
    <path class="cls-3" d="M13.59,24.66c-1.33,0-2.63-.27-3.85-.79-1.18-.5-2.23-1.23-3.13-2.14-.22-.22-.22-.58,0-.8.9-.92,1.95-1.64,3.13-2.14,1.22-.52,2.51-.79,3.85-.79s2.63.27,3.85.79c1.18.5,2.23,1.23,3.13,2.14.22.22.22.58,0,.8-.9.92-1.95,1.64-3.13,2.14-1.22.52-2.51.79-3.85.79ZM7.86,21.32c.7.62,1.48,1.12,2.34,1.49,1.07.46,2.22.69,3.4.69s2.32-.23,3.4-.69c.86-.37,1.65-.87,2.34-1.49-.7-.62-1.48-1.12-2.34-1.49-1.07-.46-2.22-.69-3.4-.69s-2.32.23-3.4.69c-.86.37-1.65.87-2.34,1.49Z"/>
  </g>
  <path class="cls-4" d="M35.26,9.92h-7.68c-.33,0-.6-.27-.6-.6s.27-.6.6-.6h7.68c.33,0,.6.27.6.6s-.27.6-.6.6Z"/>
  <path class="cls-2" d="M35.26,13.12h-7.68c-.33,0-.6-.27-.6-.6s.27-.6.6-.6h7.68c.33,0,.6.27.6.6s-.27.6-.6.6Z"/>
  <path class="cls-1" d="M35.26,16.32h-7.68c-.33,0-.6-.27-.6-.6s.27-.6.6-.6h7.68c.33,0,.6.27.6.6s-.27.6-.6.6Z"/>
  <path class="cls-5" d="M35.26,19.53h-7.68c-.33,0-.6-.27-.6-.6s.27-.6.6-.6h7.68c.33,0,.6.27.6.6s-.27.6-.6.6Z"/>
</svg>