<?xml version="1.0" encoding="UTF-8"?>
<svg id="Layer_1" data-name="Layer 1" xmlns="http://www.w3.org/2000/svg" xmlns:xlink="http://www.w3.org/1999/xlink" viewBox="0 0 35.7 30" width="50" height="28">
  <defs>
    <style>
      .cls-1 {
        fill: url(#linear-gradient-5);
      }

      .cls-2 {
        fill: url(#linear-gradient-4);
      }

      .cls-3 {
        fill: url(#linear-gradient-3);
      }

      .cls-4 {
        fill: url(#linear-gradient);
      }

      .cls-5 {
        fill: none;
        stroke: url(#linear-gradient-2);
        stroke-miterlimit: 10;
      }
    </style>
    <linearGradient id="linear-gradient" x1="-1.41" y1="36.48" x2="31.7" y2="16.03" gradientUnits="userSpaceOnUse">
      <stop offset="0" stop-color="#39befd"/>
      <stop offset="1" stop-color="#0988f4"/>
    </linearGradient>
    <linearGradient id="linear-gradient-2" x1="4.07" y1="33.28" x2="30.79" y2="16.78" xlink:href="#linear-gradient"/>
    <linearGradient id="linear-gradient-3" x1="9.19" y1="16.63" x2="22.97" y2="5.66" xlink:href="#linear-gradient"/>
    <linearGradient id="linear-gradient-4" x1="8.02" y1="15.16" x2="21.8" y2="4.19" xlink:href="#linear-gradient"/>
    <linearGradient id="linear-gradient-5" x1="12.26" y1="20.49" x2="26.04" y2="9.52" xlink:href="#linear-gradient"/>
  </defs>
  <path class="cls-4" d="M26.54,24.41H8.31c-.22,0-.4.2-.4.44s.18.44.4.44h18.23c.22,0,.4-.2.4-.44s-.18-.44-.4-.44Z"/>
  <rect class="cls-5" x="1.22" y="21.06" width="32.42" height="7.94" rx="1.79" ry="1.79"/>
  <path class="cls-3" d="M17.43,19.64c-5.27,0-9.56-4.29-9.56-9.56S12.15.51,17.43.51s9.56,4.29,9.56,9.56-4.29,9.56-9.56,9.56ZM17.43,1.63c-4.66,0-8.44,3.79-8.44,8.44s3.79,8.44,8.44,8.44,8.44-3.79,8.44-8.44S22.08,1.63,17.43,1.63Z"/>
  <path class="cls-2" d="M17.43,11.84c-.95,0-1.85-.37-2.52-1.04-.67-.67-1.04-1.57-1.04-2.52v-1.2c0-.95.37-1.85,1.04-2.52.67-.67,1.57-1.04,2.52-1.04s1.85.37,2.52,1.04c.67.67,1.04,1.57,1.04,2.52v1.2c0,.95-.37,1.85-1.04,2.52-.67.67-1.57,1.04-2.52,1.04ZM17.43,4.63c-.64,0-1.27.26-1.73.71-.46.46-.71,1.07-.71,1.73v1.2c0,.65.25,1.26.71,1.73.45.45,1.08.71,1.73.71s1.26-.25,1.73-.71c.46-.46.71-1.07.71-1.73v-1.2c0-.65-.25-1.26-.71-1.73-.46-.46-1.07-.71-1.73-.71Z"/>
  <path class="cls-1" d="M17.43,19.64c-1.31,0-2.57-.26-3.77-.77-1.15-.49-2.18-1.2-3.06-2.1-.21-.22-.21-.57,0-.78.88-.9,1.91-1.6,3.06-2.1,1.19-.51,2.46-.77,3.77-.77s2.57.26,3.77.77c1.15.49,2.18,1.2,3.06,2.1.21.22.21.57,0,.78-.88.9-1.91,1.6-3.06,2.1-1.19.51-2.46.77-3.77.77ZM11.81,16.38c.68.61,1.45,1.1,2.29,1.46,1.05.45,2.17.68,3.32.68s2.27-.23,3.32-.68c.84-.36,1.61-.85,2.29-1.46-.68-.61-1.45-1.1-2.29-1.46-1.05-.45-2.17-.68-3.32-.68s-2.27.23-3.32.68c-.84.36-1.61.85-2.29,1.46Z"/>
</svg>