<?xml version="1.0" encoding="UTF-8"?>
<svg id="Layer_1" data-name="Layer 1" xmlns="http://www.w3.org/2000/svg" xmlns:xlink="http://www.w3.org/1999/xlink" viewBox="0 0 21.28 30" width="50" height="28">
  <defs>
    <style>
      .cls-1 {
        fill: url(#linear-gradient-8);
      }

      .cls-2 {
        fill: url(#linear-gradient-7);
      }

      .cls-3 {
        fill: url(#linear-gradient-5);
      }

      .cls-4 {
        fill: url(#linear-gradient-6);
      }

      .cls-5 {
        fill: url(#linear-gradient-4);
      }

      .cls-6 {
        fill: url(#linear-gradient-3);
      }

      .cls-7 {
        fill: url(#linear-gradient-2);
      }

      .cls-8 {
        fill: url(#linear-gradient);
      }
    </style>
    <linearGradient id="linear-gradient" x1="-13.23" y1="33.63" x2="22.08" y2="4.76" gradientUnits="userSpaceOnUse">
      <stop offset="0" stop-color="#39befd"/>
      <stop offset="1" stop-color="#0988f4"/>
    </linearGradient>
    <linearGradient id="linear-gradient-2" x1="-16.54" y1="29.58" x2="18.77" y2=".71" xlink:href="#linear-gradient"/>
    <linearGradient id="linear-gradient-3" x1="-12.92" y1="34" x2="22.39" y2="5.13" xlink:href="#linear-gradient"/>
    <linearGradient id="linear-gradient-4" x1="-10.37" y1="37.12" x2="24.94" y2="8.25" xlink:href="#linear-gradient"/>
    <linearGradient id="linear-gradient-5" x1="-7.28" y1="40.9" x2="28.03" y2="12.03" xlink:href="#linear-gradient"/>
    <linearGradient id="linear-gradient-6" x1="-8.34" y1="39.61" x2="26.97" y2="10.74" xlink:href="#linear-gradient"/>
    <linearGradient id="linear-gradient-7" x1="-14.02" y1="32.66" x2="21.29" y2="3.79" xlink:href="#linear-gradient"/>
    <linearGradient id="linear-gradient-8" x1="-10.52" y1="36.94" x2="24.79" y2="8.07" xlink:href="#linear-gradient"/>
  </defs>
  <path class="cls-8" d="M15.34,17.53H5.72c-.94,0-1.71-.77-1.71-1.71v-2.47c0-1.83,1.49-3.31,3.31-3.31h.61c.33,0,.6.27.6.6s-.27.6-.6.6h-.61c-1.17,0-2.11.95-2.11,2.11v2.47c0,.28.23.51.51.51h9.62c.28,0,.51-.23.51-.51v-2.47c0-1.17-.95-2.11-2.11-2.11h-.67c-.33,0-.6-.27-.6-.6s.27-.6.6-.6h.67c1.83,0,3.31,1.49,3.31,3.31v2.47c0,.94-.77,1.71-1.71,1.71Z"/>
  <path class="cls-7" d="M10.49,12.38c-1.02,0-1.98-.4-2.7-1.12-.72-.72-1.12-1.68-1.12-2.7v-2.18c0-2.1,1.71-3.82,3.82-3.82s3.82,1.71,3.82,3.82v2.16c0,2.11-1.72,3.82-3.82,3.82ZM10.49,3.78c-1.44,0-2.62,1.17-2.62,2.62v2.18c0,.7.27,1.35.77,1.85.49.49,1.15.77,1.85.76,1.45,0,2.62-1.18,2.62-2.62v-2.16c0-1.44-1.17-2.62-2.62-2.62Z"/>
  <path class="cls-6" d="M17.9,29.66H3.15c-1.29,0-2.34-1.05-2.34-2.34V2.34C.81,1.05,1.86,0,3.15,0h14.75c1.29,0,2.34,1.05,2.34,2.34v24.98c0,1.29-1.05,2.34-2.34,2.34ZM3.15,1.2c-.63,0-1.14.51-1.14,1.14v24.98c0,.63.51,1.14,1.14,1.14h14.75c.63,0,1.14-.51,1.14-1.14V2.34c0-.63-.51-1.14-1.14-1.14H3.15Z"/>
  <g>
    <path class="cls-5" d="M9.47,22.63h-2.78c-.33,0-.6-.27-.6-.6s.27-.6.6-.6h2.78c.33,0,.6.27.6.6s-.27.6-.6.6Z"/>
    <path class="cls-3" d="M14.36,26.95h-7.68c-.33,0-.6-.27-.6-.6s.27-.6.6-.6h7.68c.33,0,.6.27.6.6s-.27.6-.6.6Z"/>
    <path class="cls-4" d="M14.36,24.79h-7.68c-.33,0-.6-.27-.6-.6s.27-.6.6-.6h7.68c.33,0,.6.27.6.6s-.27.6-.6.6Z"/>
  </g>
  <path class="cls-2" d="M8.45,15.32h-1.04c-.33,0-.6-.27-.6-.6s.27-.6.6-.6h1.04c.33,0,.6.27.6.6s-.27.6-.6.6Z"/>
  <path class="cls-1" d="M19.44,20.35H1.6c-.33,0-.6-.27-.6-.6s.27-.6.6-.6h17.84c.33,0,.6.27.6.6s-.27.6-.6.6Z"/>
</svg>