<?xml version="1.0" encoding="UTF-8"?>
<svg id="Layer_1" data-name="Layer 1" xmlns="http://www.w3.org/2000/svg" xmlns:xlink="http://www.w3.org/1999/xlink" viewBox="0 0 31.02 30" width="50" height="28">
  <defs>
    <style>
      .cls-1 {
        fill: url(#linear-gradient-4);
      }

      .cls-2 {
        fill: url(#linear-gradient-3);
      }

      .cls-3 {
        fill: url(#linear-gradient-2);
      }

      .cls-4 {
        fill: url(#linear-gradient);
      }
    </style>
    <linearGradient id="linear-gradient" x1="6.94" y1="26.14" x2="23.79" y2="13.47" gradientUnits="userSpaceOnUse">
      <stop offset="0" stop-color="#39befd"/>
      <stop offset="1" stop-color="#0988f4"/>
    </linearGradient>
    <linearGradient id="linear-gradient-2" x1="-1.93" y1="14.35" x2="14.92" y2="1.68" xlink:href="#linear-gradient"/>
    <linearGradient id="linear-gradient-3" x1="3.76" y1="21.9" x2="20.6" y2="9.23" xlink:href="#linear-gradient"/>
    <linearGradient id="linear-gradient-4" x1="7.59" y1="27" x2="24.44" y2="14.34" xlink:href="#linear-gradient"/>
  </defs>
  <path class="cls-4" d="M27.34,7.97H8.92c-1.65,0-2.99,1.34-2.99,2.99v10.22c0,1.65,1.34,2.99,2.99,2.99h8.61c.93,0,1.82.39,2.45,1.07l3.8,4.12c.52.57,1.4.6,1.97.08.29-.26.45-.64.45-1.03v-3.2c0-.59.48-1.06,1.07-1.06.03,0,.05,0,.08,0,1.65,0,2.99-1.34,2.99-2.99v-10.22c0-1.65-1.34-2.99-2.99-2.99h0ZM29.27,21.17c0,1.07-.87,1.94-1.94,1.93-.03,0-.05,0-.08,0-1.16,0-2.11.95-2.11,2.11v3.2c0,.19-.15.34-.34.34-.09,0-.18-.04-.25-.11l-3.8-4.12c-.83-.9-2-1.41-3.22-1.41h-8.61c-1.07,0-1.93-.86-1.93-1.93v-10.22c0-1.07.86-1.93,1.93-1.93h18.42c1.07,0,1.93.86,1.93,1.93v10.22Z"/>
  <path class="cls-3" d="M3.47,15.33c-1.07,0-1.93-.86-1.93-1.93V3.18c0-1.07.86-1.93,1.93-1.93h18.42c1.07,0,1.93.86,1.93,1.93v1.6c0,.29.24.53.53.53s.53-.24.53-.53v-1.6c0-1.65-1.34-2.99-2.99-2.99H3.47c-1.65,0-2.99,1.34-2.99,2.99v10.22c0,1.65,1.34,2.99,2.99,2.99.29,0,.53-.24.53-.53s-.24-.53-.53-.53Z"/>
  <path class="cls-2" d="M10.7,13.57h9.66c.29,0,.53-.24.53-.53s-.24-.53-.53-.53h-9.66c-.29,0-.52.25-.52.54,0,.28.23.51.52.52Z"/>
  <path class="cls-1" d="M25.55,18.55h-14.85c-.29,0-.52.25-.52.54,0,.28.23.51.52.52h14.85c.29,0,.52-.25.52-.54,0-.28-.23-.51-.52-.52Z"/>
</svg>