<?xml version="1.0" encoding="UTF-8"?>
<svg id="Layer_1" data-name="Layer 1" xmlns="http://www.w3.org/2000/svg" xmlns:xlink="http://www.w3.org/1999/xlink" viewBox="0 0 38.85 30" width="50" height="28">
  <defs>
    <style>
      .cls-1 {
        fill: url(#linear-gradient-5);
      }

      .cls-2 {
        fill: url(#linear-gradient-4);
      }

      .cls-3 {
        fill: url(#linear-gradient-3);
      }

      .cls-4 {
        fill: url(#linear-gradient-2);
      }

      .cls-5 {
        fill: url(#linear-gradient);
      }
    </style>
    <linearGradient id="linear-gradient" x1="-1.5" y1="26.35" x2="19.79" y2="14.73" gradientUnits="userSpaceOnUse">
      <stop offset="0" stop-color="#39befd"/>
      <stop offset="1" stop-color="#0988f4"/>
    </linearGradient>
    <linearGradient id="linear-gradient-2" x1="-9.12" y1="12.4" x2="12.17" y2=".77" xlink:href="#linear-gradient"/>
    <linearGradient id="linear-gradient-3" x1="-8.03" y1="14.4" x2="13.26" y2="2.78" xlink:href="#linear-gradient"/>
    <linearGradient id="linear-gradient-4" x1="-6.93" y1="16.4" x2="14.36" y2="4.78" xlink:href="#linear-gradient"/>
    <linearGradient id="linear-gradient-5" x1="-3.89" y1="21.97" x2="17.4" y2="10.35" xlink:href="#linear-gradient"/>
  </defs>
  <path class="cls-5" d="M33.95.42H4.62c-2.21,0-4,1.79-4,4v21.17c0,2.21,1.79,4,4,4h29.34c2.21,0,4-1.79,4-4V4.42c0-2.21-1.79-4-4-4ZM17.74,13.95c-1.64-1.57-4.22-1.57-5.86,0L1.95,23.13v-14.49h34.67v14.48l-9.92-9.18c-1.64-1.57-4.22-1.57-5.86,0l-1.55,1.43-1.55-1.43ZM4.62,1.75h29.34c1.47,0,2.67,1.19,2.67,2.67v2.89H1.95v-2.89c0-1.47,1.19-2.67,2.67-2.67ZM33.95,28.25H4.62c-1.47,0-2.67-1.19-2.67-2.67v-.64l10.83-10.02c1.13-1.1,2.93-1.1,4.05,0l11.04,10.21c.27.25.69.23.94-.03s.23-.69-.03-.94c0,0,0,0,0,0l-8.51-7.87,1.47-1.36c1.12-1.1,2.93-1.1,4.05,0l10.83,10.02v.64c0,1.47-1.19,2.67-2.67,2.67h0Z"/>
  <circle class="cls-4" cx="5.29" cy="4.53" r=".67"/>
  <circle class="cls-3" cx="10.05" cy="4.53" r=".67"/>
  <circle class="cls-2" cx="14.81" cy="4.53" r=".67"/>
  <path class="cls-1" d="M24.16,5.2h7.79c.37,0,.67-.3.67-.67s-.3-.67-.67-.67h-7.79c-.37,0-.67.3-.67.67s.3.67.67.67Z"/>
</svg>