<?xml version="1.0" encoding="UTF-8"?>
<svg id="Layer_1" data-name="Layer 1" xmlns="http://www.w3.org/2000/svg" xmlns:xlink="http://www.w3.org/1999/xlink" viewBox="0 0 30.12 30" width="50" height="28">
  <defs>
    <style>
      .cls-1 {
        fill: url(#linear-gradient-7);
      }

      .cls-2 {
        fill: url(#linear-gradient-5);
      }

      .cls-3 {
        fill: url(#linear-gradient-6);
      }

      .cls-4 {
        fill: url(#linear-gradient-4);
      }

      .cls-5 {
        fill: url(#linear-gradient-3);
      }

      .cls-6 {
        fill: url(#linear-gradient-2);
      }

      .cls-7 {
        fill: url(#linear-gradient);
      }
    </style>
    <linearGradient id="linear-gradient" x1="-1.33" y1="22.82" x2="17.74" y2="5.06" gradientUnits="userSpaceOnUse">
      <stop offset="0" stop-color="#39befd"/>
      <stop offset="1" stop-color="#0988f4"/>
    </linearGradient>
    <linearGradient id="linear-gradient-2" x1="-3.6" y1="20.38" x2="15.46" y2="2.62" xlink:href="#linear-gradient"/>
    <linearGradient id="linear-gradient-3" x1="-.44" y1="23.78" x2="18.63" y2="6.01" xlink:href="#linear-gradient"/>
    <linearGradient id="linear-gradient-4" x1="12.65" y1="37.84" x2="31.72" y2="20.07" xlink:href="#linear-gradient"/>
    <linearGradient id="linear-gradient-5" x1="9.82" y1="34.8" x2="28.89" y2="17.03" xlink:href="#linear-gradient"/>
    <linearGradient id="linear-gradient-6" x1="2.91" y1="27.38" x2="21.98" y2="9.62" xlink:href="#linear-gradient"/>
    <linearGradient id="linear-gradient-7" x1="4.36" y1="28.94" x2="23.43" y2="11.17" xlink:href="#linear-gradient"/>
  </defs>
  <path class="cls-7" d="M14.5,15.53c-3.55,0-6.87-.53-9.35-1.48C1.42,12.6.63,10.6.63,9.17v-3.23c0-.86.7-1.57,1.57-1.57h24.6c.86,0,1.57.7,1.57,1.57v3.23c0,1.42-.78,3.42-4.52,4.87-2.48.96-5.8,1.48-9.35,1.48ZM2.2,5.51c-.24,0-.43.19-.43.43v3.23c0,1.94,2.06,3.14,3.79,3.81,2.35.91,5.52,1.41,8.94,1.41s6.59-.5,8.94-1.41c1.73-.67,3.79-1.87,3.79-3.81v-3.23c0-.24-.19-.43-.43-.43H2.2Z"/>
  <path class="cls-6" d="M21.62,5.51H7.38c-.31,0-.57-.25-.57-.57v-1.98c0-1.41,1.15-2.55,2.55-2.55h10.26c1.41,0,2.55,1.15,2.55,2.55v1.98c0,.31-.25.57-.57.57ZM7.95,4.37h13.1v-1.41c0-.78-.64-1.42-1.42-1.42h-10.26c-.78,0-1.42.64-1.42,1.42v1.41Z"/>
  <path class="cls-5" d="M17.38,11.88h-5.76c-.31,0-.57-.25-.57-.57v-2.91c0-.31.25-.57.57-.57h5.76c.31,0,.57.25.57.57v2.91c0,.31-.25.57-.57.57ZM12.19,10.74h4.62v-1.77h-4.62v1.77Z"/>
  <path class="cls-4" d="M27.98,29.48c-.09,0-.19-.02-.28-.07l-2.31-1.28-2.31,1.28c-.18.1-.39.09-.56,0-.17-.1-.28-.29-.28-.49v-5.91c0-.31.25-.57.57-.57s.57.25.57.57v4.95l1.74-.96c.17-.09.38-.09.55,0l1.74.96v-4.95c0-.31.25-.57.57-.57s.57.25.57.57v5.91c0,.2-.11.39-.28.49-.09.05-.19.08-.29.08Z"/>
  <path class="cls-2" d="M25.4,24.61c-2.38,0-4.32-1.94-4.32-4.32s1.94-4.32,4.32-4.32,4.32,1.94,4.32,4.32-1.94,4.32-4.32,4.32ZM25.4,17.1c-1.76,0-3.19,1.43-3.19,3.19s1.43,3.19,3.19,3.19,3.19-1.43,3.19-3.19-1.43-3.19-3.19-3.19Z"/>
  <path class="cls-3" d="M22.81,25.56H3.38c-.86,0-1.57-.7-1.57-1.57v-12.26c0-.31.25-.57.57-.57s.57.25.57.57v12.26c0,.23.2.43.43.43h19.44c.31,0,.57.25.57.57s-.25.57-.57.57ZM26.62,17.3c-.31,0-.57-.25-.57-.57v-5c0-.31.25-.57.57-.57s.57.25.57.57v5c0,.31-.25.57-.57.57Z"/>
  <path class="cls-1" d="M21.91,22.26H2.38c-.31,0-.57-.25-.57-.57s.25-.57.57-.57h19.54c.31,0,.57.25.57.57s-.25.57-.57.57Z"/>
</svg>