<?xml version="1.0" encoding="UTF-8"?>
<svg id="Layer_1" data-name="Layer 1" xmlns="http://www.w3.org/2000/svg" xmlns:xlink="http://www.w3.org/1999/xlink" viewBox="0 0 30.2 30" width="50" height="28">
  <defs>
    <style>
      .cls-1 {
        fill: url(#linear-gradient-8);
      }

      .cls-2 {
        fill: url(#linear-gradient-7);
      }

      .cls-3 {
        fill: url(#linear-gradient-5);
      }

      .cls-4 {
        fill: url(#linear-gradient-6);
      }

      .cls-5 {
        fill: url(#linear-gradient-9);
      }

      .cls-6 {
        fill: url(#linear-gradient-4);
      }

      .cls-7 {
        fill: url(#linear-gradient-3);
      }

      .cls-8 {
        fill: url(#linear-gradient-2);
      }

      .cls-9 {
        fill: url(#linear-gradient);
      }

      .cls-10 {
        fill: url(#linear-gradient-10);
      }

      .cls-11 {
        fill: url(#linear-gradient-11);
      }

      .cls-12 {
        fill: url(#linear-gradient-12);
      }

      .cls-13 {
        fill: url(#linear-gradient-13);
      }

      .cls-14 {
        fill: url(#linear-gradient-14);
      }
    </style>
    <linearGradient id="linear-gradient" x1="-4.16" y1="33.64" x2="16.22" y2="14.64" gradientUnits="userSpaceOnUse">
      <stop offset="0" stop-color="#39befd"/>
      <stop offset="1" stop-color="#0988f4"/>
    </linearGradient>
    <linearGradient id="linear-gradient-2" x1="-4.16" y1="33.64" x2="16.22" y2="14.64" xlink:href="#linear-gradient"/>
    <linearGradient id="linear-gradient-3" x1=".99" y1="39.16" x2="21.36" y2="20.16" xlink:href="#linear-gradient"/>
    <linearGradient id="linear-gradient-4" x1=".99" y1="39.16" x2="21.36" y2="20.16" xlink:href="#linear-gradient"/>
    <linearGradient id="linear-gradient-5" x1="6.13" y1="44.68" x2="26.51" y2="25.68" xlink:href="#linear-gradient"/>
    <linearGradient id="linear-gradient-6" x1="6.13" y1="44.68" x2="26.51" y2="25.67" xlink:href="#linear-gradient"/>
    <linearGradient id="linear-gradient-7" x1="1.77" y1="40" x2="22.15" y2="21" xlink:href="#linear-gradient"/>
    <linearGradient id="linear-gradient-8" x1="-2.68" y1="35.23" x2="17.7" y2="16.23" xlink:href="#linear-gradient"/>
    <linearGradient id="linear-gradient-9" x1="-5.52" y1="32.19" x2="14.86" y2="13.18" xlink:href="#linear-gradient"/>
    <linearGradient id="linear-gradient-10" x1="-5.18" y1="32.55" x2="15.2" y2="13.55" xlink:href="#linear-gradient"/>
    <linearGradient id="linear-gradient-11" x1=".8" y1="38.95" x2="21.17" y2="19.95" xlink:href="#linear-gradient"/>
    <linearGradient id="linear-gradient-12" x1="-7.74" y1="29.8" x2="12.64" y2="10.8" xlink:href="#linear-gradient"/>
    <linearGradient id="linear-gradient-13" x1="-9.13" y1="28.31" x2="11.25" y2="9.31" xlink:href="#linear-gradient"/>
    <linearGradient id="linear-gradient-14" x1="-5.34" y1="32.38" x2="15.04" y2="13.37" xlink:href="#linear-gradient"/>
  </defs>
  <path class="cls-9" d="M3.93,27.44c-.06,0-.13,0-.19-.01-.35-.05-.67-.23-.88-.52-.22-.29-.31-.64-.26-.99.05-.35.23-.67.52-.88.59-.44,1.43-.33,1.88.26.22.29.31.64.26.99s-.23.67-.52.88c-.23.18-.51.27-.8.27ZM3.92,25.6c-.11,0-.21.03-.3.1-.11.08-.18.2-.2.33-.02.13.02.27.1.37.08.11.2.18.33.2.13.02.27-.02.37-.1.11-.08.18-.2.2-.33.02-.13-.02-.27-.1-.37-.1-.13-.25-.2-.4-.2Z"/>
  <path class="cls-8" d="M3.92,29.29c-1.76,0-3.18-1.43-3.18-3.18s1.43-3.18,3.18-3.18,3.18,1.43,3.18,3.18-1.43,3.18-3.18,3.18ZM3.92,23.75c-1.29,0-2.35,1.05-2.35,2.35s1.05,2.35,2.35,2.35,2.35-1.05,2.35-2.35-1.05-2.35-2.35-2.35Z"/>
  <path class="cls-7" d="M14.99,27.44c-.12,0-.25-.02-.37-.05-.34-.1-.63-.32-.8-.64-.17-.31-.21-.67-.12-1.02.1-.34.32-.63.64-.8.31-.17.67-.21,1.02-.12.34.1.63.32.8.64.17.31.21.67.12,1.02-.1.34-.32.63-.64.8-.2.11-.42.17-.65.17ZM14.98,25.6c-.08,0-.17.02-.24.06-.12.07-.2.17-.24.3s-.02.27.04.38c.13.24.44.33.69.2.24-.13.33-.44.2-.69-.07-.12-.17-.2-.3-.24-.05-.01-.09-.02-.14-.02Z"/>
  <path class="cls-6" d="M14.99,29.29c-1.76,0-3.18-1.43-3.18-3.18s1.43-3.18,3.18-3.18,3.18,1.43,3.18,3.18-1.43,3.18-3.18,3.18ZM14.99,23.75c-1.29,0-2.35,1.05-2.35,2.35s1.05,2.35,2.35,2.35,2.35-1.05,2.35-2.35-1.05-2.35-2.35-2.35Z"/>
  <path class="cls-3" d="M26.05,27.44c-.18,0-.36-.04-.53-.11-.68-.29-.99-1.08-.7-1.76h0c.14-.33.4-.58.74-.71.33-.13.7-.13,1.02.01.33.14.58.4.71.74.13.33.13.7-.01,1.03-.22.51-.71.81-1.23.81ZM26.05,25.6c-.06,0-.13.01-.19.04-.13.05-.22.15-.28.27h0c-.11.26,0,.55.26.66.26.11.55,0,.66-.26.11-.26,0-.55-.26-.66-.06-.03-.13-.04-.2-.04ZM25.21,25.74h0,0Z"/>
  <path class="cls-4" d="M26.05,29.29c-1.76,0-3.18-1.43-3.18-3.18s1.43-3.18,3.18-3.18,3.18,1.43,3.18,3.18-1.43,3.18-3.18,3.18ZM26.05,23.75c-1.29,0-2.35,1.05-2.35,2.35s1.05,2.35,2.35,2.35,2.35-1.05,2.35-2.35-1.05-2.35-2.35-2.35Z"/>
  <g>
    <path class="cls-2" d="M25.13,23.91c-.23,0-.42-.19-.42-.42v-1.66h-8.38v1.66c0,.23-.19.42-.42.42s-.42-.19-.42-.42v-1.85c0-.36.29-.65.65-.65h8.76c.36,0,.65.29.65.65v1.85c0,.23-.19.42-.42.42Z"/>
    <path class="cls-1" d="M14.07,23.91c-.23,0-.42-.19-.42-.42v-1.66h-5.68c-.23,0-.42-.19-.42-.42s.19-.42.42-.42h5.86c.36,0,.65.29.65.65v1.85c0,.23-.19.42-.42.42ZM13.83,21.83h0,0Z"/>
    <path class="cls-5" d="M4.85,23.91c-.23,0-.42-.19-.42-.42v-1.85c0-.36.29-.65.65-.65h.95c.23,0,.42.19.42.42s-.19.42-.42.42h-.76v1.66c0,.23-.19.42-.42.42Z"/>
    <path class="cls-10" d="M3,23.91c-.23,0-.42-.19-.42-.42v-3c0-.74.6-1.34,1.34-1.34h9.72v-3.25c0-.23.19-.42.42-.42s.42.19.42.42v3.43c0,.36-.29.65-.65.65H3.92c-.28,0-.5.23-.5.5v3c0,.23-.19.42-.42.42Z"/>
    <path class="cls-11" d="M26.97,23.91c-.23,0-.42-.19-.42-.42v-3c0-.28-.23-.5-.5-.5h-9.91c-.36,0-.65-.29-.65-.65v-3.43c0-.23.19-.42.42-.42s.42.19.42.42v3.25h9.72c.74,0,1.34.6,1.34,1.34v3c0,.23-.19.42-.42.42Z"/>
  </g>
  <g>
    <path class="cls-12" d="M14.99,16.38c-4.3,0-7.79-3.5-7.79-7.79,0-1.73.55-3.37,1.6-4.73.14-.18.4-.22.59-.08.18.14.22.4.08.59-.94,1.22-1.43,2.68-1.43,4.23,0,3.84,3.12,6.96,6.96,6.96s6.96-3.12,6.96-6.96-3.12-6.96-6.96-6.96c-1.54,0-3,.49-4.23,1.43-.18.14-.44.11-.59-.08-.14-.18-.11-.44.08-.59,1.37-1.05,3.01-1.6,4.73-1.6,4.3,0,7.79,3.5,7.79,7.79s-3.5,7.79-7.79,7.79Z"/>
    <g>
      <path class="cls-13" d="M14.99,9c-1.76,0-3.18-1.43-3.18-3.18s1.43-3.18,3.18-3.18,3.18,1.43,3.18,3.18-1.43,3.18-3.18,3.18ZM14.99,3.47c-1.29,0-2.35,1.05-2.35,2.35s1.05,2.35,2.35,2.35,2.35-1.05,2.35-2.35-1.05-2.35-2.35-2.35Z"/>
      <path class="cls-14" d="M19.14,15.1c-.21,0-.39-.16-.41-.37l-.19-1.79c-.13-1.19-1.13-2.1-2.33-2.1h-2.41c-1.2,0-2.21.9-2.33,2.1l-.19,1.79c-.02.23-.23.4-.46.37-.23-.02-.39-.23-.37-.46l.19-1.79c.18-1.62,1.54-2.84,3.16-2.84h2.41c1.63,0,2.99,1.22,3.16,2.84l.19,1.79c.02.23-.14.44-.37.46-.02,0-.03,0-.05,0Z"/>
    </g>
  </g>
</svg>