<?xml version="1.0" encoding="UTF-8"?>
<svg id="Layer_1" data-name="Layer 1" xmlns="http://www.w3.org/2000/svg" xmlns:xlink="http://www.w3.org/1999/xlink" viewBox="0 0 30.81 30" width="50" height="28">
  <defs>
    <style>
      .cls-1 {
        fill: url(#linear-gradient);
      }
    </style>
    <linearGradient id="linear-gradient" x1=".45" y1="15" x2="30.14" y2="15" gradientUnits="userSpaceOnUse">
      <stop offset="0" stop-color="#39befd"/>
      <stop offset="1" stop-color="#0988f4"/>
    </linearGradient>
  </defs>
  <path class="cls-1" d="M29.83,12.61l-2.15-.83c-.3-1.15-.75-2.24-1.35-3.27l.93-2.1c.08-.18.04-.39-.1-.53l-2.75-2.75c-.14-.14-.35-.18-.53-.1l-2.1.93c-1.02-.6-2.12-1.06-3.27-1.35l-.83-2.15c-.07-.18-.25-.31-.45-.31h-3.89c-.2,0-.38.12-.45.31l-.83,2.15c-1.15.3-2.24.75-3.27,1.35l-2.1-.93c-.18-.08-.39-.04-.53.1l-2.75,2.75c-.14.14-.18.35-.1.53l.93,2.1c-.6,1.02-1.06,2.12-1.35,3.27l-2.15.83c-.18.07-.31.25-.31.45v3.89c0,.2.12.38.31.45l2.15.83c.04.16.09.33.14.49-1.36,1.12-2.23,2.82-2.23,4.72,0,3.38,2.75,6.12,6.12,6.12,1.92,0,3.63-.89,4.76-2.27.13.04.26.07.38.11l.83,2.15c.07.18.25.31.45.31h3.89c.2,0,.38-.12.45-.31l.83-2.15c1.15-.3,2.24-.75,3.27-1.35l2.1.93c.18.08.39.04.53-.1l2.75-2.75c.14-.14.18-.35.1-.53l-.93-2.1c.6-1.02,1.06-2.12,1.35-3.27l2.15-.83c.18-.07.31-.25.31-.45v-3.89c0-.2-.12-.38-.31-.45h0ZM6.94,28.6c-2.85,0-5.17-2.32-5.17-5.17s2.32-5.17,5.17-5.17,5.17,2.32,5.17,5.17c0,2.85-2.32,5.17-5.17,5.17ZM7.16,15c0-4.49,3.65-8.14,8.14-8.14s8.14,3.65,8.14,8.14-3.65,8.14-8.14,8.14c-.77,0-1.53-.11-2.26-.32-.1-1.01-.45-1.95-.98-2.76h8.66c.14,0,.27-.06.36-.16s.13-.24.12-.37c-.25-2.34-1.84-4.24-3.96-4.97.79-.59,1.3-1.53,1.3-2.59,0-1.78-1.45-3.23-3.23-3.23s-3.23,1.45-3.23,3.23c0,1.06.52,2.01,1.31,2.6-1.62.56-2.95,1.81-3.59,3.44-.69-.37-1.47-.6-2.29-.68-.22-.75-.34-1.54-.34-2.33h0ZM15.3,14.24c-1.25,0-2.27-1.02-2.27-2.27s1.02-2.27,2.27-2.27,2.27,1.02,2.27,2.27-1.02,2.27-2.27,2.27ZM20.15,19.1h-8.88c-.21-.21-.43-.4-.66-.57.69-1.98,2.57-3.33,4.69-3.33,2.36,0,4.36,1.64,4.85,3.9ZM29.18,16.62l-2.07.8c-.15.06-.26.18-.29.34-.29,1.22-.77,2.38-1.43,3.45-.08.13-.09.3-.03.45l.9,2.03-2.28,2.28-2.03-.9c-.14-.06-.31-.05-.45.03-1.07.66-2.23,1.14-3.45,1.43-.15.04-.28.15-.34.29l-.8,2.07h-3.23l-.8-2.07c-.06-.15-.18-.26-.34-.29-.09-.02-.19-.05-.28-.07.45-.79.72-1.68.78-2.63.73.19,1.48.28,2.25.28,5.02,0,9.1-4.08,9.1-9.1s-4.08-9.1-9.1-9.1S6.2,9.98,6.2,15c0,.79.1,1.57.3,2.32-.95.07-1.84.35-2.62.81-.03-.13-.07-.25-.1-.38-.04-.15-.15-.28-.29-.34l-2.07-.8v-3.23l2.07-.8c.15-.06.26-.18.29-.34.29-1.22.77-2.38,1.43-3.45.08-.13.09-.3.03-.45l-.9-2.03,2.28-2.28,2.03.9c.14.06.31.05.45-.03,1.07-.66,2.23-1.14,3.45-1.43.15-.04.28-.15.34-.29l.8-2.07h3.23l.8,2.07c.06.15.18.26.34.29,1.22.29,2.38.77,3.45,1.43.13.08.3.09.45.03l2.03-.9,2.28,2.28-.9,2.03c-.06.14-.05.31.03.45.66,1.07,1.14,2.23,1.43,3.45.04.15.15.28.29.34l2.07.8v3.23ZM11.14,21.96c-.09-.26-.32-.44-.59-.45l-2.21-.11-.78-2.07c-.1-.26-.34-.42-.61-.42s-.52.17-.61.42l-.78,2.07-2.21.11c-.27.01-.51.19-.59.45-.09.26,0,.54.21.72l1.72,1.39-.58,2.13c-.07.27.02.54.25.7.12.08.25.13.39.13.12,0,.25-.04.36-.11l1.85-1.21,1.85,1.21c.23.15.52.14.75-.02.22-.16.32-.44.25-.7l-.58-2.13,1.72-1.39c.21-.17.3-.45.21-.71ZM8.45,23.43c-.2.16-.29.43-.22.68l.42,1.56-1.35-.88c-.22-.14-.5-.14-.72,0l-1.35.88.42-1.56c.07-.25-.02-.52-.22-.68l-1.26-1.01,1.61-.08c.26-.01.49-.18.58-.42l.57-1.51.57,1.51c.09.24.32.41.58.42l1.61.08-1.26,1.01Z"/>
</svg>