<?xml version="1.0" encoding="UTF-8"?>
<svg id="Layer_1" data-name="Layer 1" xmlns="http://www.w3.org/2000/svg" xmlns:xlink="http://www.w3.org/1999/xlink" viewBox="0 0 37.06 30" width="50" height="28">
  <defs>
    <style>
      .cls-1 {
        fill: url(#linear-gradient-3);
      }

      .cls-2 {
        fill: url(#linear-gradient-2);
      }

      .cls-3 {
        fill: url(#linear-gradient);
      }
    </style>
    <linearGradient id="linear-gradient" x1="5.26" y1="20.4" x2="13.62" y2="10.35" gradientUnits="userSpaceOnUse">
      <stop offset="0" stop-color="#39befd"/>
      <stop offset="1" stop-color="#0988f4"/>
    </linearGradient>
    <linearGradient id="linear-gradient-2" x1="11.05" y1="25.22" x2="19.41" y2="15.16" xlink:href="#linear-gradient"/>
    <linearGradient id="linear-gradient-3" x1="18.22" y1="31.18" x2="26.58" y2="21.12" xlink:href="#linear-gradient"/>
  </defs>
  <path class="cls-3" d="M15.37,16.2c4.39,0,7.96-3.56,7.96-7.95S19.76.29,15.37.29c-4.39,0-7.96,3.56-7.96,7.95h0c0,4.39,3.56,7.95,7.95,7.96ZM15.37,1.57c3.69,0,6.68,2.99,6.68,6.68,0,3.69-2.99,6.68-6.68,6.68-3.69,0-6.68-2.99-6.68-6.68h0c0-3.69,2.99-6.67,6.68-6.68h0Z"/>
  <path class="cls-2" d="M20.34,28.43H3.08c-.62,0-1.12-.5-1.12-1.12v-3.18c0-2.37,1.52-4.48,3.76-5.22l4.49-1.5c3.2,1.81,7.11,1.81,10.3,0l3.74,1.25c.34.11.7-.07.81-.4.11-.33-.07-.7-.4-.81l-4.02-1.34c-.18-.06-.37-.04-.54.06-2.92,1.76-6.57,1.76-9.49,0-.16-.1-.36-.12-.54-.06l-4.76,1.59c-2.77.92-4.64,3.52-4.64,6.44v3.18c0,1.32,1.07,2.4,2.4,2.4h17.26c.35,0,.64-.29.64-.64s-.29-.64-.64-.64Z"/>
  <path class="cls-1" d="M36.47,9.44c-.05-.33-.25-.62-.54-.8l-1.85-1.07c-.6-.31-1.34-.08-1.66.52l-9.44,16.35c-.43.74-.67,1.57-.68,2.42l-.04,2.19c0,.36.29.65.64.65.11,0,.23-.03.33-.09,1.23-.76,2.95-1.55,3.63-2.93l9.44-16.35c.16-.27.22-.59.17-.9ZM25.75,26.05c-.54.82-1.3,1.47-2.19,1.88l.02-1.03c.02-.63.19-1.26.51-1.8l7.81-13.51,1.65.96-7.8,13.51ZM34.19,11.43l-1.65-.96,1-1.73,1.65.95-1,1.73Z"/>
</svg>