<svg id="Layer_1" data-name="Layer 1" xmlns="http://www.w3.org/2000/svg" viewBox="0 0 219.27 45.59"><defs><style>.cls-1{fill:#282828;}.cls-2{fill:#c12026;}</style></defs><path class="cls-1" d="M78.74,26.24a5.35,5.35,0,0,1-1.88,4.4,8.31,8.31,0,0,1-5.36,1.53H69.6V39h-3V20.69h5.28A8,8,0,0,1,77,22.1,5.06,5.06,0,0,1,78.74,26.24ZM69.6,29.65h1.59a5.68,5.68,0,0,0,3.39-.8,3,3,0,0,0,1.07-2.51,2.87,2.87,0,0,0-1-2.36,4.76,4.76,0,0,0-3-.77H69.6Z" transform="translate(-0.36 -7.07)"/><path class="cls-1" d="M81.89,39V20.69h3V39Z" transform="translate(-0.36 -7.07)"/><path class="cls-1" d="M99.59,39H89.22V20.69H99.59v2.54H92.22v5h6.91v2.51H92.22v5.76h7.37Z" transform="translate(-0.36 -7.07)"/><path class="cls-1" d="M112.2,31.71V39h-3V20.69h5.19A8.46,8.46,0,0,1,119.64,22a4.75,4.75,0,0,1,1.71,4q0,3.42-3.56,4.88L123,39h-3.41l-4.4-7.33Zm0-2.48h2.09a4.74,4.74,0,0,0,3-.78,2.82,2.82,0,0,0,.94-2.31,2.49,2.49,0,0,0-1-2.23,5.51,5.51,0,0,0-3.06-.68h-2Z" transform="translate(-0.36 -7.07)"/><path class="cls-1" d="M135.49,39H125.11V20.69h10.38v2.54h-7.38v5H135v2.51h-6.91v5.76h7.38Z" transform="translate(-0.36 -7.07)"/><path class="cls-1" d="M146.44,29.09h6.75V38.3a19.21,19.21,0,0,1-3.18.76,22.55,22.55,0,0,1-3.29.23,8.27,8.27,0,0,1-6.43-2.47Q138,34.36,138,29.87a9.31,9.31,0,0,1,2.54-6.94,9.62,9.62,0,0,1,7-2.5A13.57,13.57,0,0,1,153,21.54L152,24a10.7,10.7,0,0,0-4.47-1,6,6,0,0,0-4.64,1.85,7.12,7.12,0,0,0-1.71,5A7.49,7.49,0,0,0,142.71,35a5.55,5.55,0,0,0,4.42,1.75,14.64,14.64,0,0,0,3.11-.36V31.66h-3.8Z" transform="translate(-0.36 -7.07)"/><path class="cls-1" d="M157.08,39V20.69h3V39Z" transform="translate(-0.36 -7.07)"/><path class="cls-1" d="M175,34.06a4.65,4.65,0,0,1-1.77,3.84,7.76,7.76,0,0,1-4.88,1.39,11.56,11.56,0,0,1-5.1-1V35.49a14.52,14.52,0,0,0,2.67.93,11.6,11.6,0,0,0,2.63.33,4.17,4.17,0,0,0,2.62-.67,2.2,2.2,0,0,0,.85-1.82,2.29,2.29,0,0,0-.78-1.75A11.9,11.9,0,0,0,168,30.82a8.58,8.58,0,0,1-3.54-2.32,5,5,0,0,1-1-3.14,4.39,4.39,0,0,1,1.64-3.61,6.72,6.72,0,0,1,4.37-1.32,12.88,12.88,0,0,1,5.25,1.16l-1,2.44a11.63,11.63,0,0,0-4.37-1,3.31,3.31,0,0,0-2.21.64,2.08,2.08,0,0,0-.75,1.67,2.32,2.32,0,0,0,.3,1.22,3.16,3.16,0,0,0,1,1,17.88,17.88,0,0,0,2.48,1.19,13.1,13.1,0,0,1,3,1.57,4.64,4.64,0,0,1,1.39,1.64A5,5,0,0,1,175,34.06Z" transform="translate(-0.36 -7.07)"/><path class="cls-1" d="M184.36,39h-3V23.27H176V20.69h13.79v2.58h-5.39Z" transform="translate(-0.36 -7.07)"/><path class="cls-1" d="M202.42,39H192.05V20.69h10.37v2.54h-7.37v5H202v2.51h-6.91v5.76h7.37Z" transform="translate(-0.36 -7.07)"/><path class="cls-1" d="M208.87,31.71V39h-3V20.69h5.18A8.5,8.5,0,0,1,216.31,22,4.75,4.75,0,0,1,218,26q0,3.42-3.56,4.88L219.64,39h-3.42l-4.39-7.33Zm0-2.48H211a4.76,4.76,0,0,0,3-.78,2.82,2.82,0,0,0,.94-2.31,2.49,2.49,0,0,0-1-2.23,5.52,5.52,0,0,0-3.07-.68h-2Z" transform="translate(-0.36 -7.07)"/><path class="cls-2" d="M8.8,7.09q18.51,0,37,0c0,5.72.1,11.44-.06,17.16-1.09,1.28-2.7,2-4.1,2.89,0-5.32.11-10.64-.06-15.95-10.93.06-21.87,0-32.8,0Z" transform="translate(-0.36 -7.07)"/><path class="cls-2" d="M53.05,23.84a20.15,20.15,0,0,1,2.18-1.21C44.33,32.5,33.15,42.09,22.08,51.79c-3.18-5.1-6.3-10.24-9.3-15.44C16,38.57,19,41.16,22.07,43.54,32.42,37,42.73,30.4,53.05,23.84Z" transform="translate(-0.36 -7.07)"/><path class="cls-2" d="M41.7,38.72q2-1.69,4.1-3.35c.05,5.76,0,11.52,0,17.28H41.71C41.65,48,41.67,43.36,41.7,38.72Z" transform="translate(-0.36 -7.07)"/><path class="cls-2" d="M.42,15.62c12.33,0,24.66,0,37,0l0,4c-11,0-21.93-.11-32.89.06.06,11,0,21.94,0,32.92H.4C.37,40.31.33,28,.42,15.62Z" transform="translate(-0.36 -7.07)"/><path class="cls-2" d="M8.8,24.22c9.54,0,19.08-.07,28.61,0q0,2,0,4.05c-9.53.1-19.07,0-28.61,0Z" transform="translate(-0.36 -7.07)"/></svg>