<svg width="24" height="24" viewBox="0 0 24 24" fill="none" xmlns="http://www.w3.org/2000/svg">
<rect width="24" height="24" rx="6" fill="#F0F6FC" fill-opacity="0.6"/>
<path d="M13.7489 4.01531C15.9002 4.22094 17.7217 5.12031 19.2136 6.71344C19.2761 6.78031 19.3377 6.85938 19.3983 6.95063C19.4639 7.05 19.5217 7.13313 19.5717 7.2C19.8248 7.80625 19.8364 8.37438 19.6064 8.90438C19.0561 10.1363 17.647 10.4662 16.5305 9.74344C13.4752 6.03844 7.61016 9.1125 9.3361 13.6847C9.31172 14.1619 9.57797 14.5519 9.85172 15.045C9.88172 15.0994 9.97672 15.2078 10.1367 15.3703C10.6386 15.8803 11.1764 16.2384 11.7502 16.4447C11.9198 16.5056 12.1786 16.5394 12.413 16.6097C12.8105 16.7278 13.3086 16.7334 13.9074 16.6266C13.9349 16.6216 13.9577 16.6084 13.9758 16.5872C13.9895 16.5722 14.0042 16.5631 14.0198 16.56C15.0267 16.3644 15.8474 15.8753 16.4817 15.0928C16.5267 15.0366 16.5905 14.9178 16.673 14.7366C16.7592 14.5472 16.9005 14.3909 17.0967 14.2678C18.233 14.0103 19.0639 14.3856 19.5895 15.3937C19.797 15.9269 19.7964 16.4497 19.5877 16.9622C19.5039 17.1622 19.378 17.3531 19.2098 17.535C17.3492 19.5531 15.0361 20.4531 12.2705 20.235C9.19454 19.8834 6.66985 17.9109 5.52516 15.0375C5.07454 13.8212 4.91391 12.5463 5.04329 11.2125C5.26329 9.48688 5.95391 7.97 7.11516 6.66188C7.74391 5.98375 8.46141 5.42313 9.26766 4.98C10.642 4.245 12.1358 3.92344 13.7489 4.01531Z" fill="#1D2327"/>
</svg>
