<svg version="1.2" xmlns="http://www.w3.org/2000/svg" xmlns:xlink="http://www.w3.org/1999/xlink" overflow="visible" preserveAspectRatio="none" viewBox="0 0 24 24" width="24" height="24"><g><path xmlns:default="http://www.w3.org/2000/svg" id="percent" d="M16.94,16.94c-0.52,0.5-1.35,0.49-1.85-0.03c-0.5-0.52-0.49-1.35,0.03-1.85c0.52-0.5,1.35-0.49,1.85,0.03  c0.24,0.24,0.37,0.57,0.37,0.91C17.34,16.36,17.2,16.7,16.94,16.94z M8.94,8.94C8.44,9.48,7.6,9.5,7.06,9S6.5,7.65,7,7.12  C7.02,7.1,7.04,7.08,7.06,7.06C7.56,6.52,8.41,6.5,8.94,7S9.5,8.35,9,8.88C8.98,8.9,8.96,8.92,8.94,8.94z M20,16c0-2.21-1.79-4-4-4  s-4,1.79-4,4s1.79,4,4,4S20,18.21,20,16L20,16z M18.8,4.2C18.68,4.07,18.51,4,18.33,4h-1.67c-0.21-0.01-0.41,0.1-0.53,0.27  l-11,14.66c-0.09,0.11-0.14,0.25-0.14,0.4C5,19.7,5.29,19.99,5.66,20h1.68c0.21,0.01,0.41-0.1,0.53-0.27l11-14.66  C18.96,4.95,19,4.81,19,4.67C19,4.49,18.93,4.32,18.8,4.2z M10.8,5.2C10.07,4.43,9.06,4,8,4C6.94,3.99,5.92,4.41,5.18,5.18  C4.41,5.92,3.99,6.94,4,8c-0.02,1.06,0.41,2.09,1.17,2.83C5.91,11.59,6.94,12.02,8,12c1.06,0.02,2.09-0.41,2.83-1.17  C11.59,10.09,12.02,9.06,12,8c0.02-1.06-0.41-2.08-1.17-2.82L10.8,5.2z" style="fill: rgb(179, 179, 179);" vector-effect="non-scaling-stroke"/></g></svg>