<svg id="Layer_1" data-name="Layer 1" xmlns="http://www.w3.org/2000/svg" viewBox="0 0 28 19.71"><defs><style>.cls-1{fill:#213b50;}.cls-2{fill:none;}</style></defs><path class="cls-1" d="M23.39,13.65V5.43H2V4.16q11.33,0,22.67,0c0,2.82,0,5.64,0,8.47C24.63,13.31,23.39,13.65,23.39,13.65Z" transform="translate(0 -4.15)"/><line class="cls-2" x1="3.04" y1="1.28" x2="3.03" y2="1.28"/><path class="cls-1" d="M26.91,12.26c.35-.22.72-.42,1.09-.61L11.66,23.77,6.79,18.51c1.61,1.11,3.08,2.41,4.64,3.59C16.6,18.84,21.75,15.54,26.91,12.26Z" transform="translate(0 -4.15)"/><path class="cls-1" d="M24.63,23.85H23.39V16.23l1.23-.78C24.65,18.25,24.63,21.05,24.63,23.85Z" transform="translate(0 -4.15)"/><path class="cls-1" d="M22.69,6.88c0,.35,0,.7,0,1H1.29V23.85H0c0-5.66,0-11.32,0-17Z" transform="translate(0 -4.15)"/><path class="cls-1" d="M20.48,9.52c0,.35,0,.7,0,1.06H3V9.5C8.8,9.5,14.64,9.46,20.48,9.52Z" transform="translate(0 -4.15)"/></svg>