<svg class="icon-20" width="21" height="21" viewBox="0 0 21 21" fill="none" xmlns="http://www.w3.org/2000/svg">
                                        <path d="M3.22009 7.95407H18.0734" stroke="currentColor" stroke-width="1.5" stroke-linecap="round" stroke-linejoin="round"/>
                                        <path d="M14.0126 1.78384V4.52616" stroke="currentColor" stroke-width="1.5" stroke-linecap="round" stroke-linejoin="round"/>
                                        <path d="M7.28078 1.78384V4.52616" stroke="currentColor" stroke-width="1.5" stroke-linecap="round" stroke-linejoin="round"/>
                                        <path fill-rule="evenodd" clip-rule="evenodd" d="M14.1748 3.09985H7.11869C4.67144 3.09985 3.14288 4.46313 3.14288 6.96904V14.5104C3.14288 17.0557 4.67144 18.4505 7.11869 18.4505H14.1671C16.622 18.4505 18.1429 17.0794 18.1429 14.5735V6.96904C18.1506 4.46313 16.6297 3.09985 14.1748 3.09985Z" stroke="currentColor" stroke-width="1.5" stroke-linecap="round" stroke-linejoin="round"/>
                                        <path d="M13.1633 10.7408L10.0176 13.4371L8.84621 12.2662C8.75203 12.1753 8.6259 12.1249 8.49498 12.1261C8.36406 12.1272 8.23883 12.1797 8.14625 12.2723C8.05367 12.3649 8.00116 12.4901 8.00002 12.621C7.99888 12.7519 8.04921 12.8781 8.14017 12.9722L9.63813 14.4702C9.72707 14.559 9.84623 14.611 9.97183 14.6158C10.0974 14.6207 10.2202 14.5779 10.3157 14.4962L13.811 11.5003C13.8636 11.4585 13.9072 11.4066 13.9393 11.3476C13.9714 11.2886 13.9913 11.2238 13.9977 11.1569C14.0041 11.0901 13.997 11.0226 13.9768 10.9586C13.9566 10.8945 13.9236 10.8352 13.8799 10.7842C13.8363 10.7332 13.7827 10.6916 13.7226 10.6617C13.6624 10.6319 13.5968 10.6145 13.5298 10.6106C13.4628 10.6066 13.3956 10.6163 13.3324 10.6389C13.2692 10.6616 13.2112 10.6967 13.1618 10.7423L13.1633 10.7408Z" fill="currentColor"/>
                                    </svg>