<svg class="icon-20" width="19" height="18" viewBox="0 0 19 18" fill="none" xmlns="http://www.w3.org/2000/svg">
    <path fill-rule="evenodd" clip-rule="evenodd" d="M3.17969 4.875C3.17969 2.90609 3.20077 2.25 5.80469 2.25C8.40861 2.25 8.42969 2.90609 8.42969 4.875C8.42969 6.84391 8.43799 7.5 5.80469 7.5C3.17138 7.5 3.17969 6.84391 3.17969 4.875Z" stroke="currentColor" stroke-width="1.5" stroke-linecap="round" stroke-linejoin="round"></path>
    <path fill-rule="evenodd" clip-rule="evenodd" d="M11.4297 4.875C11.4297 2.90609 11.4508 2.25 14.0547 2.25C16.6586 2.25 16.6797 2.90609 16.6797 4.875C16.6797 6.84391 16.688 7.5 14.0547 7.5C11.4214 7.5 11.4297 6.84391 11.4297 4.875Z" stroke="currentColor" stroke-width="1.5" stroke-linecap="round" stroke-linejoin="round"></path>
    <path fill-rule="evenodd" clip-rule="evenodd" d="M3.17969 13.125C3.17969 11.1561 3.20077 10.5 5.80469 10.5C8.40861 10.5 8.42969 11.1561 8.42969 13.125C8.42969 15.0939 8.43799 15.75 5.80469 15.75C3.17138 15.75 3.17969 15.0939 3.17969 13.125Z" stroke="currentColor" stroke-width="1.5" stroke-linecap="round" stroke-linejoin="round"></path>
    <path fill-rule="evenodd" clip-rule="evenodd" d="M11.4297 13.125C11.4297 11.1561 11.4508 10.5 14.0547 10.5C16.6586 10.5 16.6797 11.1561 16.6797 13.125C16.6797 15.0939 16.688 15.75 14.0547 15.75C11.4214 15.75 11.4297 15.0939 11.4297 13.125Z" stroke="currentColor" stroke-width="1.5" stroke-linecap="round" stroke-linejoin="round"></path>
</svg>