 <svg class="icon-20" width="21" height="21" viewBox="0 0 21 21" fill="none" xmlns="http://www.w3.org/2000/svg">
                                        <path d="M4.63866 5.99719C4.63866 4.95636 5.482 4.11302 6.52283 4.11219H7.38033C7.87783 4.11219 8.3545 3.91469 8.70783 3.56469L9.307 2.96469C10.0412 2.22636 11.2345 2.22302 11.9728 2.95719L11.9737 2.95802L11.9812 2.96469L12.5812 3.56469C12.9345 3.91552 13.4112 4.11219 13.9087 4.11219H14.7653C15.8062 4.11219 16.6503 4.95552 16.6503 5.99719V6.85302C16.6503 7.35052 16.847 7.82802 17.1978 8.18136L17.7978 8.78136C18.5362 9.51552 18.5403 10.7089 17.8062 11.4472L17.8053 11.448L17.7978 11.4555L17.1978 12.0555C16.847 12.408 16.6503 12.8847 16.6503 13.3822V14.2397C16.6503 15.2805 15.807 16.1239 14.7662 16.1239H14.7653H13.907C13.4095 16.1239 12.932 16.3214 12.5795 16.6722L11.9795 17.2714C11.2462 18.0097 10.0537 18.0139 9.31533 17.2814C9.3145 17.2805 9.31366 17.2797 9.31283 17.2789L9.30533 17.2714L8.70616 16.6722C8.35366 16.3214 7.87616 16.1247 7.37866 16.1239H6.52283C5.482 16.1239 4.63866 15.2805 4.63866 14.2397V13.3805C4.63866 12.883 4.44116 12.4064 4.09033 12.0539L3.49116 11.4539C2.75283 10.7205 2.74866 9.52802 3.482 8.78969C3.482 8.78886 3.48283 8.78802 3.48366 8.78719L3.49116 8.77969L4.09033 8.17969C4.44116 7.82636 4.63866 7.34969 4.63866 6.85136V5.99719" stroke="#0C112E" stroke-width="1.5" stroke-linecap="round" stroke-linejoin="round"/>
                                        <path d="M8.50256 12.2603L12.7859 7.97694" stroke="#0C112E" stroke-width="1.5" stroke-linecap="round" stroke-linejoin="round"/>
                                        <path d="M12.7225 12.2005H12.73" stroke="#0C112E" stroke-width="2" stroke-linecap="round" stroke-linejoin="round"/>
                                        <path d="M8.5558 8.03385H8.5633" stroke="#0C112E" stroke-width="2" stroke-linecap="round" stroke-linejoin="round"/>
                                    </svg>