<svg width="21" class="icon-20" height="21" viewBox="0 0 21 21" fill="none" xmlns="http://www.w3.org/2000/svg">
<path d="M10.0538 19.0727C9.70331 19.0917 9.34041 19.0977 8.97094 19.0977C6.96609 19.0977 4.96584 18.9073 3.02334 18.5307C2.71622 18.4722 2.49375 18.1979 2.49375 17.877V17.0698C2.49375 14.2801 4.76306 12.0108 7.55344 12.0108H10.3884C11.8637 12.0108 13.2628 12.6513 14.2268 13.7676C14.4401 14.0137 14.8129 14.0419 15.0603 13.8293C15.307 13.616 15.3339 13.2426 15.1213 12.9958C14.3115 12.0567 13.249 11.3998 12.0803 11.0711C13.606 10.0598 14.6153 8.32859 14.6153 6.36575C14.6153 3.25447 12.0842 0.722656 8.97225 0.722656C5.86031 0.722656 3.32916 3.25381 3.32916 6.36509C3.32916 8.32662 4.3365 10.0565 5.86031 11.0684C3.24056 11.8087 1.3125 14.2158 1.3125 17.0698V17.877C1.3125 18.7656 1.93987 19.5282 2.80153 19.6909C4.81491 20.0814 6.89062 20.2789 8.97094 20.2789C9.36272 20.2789 9.74794 20.2717 10.1187 20.2513C10.4449 20.2336 10.6936 19.9554 10.6759 19.6292C10.6575 19.3037 10.3694 19.0491 10.0538 19.0727ZM4.50975 6.36509C4.50975 3.90481 6.51131 1.90391 8.97159 1.90391C11.4319 1.90391 13.4334 3.90481 13.4334 6.36509C13.4334 8.82537 11.4319 10.8269 8.97159 10.8269C6.51131 10.8269 4.50975 8.82537 4.50975 6.36509Z" fill="currentColor"/>
<path d="M18.8424 17.1381C18.8424 17.1375 18.8418 17.1375 18.8411 17.1368C18.2879 16.516 16.8015 15.0723 14.9509 15.0723C13.1016 15.0723 11.6145 16.516 11.0593 17.1381C10.787 17.4459 10.7876 17.9079 11.0606 18.2137C11.6145 18.8345 13.1022 20.279 14.9509 20.279C16.8008 20.279 18.2879 18.8345 18.8411 18.2144C19.1141 17.9079 19.1148 17.4459 18.8424 17.1381ZM14.9509 19.0977C13.767 19.0977 12.696 18.1967 12.1763 17.6756C12.696 17.1552 13.7663 16.2542 14.9509 16.2542C16.1361 16.2542 17.2064 17.1552 17.7255 17.6756C17.2064 18.1967 16.1361 19.0977 14.9509 19.0977Z" fill="currentColor"/>
<path d="M14.9507 18.2646C15.2772 18.2646 15.5419 17.9999 15.5419 17.6733C15.5419 17.3468 15.2772 17.082 14.9507 17.082C14.6241 17.082 14.3594 17.3468 14.3594 17.6733C14.3594 17.9999 14.6241 18.2646 14.9507 18.2646Z" fill="currentColor"/>
<defs>
<clipPath id="clip0_1121_3780">
<rect width="18.375" height="19.6875" fill="white" transform="translate(1.3125 0.65625)"/>
</clipPath>
</defs>
</svg>
