<svg class="icon-20" width="21" height="21" viewBox="0 0 21 21" fill="none" xmlns="http://www.w3.org/2000/svg">
                                        <path d="M12.2841 8.40874C12.4196 8.80018 12.8467 9.0077 13.2381 8.87225C13.6296 8.73679 13.8371 8.30966 13.7016 7.91822L12.2841 8.40874ZM11.6429 7.14496L11.6758 6.39569C11.6649 6.3952 11.6539 6.39496 11.6429 6.39496V7.14496ZM9.64288 10.2005V10.9505V10.2005ZM11.6429 13.2561V14.0061V13.2561ZM9.64288 13.2561L9.60993 14.0053C9.62091 14.0058 9.63189 14.0061 9.64288 14.0061V13.2561ZM9.00165 11.9923C8.8662 11.6009 8.43906 11.3933 8.04762 11.5288C7.65618 11.6642 7.44866 12.0914 7.58412 12.4828L9.00165 11.9923ZM11.3929 5.61719C11.3929 5.20297 11.0571 4.86719 10.6429 4.86719C10.2287 4.86719 9.89288 5.20297 9.89288 5.61719H11.3929ZM9.89288 7.14496C9.89288 7.55918 10.2287 7.89496 10.6429 7.89496C11.0571 7.89496 11.3929 7.55918 11.3929 7.14496H9.89288ZM11.3929 13.2561C11.3929 12.8419 11.0571 12.5061 10.6429 12.5061C10.2287 12.5061 9.89288 12.8419 9.89288 13.2561H11.3929ZM9.89288 14.7839C9.89288 15.1981 10.2287 15.5339 10.6429 15.5339C11.0571 15.5339 11.3929 15.1981 11.3929 14.7839H9.89288ZM13.7016 7.91822C13.5539 7.49136 13.2834 7.11708 12.9227 6.84495L12.0193 8.04238C12.1398 8.13327 12.2328 8.26038 12.2841 8.40874L13.7016 7.91822ZM12.9227 6.84495C12.5618 6.57268 12.1276 6.41556 11.6758 6.39569L11.6099 7.89424C11.7564 7.90068 11.899 7.95162 12.0193 8.04238L12.9227 6.84495ZM11.6429 6.39496H9.64288V7.89496H11.6429V6.39496ZM9.64288 6.39496C9.04166 6.39496 8.4679 6.63835 8.04705 7.067L9.11739 8.11788C9.25915 7.9735 9.44846 7.89496 9.64288 7.89496V6.39496ZM8.04705 7.067C7.62665 7.49518 7.39288 8.07303 7.39288 8.67274H8.89288C8.89288 8.46207 8.97518 8.26273 9.11739 8.11788L8.04705 7.067ZM7.39288 8.67274C7.39288 9.27245 7.62665 9.85031 8.04705 10.2785L9.11739 9.2276C8.97518 9.08275 8.89288 8.88342 8.89288 8.67274H7.39288ZM8.04705 10.2785C8.4679 10.7071 9.04166 10.9505 9.64288 10.9505V9.45052C9.44846 9.45052 9.25915 9.37198 9.11739 9.2276L8.04705 10.2785ZM9.64288 10.9505H11.6429V9.45052H9.64288V10.9505ZM11.6429 10.9505C11.8373 10.9505 12.0266 11.0291 12.1684 11.1734L13.2387 10.1226C12.8179 9.6939 12.2441 9.45052 11.6429 9.45052V10.9505ZM12.1684 11.1734C12.3106 11.3183 12.3929 11.5176 12.3929 11.7283H13.8929C13.8929 11.1286 13.6591 10.5507 13.2387 10.1226L12.1684 11.1734ZM12.3929 11.7283C12.3929 11.939 12.3106 12.1383 12.1684 12.2832L13.2387 13.334C13.6591 12.9059 13.8929 12.328 13.8929 11.7283H12.3929ZM12.1684 12.2832C12.0266 12.4275 11.8373 12.5061 11.6429 12.5061V14.0061C12.2441 14.0061 12.8179 13.7627 13.2387 13.334L12.1684 12.2832ZM11.6429 12.5061H9.64288V14.0061H11.6429V12.5061ZM9.67583 12.5068C9.52937 12.5004 9.38676 12.4494 9.26645 12.3587L8.36304 13.5561C8.72392 13.8284 9.15814 13.9855 9.60993 14.0053L9.67583 12.5068ZM9.26645 12.3587C9.14598 12.2678 9.05299 12.1407 9.00165 11.9923L7.58412 12.4828C7.73183 12.9097 8.00233 13.284 8.36304 13.5561L9.26645 12.3587ZM9.89288 5.61719V7.14496H11.3929V5.61719H9.89288ZM9.89288 13.2561V14.7839H11.3929V13.2561H9.89288ZM17.8929 10.1172C17.8929 14.1212 14.6469 17.3672 10.6429 17.3672V18.8672C15.4754 18.8672 19.3929 14.9497 19.3929 10.1172H17.8929ZM10.6429 17.3672C6.63882 17.3672 3.39288 14.1212 3.39288 10.1172H1.89288C1.89288 14.9497 5.81039 18.8672 10.6429 18.8672V17.3672ZM3.39288 10.1172C3.39288 6.11312 6.63882 2.86719 10.6429 2.86719V1.36719C5.81039 1.36719 1.89288 5.28469 1.89288 10.1172H3.39288ZM10.6429 2.86719C14.6469 2.86719 17.8929 6.11312 17.8929 10.1172H19.3929C19.3929 5.28469 15.4754 1.36719 10.6429 1.36719V2.86719Z" fill="currentColor"/>
                                    </svg>