<svg class="icon" width="19" height="16" viewBox="0 0 19 16" fill="none" xmlns="http://www.w3.org/2000/svg">
                                        <path d="M14.5493 7.19778C15.7118 7.03445 16.6068 6.03778 16.6093 4.83028C16.6093 3.64028 15.7418 2.65362 14.6043 2.46695" stroke="#0C112E" stroke-width="1.5" stroke-linecap="round" stroke-linejoin="round"/>
                                        <path d="M16.0833 9.99246C17.2091 10.1608 17.995 10.555 17.995 11.3675C17.995 11.9266 17.625 12.29 17.0266 12.5183" stroke="#0C112E" stroke-width="1.5" stroke-linecap="round" stroke-linejoin="round"/>
                                        <path fill-rule="evenodd" clip-rule="evenodd" d="M9.54848 10.337C6.87014 10.337 4.58264 10.7429 4.58264 12.3637C4.58264 13.9837 6.85598 14.4012 9.54848 14.4012C12.2268 14.4012 14.5135 13.9995 14.5135 12.3779C14.5135 10.7562 12.241 10.337 9.54848 10.337Z" stroke="#0C112E" stroke-width="1.5" stroke-linecap="round" stroke-linejoin="round"/>
                                        <path fill-rule="evenodd" clip-rule="evenodd" d="M9.54849 8.02378C11.306 8.02378 12.731 6.59962 12.731 4.84128C12.731 3.08378 11.306 1.65878 9.54849 1.65878C7.79099 1.65878 6.36599 3.08378 6.36599 4.84128C6.35932 6.59295 7.77349 8.01795 9.52516 8.02378H9.54849Z" stroke="#0C112E" stroke-width="1.5" stroke-linecap="round" stroke-linejoin="round"/>
                                        <path d="M4.54688 7.19778C3.38354 7.03445 2.48938 6.03778 2.48688 4.83028C2.48688 3.64028 3.35438 2.65362 4.49188 2.46695" stroke="#0C112E" stroke-width="1.5" stroke-linecap="round" stroke-linejoin="round"/>
                                        <path d="M3.0128 9.99246C1.88697 10.1608 1.10114 10.555 1.10114 11.3675C1.10114 11.9266 1.47114 12.29 2.06947 12.5183" stroke="#0C112E" stroke-width="1.5" stroke-linecap="round" stroke-linejoin="round"/>
                                    </svg>