<svg xmlns="http://www.w3.org/2000/svg" xmlns:xlink="http://www.w3.org/1999/xlink" viewBox="0,0,256,256" width="24px" height="24px"><g fill="#ffffff" fill-rule="nonzero" stroke="none" stroke-width="1" stroke-linecap="butt" stroke-linejoin="miter" stroke-miterlimit="10" stroke-dasharray="" stroke-dashoffset="0" font-family="none" font-weight="none" font-size="none" text-anchor="none" style="mix-blend-mode: normal"><g transform="scale(5.33333,5.33333)"><path d="M25.9707,1.98633c-0.38956,0.01135 -0.75941,0.17386 -1.03125,0.45313l-3.87109,3.87109c-0.10663,0.08132 -0.20188,0.17657 -0.2832,0.2832l-0.3457,0.3457c-0.58555,0.58579 -0.58555,1.5353 0,2.12109l4.5,4.5c0.37623,0.39185 0.9349,0.54969 1.46055,0.41265c0.52565,-0.13704 0.93616,-0.54754 1.07319,-1.07319c0.13704,-0.52565 -0.0208,-1.08432 -0.41265,-1.46055l-2.40625,-2.40625c7.9949,0.34338 14.3457,6.88527 14.3457,14.9668c0,2.58135 -0.64979,4.99451 -1.79492,7.10938c-0.25552,0.47137 -0.24012,1.04325 0.0404,1.50018c0.28052,0.45693 0.78352,0.72947 1.31949,0.71493c0.53597,-0.01454 1.02346,-0.31395 1.27878,-0.78542c1.37486,-2.53913 2.15625,-5.45242 2.15625,-8.53906c0,-9.40291 -7.25404,-17.13506 -16.45703,-17.92187l1.51758,-1.51758c0.4429,-0.43135 0.57582,-1.09023 0.33479,-1.65955c-0.24103,-0.56932 -0.80665,-0.93247 -1.42463,-0.91467zM14.57813,9.01172c-0.33759,-0.0139 -0.66999,0.08658 -0.94336,0.28516c-1.77214,1.25085 -3.308,2.81364 -4.5293,4.60742c-0.30957,0.44299 -0.35694,1.01825 -0.124,1.5059c0.23294,0.48766 0.71018,0.81233 1.2493,0.84992c0.53913,0.03759 1.0568,-0.21771 1.35516,-0.66833c1.0187,-1.49622 2.30143,-2.8006 3.7793,-3.84375c0.53308,-0.36535 0.77226,-1.03104 0.59361,-1.65212c-0.17865,-0.62108 -0.73498,-1.05794 -1.38071,-1.08421zM8.40625,17.1582c-0.65708,-0.00918 -1.24364,0.41036 -1.44727,1.03516c-0.62237,1.82234 -0.95898,3.77778 -0.95898,5.80664c0,9.40291 7.25404,17.13506 16.45703,17.92188l-1.51758,1.51758c-0.39185,0.37623 -0.54969,0.9349 -0.41265,1.46055c0.13704,0.52565 0.54754,0.93616 1.07319,1.07319c0.52565,0.13704 1.08432,-0.0208 1.46055,-0.41265l3.87109,-3.87109c0.10663,-0.08132 0.20188,-0.17657 0.2832,-0.2832l0.3457,-0.3457c0.58555,-0.58579 0.58555,-1.5353 0,-2.12109l-4.5,-4.5c-0.28248,-0.2909 -0.67069,-0.45506 -1.07617,-0.45508c-0.61065,0.00015 -1.16026,0.37042 -1.38978,0.93629c-0.22952,0.56587 -0.09314,1.21439 0.34486,1.63988l2.40625,2.40625c-7.9949,-0.34338 -14.3457,-6.88527 -14.3457,-14.9668c0,-1.69714 0.2812,-3.32028 0.79883,-4.83594c0.16341,-0.45622 0.09636,-0.96329 -0.18001,-1.36136c-0.27637,-0.39808 -0.72801,-0.63813 -1.21257,-0.6445zM36.09766,33.77539c-0.05208,-0.00206 -0.10424,-0.00141 -0.15625,0.00195c-0.38856,0.02357 -0.75275,0.19726 -1.01562,0.48438c-0.69459,0.73737 -1.46262,1.40554 -2.29102,1.99023c-0.43793,0.30909 -0.67769,0.82835 -0.62893,1.36215c0.04876,0.5338 0.37861,1.00104 0.8653,1.22567c0.48668,0.22464 1.05624,0.17254 1.4941,-0.13666c0.9936,-0.7013 1.91273,-1.50018 2.74414,-2.38281c0.41246,-0.42394 0.53732,-1.05066 0.31881,-1.6003c-0.21851,-0.54964 -0.73958,-0.91958 -1.33053,-0.94462z"></path></g></g></svg>