<svg width="21" height="21" viewBox="0 0 21 21" fill="none" xmlns="http://www.w3.org/2000/svg">
<path d="M4.63854 5.99714C4.63854 4.9563 5.48187 4.11297 6.52271 4.11214H7.38021C7.87771 4.11214 8.35437 3.91464 8.70771 3.56464L9.30687 2.96464C10.041 2.2263 11.2344 2.22297 11.9727 2.95714L11.9735 2.95797L11.981 2.96464L12.581 3.56464C12.9344 3.91547 13.411 4.11214 13.9085 4.11214H14.7652C15.806 4.11214 16.6502 4.95547 16.6502 5.99714V6.85297C16.6502 7.35047 16.8469 7.82797 17.1977 8.1813L17.7977 8.7813C18.536 9.51547 18.5402 10.7088 17.806 11.4471L17.8052 11.448L17.7977 11.4555L17.1977 12.0555C16.8469 12.408 16.6502 12.8846 16.6502 13.3821V14.2396C16.6502 15.2805 15.8069 16.1238 14.766 16.1238H14.7652H13.9069C13.4094 16.1238 12.9319 16.3213 12.5794 16.6721L11.9794 17.2713C11.246 18.0096 10.0535 18.0138 9.31521 17.2813C9.31437 17.2805 9.31354 17.2796 9.31271 17.2788L9.30521 17.2713L8.70604 16.6721C8.35354 16.3213 7.87604 16.1246 7.37854 16.1238H6.52271C5.48187 16.1238 4.63854 15.2805 4.63854 14.2396V13.3805C4.63854 12.883 4.44104 12.4063 4.09021 12.0538L3.49104 11.4538C2.75271 10.7205 2.74854 9.52797 3.48187 8.78964C3.48187 8.7888 3.48271 8.78797 3.48354 8.78714L3.49104 8.77964L4.09021 8.17964C4.44104 7.8263 4.63854 7.34964 4.63854 6.8513V5.99714" stroke="currentColor" stroke-width="1.5" stroke-linecap="round" stroke-linejoin="round"/>
<path d="M8.50293 12.2604L12.7863 7.97705" stroke="currentColor" stroke-width="1.5" stroke-linecap="round" stroke-linejoin="round"/>
<path d="M12.7225 12.2004H12.73" stroke="currentColor" stroke-width="2" stroke-linecap="round" stroke-linejoin="round"/>
<path d="M8.55549 8.03385H8.56299" stroke="currentColor" stroke-width="2" stroke-linecap="round" stroke-linejoin="round"/>
</svg>
