<svg width="22" height="22" viewBox="0 0 22 22" fill="none" xmlns="http://www.w3.org/2000/svg">
<path d="M19.2026 9.54669L15.2651 13.4842C15.1419 13.6073 14.9749 13.6765 14.8008 13.6765C14.6266 13.6765 14.4596 13.6073 14.3365 13.4842C14.2133 13.3611 14.1442 13.194 14.1442 13.0199C14.1442 12.8458 14.2133 12.6787 14.3365 12.5556L17.1543 9.73865H13.8984C12.2977 9.7382 10.7423 10.2698 9.47667 11.2499C8.21106 12.2299 7.30709 13.6028 6.90691 15.1527C6.8634 15.3213 6.75469 15.4657 6.6047 15.5542C6.45471 15.6427 6.27572 15.6679 6.10711 15.6244C5.9385 15.5809 5.79408 15.4722 5.70562 15.3222C5.61717 15.1722 5.59192 14.9932 5.63543 14.8246C6.10761 12.9924 7.17578 11.3694 8.67173 10.211C10.1677 9.05262 12.0064 8.42471 13.8984 8.42615H17.1559L14.3365 5.60919C14.2755 5.54822 14.2271 5.47584 14.1941 5.39617C14.1612 5.31651 14.1442 5.23112 14.1442 5.1449C14.1442 5.05867 14.1612 4.97328 14.1941 4.89362C14.2271 4.81396 14.2755 4.74157 14.3365 4.6806C14.4596 4.55746 14.6266 4.48828 14.8008 4.48828C14.887 4.48828 14.9724 4.50527 15.0521 4.53826C15.1317 4.57126 15.2041 4.61963 15.2651 4.6806L19.2026 8.6181C19.2636 8.67905 19.312 8.75142 19.345 8.83109C19.378 8.91076 19.395 8.99615 19.395 9.0824C19.395 9.16864 19.378 9.25403 19.345 9.3337C19.312 9.41337 19.2636 9.48575 19.2026 9.54669ZM16.1133 17.6136H3.64453V7.7699C3.64453 7.59585 3.57539 7.42893 3.45232 7.30586C3.32925 7.18279 3.16233 7.11365 2.98828 7.11365C2.81423 7.11365 2.64731 7.18279 2.52424 7.30586C2.40117 7.42893 2.33203 7.59585 2.33203 7.7699V18.2699C2.33203 18.4439 2.40117 18.6109 2.52424 18.7339C2.64731 18.857 2.81423 18.9261 2.98828 18.9261H16.1133C16.2873 18.9261 16.4542 18.857 16.5773 18.7339C16.7004 18.6109 16.7695 18.4439 16.7695 18.2699C16.7695 18.0958 16.7004 17.9289 16.5773 17.8059C16.4542 17.6828 16.2873 17.6136 16.1133 17.6136Z" fill="#0C112E"/>
</svg>
