<svg width="36" height="36" viewBox="0 0 36 36" fill="none" xmlns="http://www.w3.org/2000/svg">
<path d="M9 14.4V20.7M27 14.4V20.7M6.3 27H29.7C31.1912 27 32.4 25.7912 32.4 24.3V11.7C32.4 10.2088 31.1912 9 29.7 9H6.3C4.80883 9 3.6 10.2088 3.6 11.7V24.3C3.6 25.7912 4.80883 27 6.3 27ZM21.6 18C21.6 19.9882 19.9882 21.6 18 21.6C16.0118 21.6 14.4 19.9882 14.4 18C14.4 16.0118 16.0118 14.4 18 14.4C19.9882 14.4 21.6 16.0118 21.6 18Z" stroke="#3745A4" stroke-width="2" stroke-linecap="round" stroke-linejoin="round"/>
</svg>
