<svg width="36" height="36" viewBox="0 0 36 36" fill="none" xmlns="http://www.w3.org/2000/svg">
                                <path d="M4.63895 14.1064H31.3749" stroke="#3745A4" stroke-width="2" stroke-linecap="round" stroke-linejoin="round"/>
                                <path d="M24.0656 3V7.93617" stroke="#3745A4" stroke-width="2" stroke-linecap="round" stroke-linejoin="round"/>
                                <path d="M11.9482 3V7.93617" stroke="#3745A4" stroke-width="2" stroke-linecap="round" stroke-linejoin="round"/>
                                <path fill-rule="evenodd" clip-rule="evenodd" d="M24.3574 5.3688H11.6564C7.25141 5.3688 4.5 7.82271 4.5 12.3333V25.9078C4.5 30.4894 7.25141 33 11.6564 33H24.3435C28.7624 33 31.4999 30.5319 31.4999 26.0213V12.3333C31.5138 7.82271 28.7763 5.3688 24.3574 5.3688Z" stroke="#3745A4" stroke-width="2" stroke-linecap="round" stroke-linejoin="round"/>
                                <path d="M22.3099 19.2617L16.0287 24.6456L13.6897 22.3076C13.5016 22.126 13.2498 22.0255 12.9884 22.0278C12.7269 22.0301 12.4769 22.1349 12.292 22.3198C12.1072 22.5046 12.0023 22.7547 12 23.0161C11.9978 23.2775 12.0983 23.5294 12.2799 23.7174L15.2709 26.7085C15.4485 26.8858 15.6865 26.9897 15.9373 26.9993C16.1881 27.0089 16.4333 26.9235 16.6239 26.7603L23.603 20.7782C23.7081 20.6949 23.7953 20.5912 23.8594 20.4734C23.9234 20.3556 23.9631 20.2261 23.9759 20.0926C23.9888 19.9592 23.9746 19.8245 23.9342 19.6966C23.8938 19.5687 23.828 19.4503 23.7408 19.3485C23.6536 19.2466 23.5467 19.1634 23.4266 19.1039C23.3064 19.0443 23.1755 19.0095 23.0417 19.0017C22.9078 18.9939 22.7737 19.0131 22.6475 19.0583C22.5212 19.1035 22.4054 19.1737 22.3069 19.2647L22.3099 19.2617Z" fill="#3745A4"/>
                            </svg>