<svg width="15" height="16" viewBox="0 0 15 16" fill="none" xmlns="http://www.w3.org/2000/svg">
<path d="M12.4938 6.10156C12.4938 6.10156 12.0866 11.1528 11.8503 13.2806C11.7378 14.2968 11.1101 14.8923 10.0818 14.9111C8.12509 14.9463 6.16609 14.9486 4.21009 14.9073C3.22084 14.8871 2.60359 14.2841 2.49334 13.2858C2.25559 11.1393 1.85059 6.10156 1.85059 6.10156" stroke="currentColor" stroke-width="1.5" stroke-linecap="round" stroke-linejoin="round"/>
<path d="M13.531 3.67969H0.8125" stroke="currentColor" stroke-width="1.5" stroke-linecap="round" stroke-linejoin="round"/>
<path d="M11.0799 3.67925C10.4912 3.67925 9.9842 3.263 9.8687 2.68625L9.68644 1.77425C9.57394 1.3535 9.19295 1.0625 8.7587 1.0625H5.58395C5.1497 1.0625 4.7687 1.3535 4.6562 1.77425L4.47395 2.68625C4.35845 3.263 3.85145 3.67925 3.2627 3.67925" stroke="currentColor" stroke-width="1.5" stroke-linecap="round" stroke-linejoin="round"/>
</svg>
