<svg width="36" height="36" viewBox="0 0 36 36" fill="none" xmlns="http://www.w3.org/2000/svg">
                            <path d="M18 35C13.4591 35 9.19002 33.2317 5.97914 30.0209C2.76827 26.81 1 22.5409 1 18C1 13.4591 2.76833 9.19008 5.97914 5.97914C9.18995 2.7682 13.4591 1 18 1C22.5409 1 26.81 2.76827 30.0209 5.97914C33.2317 9.19002 35 13.4591 35 18C35 22.5409 33.2317 26.8099 30.0209 30.0209C26.81 33.2318 22.5409 35 18 35ZM18 3.125C9.7979 3.125 3.125 9.7979 3.125 18C3.125 26.2021 9.7979 32.875 18 32.875C26.2021 32.875 32.875 26.2021 32.875 18C32.875 9.7979 26.2021 3.125 18 3.125Z" fill="#3745A4"/>
                            <path d="M18 16.9375C16.5353 16.9375 15.3438 15.7459 15.3438 14.2812C15.3438 12.8166 16.5353 11.625 18 11.625C19.4647 11.625 20.6563 12.8166 20.6563 14.2812C20.6563 14.868 21.1319 15.3438 21.7188 15.3438C22.3056 15.3438 22.7813 14.868 22.7813 14.2812C22.7813 12.0101 21.189 10.1051 19.0625 9.62046V8.4375C19.0625 7.85073 18.5868 7.375 18 7.375C17.4132 7.375 16.9375 7.85073 16.9375 8.4375V9.62046C14.811 10.1051 13.2188 12.0101 13.2188 14.2812C13.2188 16.9176 15.3636 19.0625 18 19.0625C19.4647 19.0625 20.6563 20.2541 20.6563 21.7188C20.6563 23.1834 19.4647 24.375 18 24.375C16.5353 24.375 15.3438 23.1834 15.3438 21.7188C15.3438 21.132 14.8681 20.6562 14.2813 20.6562C13.6944 20.6562 13.2188 21.132 13.2188 21.7188C13.2188 23.9899 14.811 25.8949 16.9375 26.3795V27.5625C16.9375 28.1493 17.4132 28.625 18 28.625C18.5868 28.625 19.0625 28.1493 19.0625 27.5625V26.3795C21.189 25.8949 22.7813 23.9899 22.7813 21.7188C22.7813 19.0824 20.6364 16.9375 18 16.9375Z" fill="#3745A4"/>
                            </svg>