<svg class="me-2 icon-18" width="16" height="16" viewBox="0 0 16 16" fill="none" xmlns="http://www.w3.org/2000/svg">
<path d="M6.88651 11.0619H2.68604" stroke="currentColor" stroke-width="1.5" stroke-linecap="round" stroke-linejoin="round"></path>
<path d="M8.76025 4.60028H12.9607" stroke="currentColor" stroke-width="1.5" stroke-linecap="round" stroke-linejoin="round"></path>
<path fill-rule="evenodd" clip-rule="evenodd" d="M5.81736 4.56417C5.81736 3.7004 5.11192 3 4.24193 3C3.37194 3 2.6665 3.7004 2.6665 4.56417C2.6665 5.42794 3.37194 6.12834 4.24193 6.12834C5.11192 6.12834 5.81736 5.42794 5.81736 4.56417Z" stroke="#7E7E7E" stroke-width="1.5" stroke-linecap="round" stroke-linejoin="round"></path>
<path fill-rule="evenodd" clip-rule="evenodd" d="M13.333 11.0358C13.333 10.1721 12.6281 9.47168 11.7581 9.47168C10.8876 9.47168 10.1821 10.1721 10.1821 11.0358C10.1821 11.8996 10.8876 12.6 11.7581 12.6C12.6281 12.6 13.333 11.8996 13.333 11.0358Z" stroke="#7E7E7E" stroke-width="1.5" stroke-linecap="round" stroke-linejoin="round"></path>
</svg>