 <svg width="10" height="15" viewBox="0 0 10 15" fill="none" xmlns="http://www.w3.org/2000/svg">
                            <path d="M8.28848 8.43443C10.1018 6.62173 10.1018 3.67224 8.28848 1.85954C6.47521 0.0468183 3.52482 0.0468183 1.71152 1.85954C-0.101756 3.67224 -0.101756 6.62173 1.71152 8.43443C2.47906 9.20172 3.45033 9.64412 4.45284 9.76186V11.3183H3.3586C3.05642 11.3183 2.81147 11.5632 2.81147 11.8653C2.81147 12.1674 3.05642 12.4123 3.3586 12.4123H4.45284V13.953C4.45287 14.2551 4.69781 14.5 5.00001 14.5C5.30219 14.5 5.54713 14.2551 5.54713 13.953V12.4123H6.6414C6.94358 12.4123 7.18853 12.1674 7.18853 11.8653C7.18853 11.5632 6.94358 11.3183 6.6414 11.3183H5.54713V9.76189C6.54967 9.64412 7.52094 9.20172 8.28848 8.43443ZM2.48529 7.6609C1.09866 6.27471 1.09866 4.01924 2.48529 2.63304C3.87189 1.24691 6.12805 1.24683 7.51474 2.63304C8.90137 4.01924 8.90137 6.27471 7.51474 7.6609C6.12811 9.04707 3.87192 9.04707 2.48529 7.6609Z" fill="#7E7E7E"/>
                            </svg>