<svg width="18" height="18" viewBox="0 0 20 20" fill="none" xmlns="http://www.w3.org/2000/svg">
<path d="M18.4375 10.5C18.7136 10.5 18.9375 10.2761 18.9375 10C18.9375 9.72386 18.7136 9.5 18.4375 9.5V10.5ZM18.5 10C18.5 14.6944 14.6944 18.5 10 18.5V19.5C15.2467 19.5 19.5 15.2467 19.5 10H18.5ZM10 18.5C5.30558 18.5 1.5 14.6944 1.5 10H0.5C0.5 15.2467 4.75329 19.5 10 19.5V18.5ZM1.5 10C1.5 5.30558 5.30558 1.5 10 1.5V0.5C4.75329 0.5 0.5 4.75329 0.5 10H1.5ZM10 1.5C14.6944 1.5 18.5 5.30558 18.5 10H19.5C19.5 4.75329 15.2467 0.5 10 0.5V1.5ZM10 18.5C9.62178 18.5 9.22204 18.3269 8.81488 17.9333C8.40531 17.5373 8.01363 16.9402 7.67385 16.1636C6.99494 14.6118 6.5625 12.433 6.5625 10H5.5625C5.5625 12.5376 6.0115 14.8588 6.75769 16.5644C7.13046 17.4164 7.58723 18.1373 8.11982 18.6522C8.6548 19.1694 9.29091 19.5 10 19.5V18.5ZM6.5625 10C6.5625 7.567 6.99494 5.38824 7.67385 3.83645C8.01363 3.05981 8.40531 2.4627 8.81488 2.06674C9.22204 1.6731 9.62178 1.5 10 1.5V0.5C9.29091 0.5 8.6548 0.830577 8.11982 1.34779C7.58723 1.86268 7.13046 2.58359 6.75769 3.43563C6.0115 5.14119 5.5625 7.46244 5.5625 10H6.5625ZM10 19.5C10.7091 19.5 11.3452 19.1694 11.8802 18.6522C12.4128 18.1373 12.8695 17.4164 13.2423 16.5644C13.9885 14.8588 14.4375 12.5376 14.4375 10H13.4375C13.4375 12.433 13.0051 14.6118 12.3262 16.1636C11.9864 16.9402 11.5947 17.5373 11.1851 17.9333C10.778 18.3269 10.3782 18.5 10 18.5V19.5ZM14.4375 10C14.4375 7.46244 13.9885 5.14119 13.2423 3.43563C12.8695 2.58359 12.4128 1.86268 11.8802 1.34779C11.3452 0.830577 10.7091 0.5 10 0.5V1.5C10.3782 1.5 10.778 1.6731 11.1851 2.06674C11.5947 2.4627 11.9864 3.05981 12.3262 3.83645C13.0051 5.38824 13.4375 7.567 13.4375 10H14.4375ZM1 10.5L18.4375 10.5V9.5L1 9.5L1 10.5Z" fill="black"/>
</svg>
