       <svg width="420" height="276" class="img-fluid" viewBox="0 0 420 276" fill="none" xmlns="http://www.w3.org/2000/svg">
                <g clip-path="url(#clip0_286_6076)">
                    <path d="M412.429 65.2748L405.872 97.0317L401.652 92.9139L394.471 98.032L388.983 91.2216L376.678 100.17L366.161 82.5818L354.431 89.4539L349.779 83.0408L334.883 91.434L330.402 81.835L340.844 31.2637L396.821 42.8222L412.429 65.2748Z" fill="#F0F0F0" />
                    <path d="M396.821 42.8223L412.429 65.2748L393.012 61.2666L396.821 42.8223Z" fill="#DBDBDB" />
                    <path d="M404.474 103.376L394.862 149.967L319.46 134.4L329.005 88.1865L333.486 97.7787L348.388 89.3855L353.033 95.7986L364.77 88.9333L375.28 106.521L387.592 97.5731L393.074 104.384L400.261 99.2655L404.474 103.376Z" fill="#F0F0F0" />
                    <path d="M296.556 97.9153L219.716 102.67L213.611 4.0354L270.671 0.5L291.616 18.0742L296.556 97.9153Z" fill="#F0F0F0" />
                    <path d="M270.671 0.5L291.616 18.0742L271.829 19.3007L270.671 0.5Z" fill="#DBDBDB" />
                    <path d="M249.369 66.8712L249.074 64.6444C248.3 60.0333 249.561 54.8741 253.569 49.4819C257.18 44.7132 259.139 41.2395 258.927 37.3684C258.68 32.9834 255.768 30.2154 250.349 30.4346C247.252 30.6059 243.874 31.8323 241.819 33.5863L239.455 28.2901C242.175 26.0702 246.998 24.419 251.555 24.1654C261.435 23.6105 266.244 29.4617 266.614 35.9912C266.943 41.8356 263.915 46.2274 260.064 51.3593C256.536 56.0389 255.371 59.8963 255.871 64.2676L256.084 66.4943L249.369 66.8712ZM248.149 79.0052C247.971 75.8261 249.993 73.4692 253 73.3048C256.008 73.1335 258.194 75.2575 258.372 78.4366C258.543 81.4444 256.693 83.8767 253.514 84.0548C250.513 84.2193 248.321 82.0131 248.149 79.0052Z" fill="#DBDBDB" />
                    <path d="M57.1966 50.0915L49.4681 46.5903L48.3992 48.961C48.0841 49.6598 47.3989 50.0983 46.6384 50.1326C46.2136 50.1531 45.7957 50.1943 45.3777 50.2559C44.624 50.3724 43.8704 50.0641 43.425 49.4474L41.9108 47.3371L35.0045 52.284L36.5187 54.3942C36.964 55.0109 37.0051 55.8262 36.6557 56.5045C36.457 56.8814 36.2857 57.265 36.135 57.6624C35.8609 58.375 35.2169 58.882 34.4563 58.9505L31.8665 59.204L32.7023 67.652L35.2991 67.3916C36.0596 67.3163 36.779 67.6931 37.197 68.3372C37.3066 68.5153 37.4231 68.6866 37.5464 68.8579C37.6697 69.0292 37.793 69.1936 37.9232 69.358C38.396 69.9541 38.5262 70.7557 38.211 71.4478L37.1284 73.8321L44.8638 77.3401L45.9395 74.9694C46.2547 74.2706 46.9399 73.8321 47.7004 73.7978C48.1183 73.7773 48.5431 73.7362 48.9611 73.6745C49.7147 73.558 50.4684 73.8664 50.9138 74.483L52.428 76.5933L59.3343 71.6465L57.8201 69.5362C57.3748 68.9195 57.3337 68.1042 57.6831 67.4259C57.8749 67.0491 58.0531 66.6654 58.2038 66.2748C58.4779 65.5623 59.1219 65.0553 59.8824 64.9799L62.4723 64.7264L61.6364 56.2784L59.0397 56.5319C58.2792 56.6073 57.5666 56.2305 57.1487 55.5864C57.039 55.4083 56.9157 55.237 56.7924 55.0657C56.6691 54.8944 56.5457 54.73 56.4156 54.5655C55.9359 53.9695 55.8126 53.161 56.1278 52.469L57.1966 50.0915ZM52.8116 57.9091C55.0452 61.0334 54.3327 65.3704 51.2084 67.6109C48.0841 69.8445 43.7402 69.1319 41.4997 66.0145C39.2661 62.8902 39.9787 58.5394 43.103 56.3058C46.2273 54.0654 50.5712 54.7916 52.8116 57.9091Z" fill="#F0F0F0" />
                    <path d="M406.557 162.183L401.405 165.156L402.316 166.732C402.583 167.198 402.556 167.767 402.268 168.212C402.104 168.459 401.96 168.719 401.823 168.979C401.583 169.452 401.096 169.76 400.569 169.76H398.746V175.708H400.569C401.103 175.708 401.583 176.016 401.823 176.489C401.96 176.756 402.104 177.009 402.268 177.256C402.563 177.701 402.583 178.277 402.316 178.736L401.405 180.312L406.557 183.285L407.468 181.703C407.736 181.237 408.243 180.983 408.784 181.011C408.928 181.018 409.079 181.024 409.222 181.024C409.366 181.024 409.517 181.018 409.661 181.011C410.195 180.983 410.702 181.237 410.97 181.696L411.888 183.285L417.04 180.312L416.129 178.729C415.862 178.263 415.889 177.695 416.184 177.249C416.348 177.003 416.492 176.749 416.629 176.482C416.869 176.009 417.348 175.701 417.883 175.701H419.705V169.754H417.883C417.348 169.754 416.869 169.445 416.629 168.973C416.492 168.705 416.348 168.452 416.184 168.205C415.889 167.76 415.862 167.184 416.129 166.725L417.04 165.143L411.888 162.169L410.976 163.752C410.709 164.218 410.202 164.471 409.668 164.444C409.524 164.437 409.373 164.43 409.229 164.43C409.085 164.43 408.935 164.437 408.791 164.444C408.256 164.471 407.742 164.218 407.475 163.752L406.557 162.183ZM409.222 167.869C411.915 167.869 414.094 170.048 414.094 172.741C414.094 175.434 411.915 177.612 409.222 177.612C406.53 177.612 404.351 175.427 404.351 172.741C404.351 170.048 406.53 167.869 409.222 167.869Z" fill="#F0F0F0" />
                    <path d="M72.8318 24.775L68.1043 28.3858L69.2142 29.8314C69.5431 30.2562 69.591 30.8249 69.3581 31.3114C69.2279 31.5786 69.1183 31.8526 69.0155 32.1336C68.8374 32.6337 68.3989 33.0037 67.8713 33.0722L66.0625 33.3052L66.8299 39.2044L68.6387 38.9714C69.1662 38.9029 69.687 39.1427 69.9884 39.588C70.1597 39.8347 70.3379 40.0677 70.5297 40.2938C70.8791 40.698 70.9751 41.2598 70.7695 41.76L70.0707 43.4386L75.5656 45.7202L76.2645 44.0347C76.47 43.5414 76.9428 43.2194 77.4772 43.1783C77.6211 43.1646 77.7649 43.1508 77.9157 43.1303C78.0596 43.1097 78.2035 43.0892 78.3473 43.0618C78.8749 42.9659 79.4093 43.1509 79.7313 43.5756L80.8481 45.035L85.5757 41.4243L84.4658 39.9717C84.1437 39.5469 84.0958 38.9783 84.3287 38.4918C84.4589 38.2246 84.5685 37.9505 84.6713 37.6765C84.8495 37.1763 85.288 36.8063 85.8155 36.7378L87.6243 36.5048L86.857 30.6057L85.0481 30.8386C84.5206 30.9071 83.9999 30.6673 83.6984 30.2288C83.534 29.9822 83.349 29.7492 83.1571 29.5231C82.8077 29.1189 82.7118 28.557 82.9173 28.0569L83.6162 26.3714L78.1212 24.0898L77.4224 25.7753C77.2168 26.2686 76.7441 26.5838 76.2165 26.6318C76.0726 26.6455 75.9219 26.6592 75.778 26.6797C75.6341 26.7003 75.4902 26.7208 75.3464 26.7482C74.8188 26.8442 74.2775 26.6592 73.9555 26.2344L72.8318 24.775ZM76.2096 30.0712C78.8749 29.7218 81.3209 31.606 81.6703 34.2712C82.0198 36.9365 80.1356 39.3893 77.4703 39.7319C74.8051 40.0814 72.3522 38.1972 72.0097 35.5251C71.6534 32.8667 73.5375 30.4207 76.2096 30.0712Z" fill="#F0F0F0" />
                    <path d="M37.5601 179.36C37.8274 172.727 37.7246 166.088 37.2861 159.47C36.3885 145.815 34.1412 132.262 31.0512 118.943C29.3109 111.44 27.1732 104.068 24.9464 96.7026C24.8779 96.4834 24.5216 96.545 24.5833 96.778C31.476 122.745 37.1353 149.535 36.7448 176.53C36.6352 184.08 35.7582 191.501 35.0456 199.01C35.0251 199.209 35.3539 199.291 35.4019 199.085C36.827 192.652 37.2929 185.924 37.5601 179.36Z" fill="#F0F0F0" />
                    <path d="M24.5834 96.771C24.5834 96.771 14.1347 123.286 16.478 129.515C18.8144 135.749 23.6378 137.079 23.6378 137.079C23.6378 137.079 17.2453 146.205 21.7126 154.763C26.1798 163.32 36.1008 162.916 36.7586 172.618C36.7654 172.618 37.3135 132.05 24.5834 96.771Z" fill="#F0F0F0" />
                    <path d="M35.6281 155.866C35.6418 155.824 35.6349 155.776 35.6144 155.728C34.1481 137.702 30.9484 119.73 25.4809 102.389C25.4672 102.341 25.3781 102.355 25.3918 102.41C27.461 110.166 29.3041 117.963 30.8799 125.801C29.5233 124.403 27.7488 123.602 25.892 123.019C25.8577 123.005 25.8372 123.06 25.8714 123.074C27.8036 123.91 29.6535 124.876 31.017 126.513C31.3253 128.048 31.6199 129.59 31.9077 131.125C29.5713 128.514 26.3374 127.219 23.0966 125.993C23.0486 125.972 23.0281 126.048 23.0692 126.061C26.4401 127.432 29.8042 129.206 32.0927 132.111C32.8874 136.51 33.5863 140.929 34.1892 145.355C32.4832 143.574 30.3798 142.375 27.9612 141.786C27.8858 141.765 27.8447 141.875 27.9201 141.895C30.4003 142.608 32.538 143.999 34.2372 145.944C34.2509 145.958 34.2646 145.965 34.2783 145.972C34.4907 147.527 34.6825 149.089 34.8675 150.651C33.552 149.528 32.0995 148.678 30.5031 148.021C30.462 148 30.4346 148.068 30.4825 148.089C32.1064 148.781 33.5657 149.774 34.8538 150.98C34.8744 150.994 34.8881 150.994 34.9086 151.001C35.0799 152.488 35.2581 153.974 35.4088 155.461C33.0108 152.577 30.0509 150.487 26.5497 149.137C26.4812 149.11 26.447 149.213 26.5086 149.247C29.9139 150.727 32.9148 153.077 35.2375 155.968C35.2992 156.051 35.3814 156.057 35.4568 156.037C35.6829 158.318 35.8816 160.607 36.0528 162.895C36.0528 162.929 36.1077 162.929 36.1077 162.895C35.9843 160.552 35.8199 158.209 35.6281 155.866Z" fill="white" />
                    <path d="M27.235 120.389C25.4262 119.142 23.1241 118.614 20.959 118.429C20.9042 118.422 20.9042 118.504 20.9522 118.511C23.1995 118.847 25.0905 119.662 27.1597 120.539C27.2487 120.574 27.3104 120.443 27.235 120.389Z" fill="white" />
                    <path d="M28.5025 148.459C27.0705 147.596 25.433 147.109 23.7886 146.849C23.7338 146.842 23.7269 146.931 23.7817 146.938C25.4467 147.24 26.9266 147.836 28.4408 148.576C28.5093 148.603 28.5641 148.493 28.5025 148.459Z" fill="white" />
                    <path d="M65.0211 129.954C60.6636 133.016 56.4841 136.552 52.9282 140.526C49.1392 144.76 46.3781 149.57 44.4459 154.907C40.4926 165.842 38.3275 177.681 38.1288 189.302C38.0192 195.818 38.5947 202.279 39.9924 208.644C40.0404 208.877 40.3898 208.808 40.3556 208.575C38.6495 197.373 38.7112 185.944 40.5474 174.77C42.3425 163.8 45.1585 151.865 52.1334 142.951C55.9291 138.1 60.6636 134.277 65.3432 130.33C65.5898 130.111 65.2746 129.775 65.0211 129.954Z" fill="#F0F0F0" />
                    <path d="M39.6704 181.395C39.6704 181.395 43.2606 175.352 48.4815 170.131C53.7092 164.91 58.1079 161.196 58.7862 157.736C59.4645 154.283 53.5517 151.734 53.5517 151.734C53.5517 151.734 60.78 153.029 62.7601 150.001C64.7402 146.966 65.6926 129.392 65.6926 129.392C65.6926 129.392 52.5376 138.785 46.4055 151.954C40.287 165.116 39.6704 181.395 39.6704 181.395Z" fill="#F0F0F0" />
                    <path d="M61.15 133.893C55.614 139.333 50.0437 145.123 46.7823 152.269C45.6655 154.715 44.7131 157.257 43.8773 159.847C43.8773 159.853 43.8773 159.853 43.8704 159.86C43.6991 160.381 43.5347 160.895 43.3703 161.422C43.3565 161.45 43.3428 161.477 43.3428 161.505C41.7327 166.842 40.5954 172.358 39.6087 177.743C39.6019 177.777 39.6567 177.798 39.6636 177.763C40.2322 175.023 40.8557 172.255 41.5546 169.494C41.582 169.494 41.6025 169.487 41.63 169.48C42.7468 169.007 43.8773 168.712 45.0831 168.603C45.1585 168.596 45.1585 168.459 45.0763 168.466C43.9115 168.521 42.7673 168.726 41.6642 169.089C42.3014 166.602 42.9934 164.115 43.7745 161.669C46.3164 161.046 48.968 160.71 51.5784 160.648C51.6058 160.648 51.6127 160.607 51.5853 160.607C48.9543 160.484 46.4808 160.71 43.9115 161.258C44.0485 160.84 44.1856 160.422 44.3295 160.004C46.0424 159.614 47.7689 159.285 49.5229 159.127C49.5572 159.127 49.5503 159.072 49.5229 159.072C47.8032 159.12 46.1109 159.298 44.4391 159.689C45.1517 157.572 45.9259 155.482 46.7892 153.447C47.5017 151.762 48.3445 150.165 49.2763 148.624C50.6809 148.309 52.0443 148 53.49 147.87C53.5311 147.863 53.5242 147.802 53.4831 147.802C52.1745 147.719 50.811 147.815 49.5435 148.192C50.2355 147.075 50.9618 145.979 51.7428 144.917C54.6959 144.266 57.6831 143.656 60.6978 144.225C60.7526 144.232 60.7663 144.15 60.7184 144.136C57.8476 143.382 54.9973 143.814 52.1334 144.383C52.4485 143.965 52.7637 143.56 53.0857 143.149C54.8946 142.588 56.6965 142.32 58.6012 142.286C58.6424 142.286 58.6492 142.231 58.6081 142.224C56.8746 142.06 55.1412 142.224 53.4694 142.683C55.9086 139.655 58.6012 136.805 61.2665 133.989C61.3761 133.838 61.2802 133.763 61.15 133.893Z" fill="white" />
                    <path d="M60.9994 145.877C60.1361 145.788 59.2522 145.685 58.3821 145.788C58.2793 145.801 58.2862 145.973 58.3889 145.973C59.2522 146 60.1224 145.931 60.9857 145.979C61.061 145.979 61.0679 145.883 60.9994 145.877Z" fill="white" />
                    <path d="M51.5305 162.93C50.1465 162.916 48.7693 163.286 47.4744 163.745C47.4401 163.759 47.4607 163.814 47.495 163.8C48.831 163.478 50.1876 163.355 51.5442 163.129C51.6538 163.108 51.647 162.93 51.5305 162.93Z" fill="white" />
                    <path d="M48.6939 157.037C48.132 157.01 47.5222 157.106 46.9741 157.195C46.9193 157.202 46.9193 157.298 46.981 157.298C47.5428 157.305 48.1526 157.325 48.7076 157.216C48.8035 157.195 48.7966 157.044 48.6939 157.037Z" fill="white" />
                    <path d="M1.10318 148.603C5.33743 150.076 9.53743 151.967 13.3332 154.359C17.3756 156.914 20.726 160.162 23.5214 164.033C29.2493 171.967 33.7371 181.052 36.5805 190.405C38.1769 195.653 39.1978 201.011 39.5472 206.485C39.5609 206.684 39.2663 206.711 39.2389 206.513C38.0262 197.057 35.3335 187.822 31.2705 179.195C27.2829 170.734 22.2402 161.731 14.5391 156.126C10.3459 153.077 5.63205 151.077 0.931889 148.966C0.685233 148.87 0.856521 148.521 1.10318 148.603Z" fill="#F0F0F0" />
                    <path d="M33.5109 184.375C33.5109 184.375 29.2082 180.312 23.7749 177.297C18.3416 174.276 13.9155 172.289 12.5726 169.651C11.2228 167.013 15.4228 163.588 15.4228 163.588C15.4228 163.588 9.87308 166.308 7.57096 164.314C5.26884 162.313 0.431641 148.309 0.431641 148.309C0.431641 148.309 13.2509 152.872 21.2535 162.108C29.2493 171.344 33.5109 184.375 33.5109 184.375Z" fill="#F0F0F0" />
                    <path d="M32.8395 181.49C26.4265 169.459 17.8758 158.572 6.15276 151.385C6.14591 151.385 6.13905 151.392 6.1459 151.392C9.2291 153.358 12.0725 155.626 14.724 158.106C12.3534 158.038 9.93481 158.421 7.83138 159.559C7.78342 159.586 7.81768 159.648 7.86564 159.634C10.2089 158.839 12.463 158.319 14.957 158.435C14.9913 158.435 15.0118 158.421 15.0392 158.408C15.4572 158.805 15.8683 159.202 16.2725 159.607C15.0392 159.661 13.7922 159.833 12.5932 160.093C12.559 160.1 12.5727 160.148 12.6001 160.141C13.9019 159.888 15.1694 159.805 16.4917 159.819C18.6431 161.977 20.6438 164.286 22.5348 166.684C21.6784 166.561 20.7808 166.629 19.9586 166.869C19.897 166.89 19.9107 166.972 19.9792 166.965C20.911 166.849 21.8017 166.862 22.7267 166.924C23.0761 167.369 23.4324 167.815 23.7749 168.267C21.1371 168.109 18.5541 168.363 15.9984 169.021C15.9573 169.028 15.971 169.089 16.0121 169.082C18.6568 168.562 21.3152 168.397 24.001 168.562C24.3299 168.993 24.6382 169.439 24.9603 169.877C23.3844 169.829 21.8634 170.028 20.3286 170.405C20.2669 170.418 20.2875 170.507 20.3492 170.501C21.925 170.144 23.5283 170.048 25.1452 170.124C26.5224 172.022 27.8448 173.967 29.1123 175.934C28.4408 175.797 27.7351 175.872 27.0774 176.057C27.0431 176.064 27.05 176.119 27.0911 176.112C27.8448 176.023 28.5505 176.119 29.2904 176.215C30.4346 177.989 31.5377 179.784 32.5929 181.593C32.682 181.765 32.9286 181.648 32.8395 181.49Z" fill="white" />
                    <path d="M22.8705 171.508C21.6167 171.398 20.3423 171.597 19.1433 171.96C19.109 171.974 19.1159 172.022 19.157 172.015C20.3903 171.789 21.6098 171.7 22.8568 171.638C22.9459 171.638 22.9596 171.515 22.8705 171.508Z" fill="white" />
                    <path d="M11.6887 156.846C11.1201 156.784 10.5308 156.853 9.96901 156.949C9.90049 156.962 9.92105 157.058 9.98956 157.051C10.5514 156.99 11.1132 157.01 11.675 156.997C11.771 156.99 11.7847 156.853 11.6887 156.846Z" fill="white" />
                    <path d="M50.0437 224.169H21.1096L25.2343 193.947L26.2894 186.198H44.8639L45.9191 193.947L50.0437 224.169Z" fill="#DBDBDB" />
                    <path d="M45.9192 193.947H25.2344L26.2895 186.198H44.8641L45.9192 193.947Z" fill="#C7C7C7" />
                    <path d="M47.5156 183.512H23.6311V190.076H47.5156V183.512Z" fill="#DBDBDB" />
                    <path d="M2.71313 224.169L54.7918 224.004L106.87 223.943L211.028 223.826L315.185 223.943L367.264 224.004L419.342 224.169L367.264 224.34L315.185 224.395L211.028 224.511L106.87 224.395L54.7918 224.333L2.71313 224.169Z" fill="#263238" />
                    <path d="M212.398 275.233C320.901 275.233 408.859 265.595 408.859 253.706C408.859 241.816 320.901 232.178 212.398 232.178C103.896 232.178 15.9368 241.816 15.9368 253.706C15.9368 265.595 103.896 275.233 212.398 275.233Z" fill="#EBEBEB" />
                    <path d="M166.664 250.143C165.067 250.684 119.292 250.842 117.538 249.745C116.874 249.334 116.463 242.668 116.188 234.597C116.127 232.856 116.079 231.054 116.038 229.225L112.324 204.806L142.923 204.607L145.815 229.026L145.698 234.398C145.698 234.398 163.252 242.174 165.04 243.586C166.828 245.004 168.26 249.602 166.664 250.143Z" fill="#EB9481" />
                    <path d="M166.664 250.143C165.068 250.684 119.292 250.842 117.538 249.745C116.73 249.238 116.291 239.502 116.045 229.232L145.822 229.04L145.705 234.412C145.705 234.412 163.259 242.188 165.047 243.6C166.828 245.004 168.26 249.602 166.664 250.143Z" fill="white" />
                    <path d="M166.664 250.143C165.067 250.684 119.292 250.842 117.538 249.745C116.874 249.334 116.463 242.668 116.188 234.597L145.705 234.405C145.705 234.405 163.259 242.181 165.047 243.593C166.828 245.004 168.26 249.602 166.664 250.143Z" fill="#A6A6A6" />
                    <path d="M165.999 248.314C158.326 248.149 127.357 248.224 119.758 248.649C119.696 248.649 119.696 248.697 119.758 248.697C127.363 249.026 158.326 248.697 165.999 248.437C166.164 248.43 166.164 248.314 165.999 248.314Z" fill="#263238" />
                    <path d="M162.101 241.962C160.278 241.894 158.504 242.764 157.517 243.853C156.565 244.895 155.756 246.368 155.818 247.957C155.818 248.005 155.907 248.005 155.914 247.957C156.339 244.95 159.066 242.305 162.108 242.058C162.163 242.051 162.163 241.962 162.101 241.962Z" fill="#263238" />
                    <path d="M148.686 235.165C145.616 235.131 142.06 236.227 140.155 238.749C140.08 238.845 140.224 238.947 140.313 238.899C143.088 237.461 145.719 236.385 148.74 235.542C148.953 235.48 148.905 235.165 148.686 235.165Z" fill="#263238" />
                    <path d="M151.063 236.076C147.994 236.042 144.438 237.138 142.533 239.66C142.457 239.756 142.601 239.859 142.69 239.811C145.465 238.372 148.096 237.296 151.118 236.453C151.33 236.398 151.282 236.083 151.063 236.076Z" fill="#263238" />
                    <path d="M153.434 236.995C150.364 236.961 146.808 238.057 144.903 240.578C144.828 240.674 144.972 240.777 145.061 240.729C147.836 239.29 150.467 238.215 153.488 237.372C153.701 237.31 153.653 236.995 153.434 236.995Z" fill="#263238" />
                    <path d="M155.811 237.913C152.742 237.879 149.186 238.975 147.281 241.496C147.206 241.592 147.349 241.695 147.438 241.647C150.206 240.208 152.844 239.132 155.866 238.29C156.078 238.228 156.03 237.913 155.811 237.913Z" fill="#263238" />
                    <path d="M121.69 241.352C118.244 241.373 118.271 246.731 121.725 246.71C125.171 246.683 125.144 241.332 121.69 241.352Z" fill="#263238" />
                    <path d="M151.974 226.957C150.412 225.676 148.459 226.943 147.507 228.279C145.959 230.451 144.904 233.493 144.746 236.145C144.739 236.213 144.794 236.234 144.842 236.234C144.91 236.453 145.171 236.638 145.397 236.481C147.576 234.96 150.097 233.603 151.748 231.458C152.707 230.205 153.454 228.17 151.974 226.957ZM148.233 233.493C147.178 234.268 146.096 234.987 145.068 235.795C145.609 234.261 146.082 232.712 146.781 231.239C147.117 230.533 147.466 229.814 147.898 229.163C148.562 228.149 151.57 225.566 151.885 228.91C152.057 230.753 149.487 232.575 148.233 233.493Z" fill="#263238" />
                    <path d="M137.12 237.31C139.799 237.714 142.553 236.94 145.177 236.522C145.451 236.48 145.513 236.165 145.403 235.96C145.445 235.926 145.458 235.878 145.41 235.83C143.458 234.034 140.587 232.575 137.97 232.075C136.353 231.767 134.064 232.212 133.831 234.219C133.612 236.117 135.558 237.077 137.12 237.31ZM135.256 235.569C133.167 232.945 137.12 232.719 138.305 232.986C139.066 233.164 139.819 233.432 140.546 233.712C142.074 234.295 143.485 235.083 144.944 235.809C143.643 235.932 142.361 236.172 141.066 236.343C139.518 236.549 136.407 237.015 135.256 235.569Z" fill="#263238" />
                    <path d="M67.3643 91.9473C67.3643 91.9473 102.903 152.405 103.856 156.653C105.315 163.176 113.071 227.587 113.071 227.587L150.049 226.923C150.049 226.923 143.677 170.13 137.641 151.419C133.29 137.942 101.93 93.2422 101.93 93.2422L67.3643 91.9473Z" fill="#37474F" />
                    <path d="M146.685 221.257C141.375 221.216 122.554 221.003 115.49 221.668C115.435 221.675 115.435 221.764 115.49 221.771C117.922 222.12 141.382 221.579 146.685 221.407C146.787 221.401 146.781 221.257 146.685 221.257Z" fill="#263238" />
                    <path d="M73.4279 97.4972C75.7574 101.149 78.2171 104.726 80.5946 108.35C82.9789 111.975 85.3496 115.599 87.6928 119.251C92.3724 126.541 96.9355 133.906 101.41 141.32C103.506 144.793 105.507 148.308 106.953 152.097C108.378 155.852 109.351 159.764 110.07 163.704C110.796 167.671 111.269 171.679 111.721 175.687C112.201 179.956 112.674 184.217 113.153 188.486C114.126 197.215 115.099 205.944 116.079 214.672C116.195 215.741 116.319 216.817 116.421 217.886C116.435 218.043 116.154 218.071 116.134 217.913C115.044 209.239 114.14 200.545 113.153 191.857C112.66 187.533 112.167 183.21 111.68 178.887C111.221 174.865 110.789 170.843 110.166 166.842C109.556 162.916 108.754 159.004 107.562 155.201C106.315 151.227 104.541 147.5 102.451 143.889C98.1688 136.496 93.6331 129.234 89.0974 121.985C84.5205 114.674 79.9094 107.391 75.1202 100.21C74.531 99.3266 73.9349 98.4428 73.3182 97.5726C73.2634 97.4904 73.3868 97.4287 73.4279 97.4972Z" fill="#263238" />
                    <path d="M79.012 253.705C77.3265 253.603 33.7917 235.967 32.579 234.295C32.5379 234.24 32.5173 234.131 32.5105 233.973C32.5173 232.479 35.532 227.238 38.0534 220.359C38.211 219.92 39.3346 217.879 40.8968 215.124C45.1859 207.567 52.7705 194.625 52.7705 194.625L81.225 205.93L67.6041 226.32L65.487 231.253C65.487 231.253 78.8407 245.052 79.9712 247.032C81.088 249.005 80.6906 253.801 79.012 253.705Z" fill="#EB9481" />
                    <path d="M79.012 253.706C77.3265 253.603 33.7917 235.967 32.579 234.295C32.5379 234.24 32.5173 234.131 32.5105 233.973C32.5173 232.479 35.532 227.238 38.0534 220.359C38.211 219.921 39.3346 217.879 40.8968 215.125L67.6041 226.313L65.487 231.246C65.487 231.246 78.8407 245.045 79.9712 247.025C81.088 249.005 80.6906 253.802 79.012 253.706Z" fill="white" />
                    <path d="M79.0119 253.705C77.3264 253.609 33.7985 235.967 32.5858 234.295C32.1268 233.665 34.0726 227.717 38.0602 220.366L65.487 231.26C65.487 231.26 78.8406 245.052 79.9711 247.032C81.0879 249.005 80.6905 253.801 79.0119 253.705Z" fill="#A6A6A6" />
                    <path d="M79.0803 251.76C72.0301 248.731 43.2947 237.18 36.0937 234.727C36.032 234.706 36.0183 234.747 36.0732 234.775C43.0001 237.926 71.8245 249.245 79.0324 251.883C79.19 251.931 79.2311 251.821 79.0803 251.76Z" fill="#263238" />
                    <path d="M77.847 244.408C76.182 243.661 74.2156 243.805 72.8864 244.442C71.6121 245.052 70.3103 246.107 69.769 247.608C69.7553 247.649 69.8307 247.683 69.8581 247.642C71.3791 245.018 74.9008 243.586 77.8127 244.497C77.8744 244.517 77.9018 244.435 77.847 244.408Z" fill="#263238" />
                    <path d="M67.9602 233.076C65.1237 231.89 61.417 231.575 58.7106 233.199C58.6078 233.26 58.6969 233.411 58.7997 233.398C61.9103 233.103 64.7537 233.096 67.8711 233.445C68.0904 233.473 68.1658 233.158 67.9602 233.076Z" fill="#263238" />
                    <path d="M69.8171 234.816C66.9806 233.63 63.2739 233.315 60.5676 234.939C60.4648 235.001 60.5539 235.151 60.6566 235.138C63.7672 234.843 66.6106 234.836 69.7281 235.186C69.9473 235.206 70.0227 234.898 69.8171 234.816Z" fill="#263238" />
                    <path d="M71.6807 236.556C68.8441 235.377 65.1374 235.055 62.4311 236.679C62.3283 236.741 62.4174 236.892 62.5202 236.878C65.6308 236.583 68.4742 236.576 71.5916 236.926C71.804 236.946 71.8794 236.638 71.6807 236.556Z" fill="#263238" />
                    <path d="M73.5374 238.296C70.7008 237.111 66.9941 236.796 64.2878 238.42C64.185 238.481 64.2741 238.632 64.3768 238.618C67.4874 238.324 70.3308 238.317 73.4483 238.666C73.6607 238.687 73.7361 238.378 73.5374 238.296Z" fill="#263238" />
                    <path d="M40.6158 228.684C37.4161 227.409 35.4292 232.383 38.6357 233.658C41.8422 234.932 43.8223 229.958 40.6158 228.684Z" fill="#263238" />
                    <path d="M74.0924 226.704C73.1264 224.929 70.8448 225.368 69.4539 226.258C67.2066 227.69 65.0895 230.116 63.9453 232.514C63.9179 232.575 63.9521 232.616 64.0001 232.63C63.9796 232.856 64.1508 233.13 64.4181 233.069C67.0079 232.479 69.8582 232.164 72.1877 230.801C73.5512 229.992 75.0037 228.382 74.0924 226.704ZM68.1658 231.356C66.8983 231.678 65.6239 231.938 64.3632 232.301C65.4389 231.082 66.4598 229.828 67.6657 228.718C68.2412 228.19 68.8373 227.656 69.4745 227.211C70.468 226.519 74.2226 225.258 73.2634 228.471C72.7427 230.253 69.68 230.972 68.1658 231.356Z" fill="#263238" />
                    <path d="M56.4359 230.725C58.7654 232.103 61.6088 232.418 64.1987 233.021C64.4659 233.082 64.6441 232.815 64.6235 232.589C64.6715 232.575 64.7057 232.534 64.6783 232.473C63.541 230.075 61.4307 227.642 59.1834 226.203C57.7994 225.313 55.511 224.867 54.5449 226.635C53.6268 228.307 55.0724 229.924 56.4359 230.725ZM55.3671 228.41C54.4147 225.189 58.1694 226.464 59.1628 227.163C59.8 227.608 60.3961 228.142 60.9716 228.677C62.1707 229.787 63.1847 231.047 64.2604 232.267C63.0065 231.897 61.7322 231.637 60.4646 231.308C58.9504 230.917 55.8878 230.184 55.3671 228.41Z" fill="#263238" />
                    <path d="M69.8035 225.183L37.9507 212.322C37.9507 212.322 77.443 154.262 77.7308 149.939C77.9911 146.109 60.643 112.797 59.9579 103.088C59.2179 92.612 64.2675 84.4997 69.8104 79.4707L102.67 93.4342C102.67 93.4342 99.2035 98.9839 93.7429 102.067C93.7429 102.067 110.591 140.573 109.638 152.412C108.672 164.32 69.8035 225.183 69.8035 225.183Z" fill="#37474F" />
                    <path d="M71.2149 219.126C66.6107 217.146 67.9604 217.646 63.3288 215.721C61.0609 214.775 46.1794 208.588 43.9115 208.081C43.8635 208.067 43.8293 208.15 43.8704 208.177C45.8505 209.39 60.8417 215.316 63.1301 216.221C67.796 218.057 66.4737 217.481 71.1601 219.27C71.2492 219.29 71.304 219.16 71.2149 219.126Z" fill="#263238" />
                    <path d="M99.1486 101.361C95.7229 102.094 92.3656 103.307 89.1385 104.609C89.0152 104.657 89.07 104.849 89.207 104.807C92.5643 103.828 95.9832 102.91 99.2788 101.752C99.5392 101.663 99.409 101.306 99.1486 101.361Z" fill="#263238" />
                    <path d="M95.2502 100.011C94.9282 100.573 94.6541 101.169 94.4075 101.772C94.2156 102.238 93.9758 102.738 93.9758 103.245C93.9758 103.341 94.106 103.368 94.1677 103.307C94.5514 102.93 94.7501 102.382 94.9899 101.916C95.2708 101.375 95.5585 100.833 95.8257 100.285C96.0039 99.9221 95.4489 99.6617 95.2502 100.011Z" fill="#263238" />
                    <path d="M95.6475 96.9212C95.8462 96.4142 96.0517 95.914 96.2641 95.407C96.4834 94.8863 96.7369 94.3793 96.9219 93.8449C96.9493 93.7627 97.0863 93.8175 97.0521 93.8997C96.8534 94.4067 96.7232 94.948 96.5587 95.4687C96.3943 95.9894 96.2299 96.5101 96.0517 97.0308C95.7297 97.9969 95.3392 98.9561 94.9212 99.8879C95.4556 99.8811 96.0106 99.8605 96.4971 99.6139C97.0247 99.3467 97.3467 98.7848 97.607 98.2778C97.8948 97.7091 98.162 97.1336 98.4635 96.5718C98.7924 95.9483 99.1555 95.3385 99.3747 94.6671C99.4021 94.5848 99.5323 94.6396 99.5049 94.7219C99.0116 96.1059 98.5251 97.4967 97.7509 98.7711C97.4495 99.2713 97.2028 99.7989 96.6478 99.9907C96.0517 100.203 95.394 100.162 94.7705 100.114C94.6951 100.135 94.5924 100.087 94.6198 99.9907C94.9212 98.9698 95.2501 97.9215 95.6475 96.9212Z" fill="#263238" />
                    <path d="M94.2499 103.321C95.4147 105.794 96.4424 108.261 97.5386 110.727C98.6075 113.139 99.601 115.578 100.574 118.024C102.533 122.978 104.287 128.02 105.829 133.118C106.59 135.639 107.295 138.181 107.926 140.737C108.563 143.299 109.179 145.889 109.447 148.527C109.714 151.172 109.522 153.782 108.789 156.338C108.042 158.928 107.055 161.196 105.891 163.621C105.178 165.101 104.931 164.902 105.274 164.156C106.254 162.032 108.823 155.598 108.638 150.192C108.549 147.582 108.015 145.012 107.425 142.477C106.822 139.887 106.144 137.318 105.404 134.769C103.945 129.74 102.211 124.814 100.43 119.895C99.4297 117.14 98.3608 114.413 97.3468 111.659C96.3259 108.891 95.2708 106.397 94.1403 103.369C94.0992 103.293 94.2156 103.245 94.2499 103.321Z" fill="#263238" />
                    <path d="M70.0708 95.1471C70.6395 94.9347 71.4342 95.2841 72.0166 95.38C72.7634 95.5033 73.5171 95.5787 74.2708 95.6061C75.0176 95.6335 75.7644 95.5993 76.5112 95.5307C77.2512 95.4622 78.0117 95.3663 78.6558 94.9621C79.7452 94.2838 80.6496 93.0916 81.3895 92.057C82.198 90.9265 83.0408 89.6247 83.5204 88.3161C83.5478 88.2338 83.6643 88.2887 83.6437 88.3709C83.4039 89.1314 83.2258 89.9056 82.9174 90.6524C82.6297 91.3513 82.2597 92.0228 81.8692 92.6736C81.136 93.8795 80.2933 95.1745 79.0326 95.8939C77.7103 96.6476 76.0111 96.5996 74.5311 96.5174C73.6815 96.4694 72.832 96.3529 71.9961 96.1816C71.3931 96.0515 70.3791 95.9555 69.9954 95.428C69.9201 95.3321 69.9612 95.1882 70.0708 95.1471Z" fill="#263238" />
                    <path d="M47.0427 206.252C52.2773 198.331 57.416 190.342 62.4587 182.299C67.5152 174.234 72.4825 166.108 77.3814 157.941C78.553 155.989 79.9028 154.036 80.6564 151.871C81.4786 149.521 81.0127 147.239 80.2659 144.937C78.9024 140.716 77.2101 136.612 75.3739 132.577C73.5377 128.528 71.5576 124.547 69.6117 120.552C67.6796 116.592 65.631 112.611 64.1648 108.446C62.767 104.465 62.2326 100.34 63.3083 96.2157C64.3703 92.1184 66.6724 88.446 69.0773 85.0134C69.7145 84.109 70.3586 83.2114 70.9957 82.307C71.0437 82.2385 71.1465 82.3207 71.0985 82.3892C68.447 85.9657 65.8639 89.7547 64.3086 93.9547C63.5413 96.0307 63.0411 98.2163 62.9931 100.429C62.9452 102.677 63.3631 104.91 64.0277 107.055C65.3158 111.221 67.3507 115.167 69.2486 119.079C71.1876 123.081 73.1745 127.054 75.045 131.09C76.9223 135.146 78.6832 139.271 80.1289 143.505C80.7729 145.389 81.4923 147.362 81.4444 149.384C81.3964 151.597 80.3413 153.591 79.245 155.454C74.4832 163.58 69.5364 171.596 64.5347 179.572C59.5126 187.574 54.3876 195.522 49.1804 203.408C48.5227 204.402 47.8649 205.395 47.2072 206.389C47.1386 206.519 46.9605 206.375 47.0427 206.252Z" fill="#263238" />
                    <path d="M104.493 56.5044C107.46 63.0134 122.437 71.982 129.453 72.9481C134.503 73.6401 149.83 73.8799 155.085 73.0783C161.244 72.1396 156.537 55.5178 152.899 55.9426C142.896 57.1142 134.4 58.416 131.735 58.416C128.473 58.416 110.831 52.7497 108.7 51.955C103.5 50.0023 102.814 52.8114 104.493 56.5044Z" fill="#EB9481" />
                    <path d="M104.589 58.2241C108.344 63.7807 120.827 72.8658 120.827 72.8658L122.561 69.029L128.295 56.3468C128.295 56.3468 116.833 52.7291 109.289 51.119C108.268 50.8998 107.371 50.7696 106.59 50.7353C101.766 50.4681 101.348 53.4485 104.589 58.2241Z" fill="#3745A4" />
                    <path d="M104.589 58.2243C108.344 63.7809 120.827 72.866 120.827 72.866L122.561 69.0292C117.908 63.6233 110.721 55.4357 106.59 50.7287C101.766 50.4683 101.348 53.4487 104.589 58.2243Z" fill="#263238" />
                    <path d="M118.573 70.3037C119.525 67.9742 123.76 58.567 124.815 56.5938C124.89 56.4568 124.993 56.4705 124.931 56.6212C122.245 63.6714 119.71 68.0975 118.662 70.338C118.642 70.386 118.546 70.3585 118.573 70.3037Z" fill="#263238" />
                    <path d="M151.07 56.1207C157.161 55.3191 164.691 53.9556 171.063 56.662C172.316 57.1895 172.769 58.1282 172.769 58.1282C175.646 59.2929 175.962 60.999 175.962 60.999C178.312 62.9037 178.394 64.6988 178.394 64.6988C178.394 64.6988 181.758 66.1034 181.251 68.2753C180.689 70.7145 176.071 68.2685 172.707 68.474C165.006 68.9468 154.187 71.7765 151.981 72.1396L151.07 56.1207Z" fill="#EB9481" />
                    <path d="M164.286 63.301C166.554 63.2051 168.781 63.0544 171.056 63.2668C173.55 63.4997 175.907 64.1438 178.318 64.7399C178.394 64.7604 178.428 64.6576 178.353 64.6234C174.146 62.8557 168.754 62.3898 164.28 63.1983C164.177 63.2188 164.177 63.3079 164.286 63.301Z" fill="#263238" />
                    <path d="M163.327 58.6968C165.54 58.7242 169.432 58.8065 175.941 61.0743C175.961 61.0812 175.982 61.0469 175.961 61.0401C171.933 59.0052 167.801 58.2789 163.334 58.5941C163.19 58.6009 163.176 58.69 163.327 58.6968Z" fill="#263238" />
                    <path d="M162.855 56.2095C166.616 56.4014 168.966 57.0043 172.748 58.1417C172.769 58.1485 172.789 58.1143 172.762 58.1006C168.596 56.3534 166.89 56.1958 162.841 56.0794C162.704 56.0725 162.711 56.2027 162.855 56.2095Z" fill="#263238" />
                    <path d="M163.464 69.6387C162.485 70.0977 162.718 70.6116 164.595 71.0501C166.486 71.4954 174.242 71.6119 173.968 74.3183C173.701 77.0383 162.724 76.6889 159.662 75.7297C156.599 74.7773 151.981 72.1395 151.981 72.1395C154.133 71.7764 159.258 70.3992 163.464 69.6387Z" fill="#EB9481" />
                    <path d="M112.639 66.8779C112.591 68.0495 112.475 69.2417 112.311 70.4201C112.324 70.379 112.345 70.3379 112.359 70.2968C112.585 69.6802 112.811 69.0498 113.085 68.4537C113.098 68.4195 113.153 68.4332 113.146 68.4674C113.023 69.1115 112.797 69.7624 112.55 70.3722C112.434 70.6668 112.311 70.9545 112.187 71.2423C112.105 71.7699 112.009 72.2906 111.899 72.8045C111.694 73.7842 110.769 77.95 110.563 78.6557C110.522 78.8064 110.344 78.7722 110.351 78.6077C110.399 77.8404 111.18 73.4965 111.338 72.5167C111.639 70.6325 112.057 68.7072 112.557 66.8642C112.578 66.8162 112.646 66.8436 112.639 66.8779Z" fill="#263238" />
                    <path d="M105.5 98.0318C103.671 98.9773 101.314 100.437 90.6939 98.3401C90.0293 98.2031 89.3647 98.0455 88.6933 97.84C78.738 94.8459 66.7889 83.1366 66.1174 82.3144C66.1174 82.3144 81.9308 56.669 102.163 48.6048C104.664 47.6113 108.803 49.5297 111.098 51.9209C111.913 52.7773 113.695 59.0671 113.009 64.1646C112.324 69.2622 107.336 97.0932 105.5 98.0318Z" fill="#3745A4" />
                    <path d="M104.089 63.9385C104.144 64.4866 104.102 65.0279 104.034 65.5623C103.952 66.0967 103.849 66.6243 103.643 67.1381C103.582 66.59 103.63 66.0487 103.698 65.5143C103.774 64.9799 103.876 64.4523 104.089 63.9385Z" fill="white" />
                    <path d="M97.1891 81.4033C97.2439 81.9514 97.2028 82.4927 97.1343 83.0271C97.0521 83.5616 96.9493 84.0891 96.7438 84.603C96.6821 84.0549 96.7301 83.5136 96.7986 82.9792C96.8808 82.4448 96.9836 81.9172 97.1891 81.4033Z" fill="white" />
                    <path d="M85.4662 68.2002C85.521 68.7483 85.4799 69.2896 85.4114 69.824C85.3292 70.3584 85.2264 70.886 85.0209 71.3999C84.9592 70.8518 85.0072 70.3105 85.0757 69.7761C85.1511 69.2416 85.2607 68.7141 85.4662 68.2002Z" fill="white" />
                    <path d="M108.604 80.5127C108.659 81.0608 108.618 81.6021 108.549 82.1365C108.467 82.6709 108.364 83.1985 108.159 83.7124C108.097 83.1642 108.145 82.623 108.213 82.0886C108.296 81.5541 108.398 81.0266 108.604 80.5127Z" fill="white" />
                    <path d="M93.551 65.9395C94.0991 65.8846 94.6404 65.9258 95.1748 65.9943C95.7093 66.0765 96.2368 66.1793 96.7507 66.3848C96.2026 66.4465 95.6613 66.3985 95.1269 66.33C94.5925 66.2478 94.0649 66.145 93.551 65.9395Z" fill="white" />
                    <path d="M80.2454 78.5527C80.7935 78.4979 81.3348 78.539 81.8692 78.6076C82.4036 78.6898 82.9312 78.7926 83.445 78.9981C82.8969 79.0598 82.3556 79.0118 81.8212 78.9433C81.2868 78.8679 80.7592 78.7583 80.2454 78.5527Z" fill="white" />
                    <path d="M95.8943 92.208C96.4424 92.1532 96.9837 92.1943 97.5181 92.2628C98.0525 92.345 98.5801 92.4478 99.094 92.6534C98.5458 92.715 98.0046 92.6671 97.4701 92.5985C96.9357 92.5232 96.4082 92.4204 95.8943 92.208Z" fill="white" />
                    <path d="M76.1414 87.2476C76.6895 87.1928 77.2308 87.2339 77.7652 87.3024C78.2996 87.3846 78.8272 87.4874 79.341 87.6929C78.7929 87.7546 78.2516 87.7066 77.7172 87.6381C77.1828 87.5627 76.6552 87.4531 76.1414 87.2476Z" fill="white" />
                    <path d="M103.986 51.6607C104.534 51.6058 105.075 51.647 105.61 51.7155C106.144 51.7977 106.672 51.9005 107.186 52.106C106.638 52.1677 106.096 52.1197 105.562 52.0512C105.028 51.9758 104.5 51.8662 103.986 51.6607Z" fill="white" />
                    <path d="M100.115 56.0317C99.7653 56.4634 99.3542 56.8128 98.9294 57.1417C98.4978 57.4637 98.0524 57.7583 97.5386 57.9776C97.888 57.5459 98.2991 57.1965 98.7239 56.8676C99.1624 56.5525 99.6077 56.251 100.115 56.0317Z" fill="white" />
                    <path d="M79.0188 68.4536C78.6694 68.8853 78.2583 69.2347 77.8335 69.5636C77.4018 69.8856 76.9565 70.1802 76.4426 70.3995C76.7921 69.9678 77.2031 69.6184 77.6279 69.2895C78.0596 68.9675 78.5118 68.666 79.0188 68.4536Z" fill="white" />
                    <path d="M105.363 74.0586C105.014 74.4902 104.603 74.8397 104.178 75.1686C103.746 75.4906 103.301 75.7852 102.787 76.0044C103.136 75.5728 103.547 75.2234 103.972 74.8945C104.404 74.5793 104.849 74.2778 105.363 74.0586Z" fill="white" />
                    <path d="M88.3028 84.8018C87.9533 85.2334 87.5422 85.5828 87.1174 85.9117C86.6858 86.2337 86.2404 86.5283 85.7266 86.7476C86.076 86.3159 86.4871 85.9665 86.9119 85.6376C87.3435 85.3225 87.7889 85.021 88.3028 84.8018Z" fill="white" />
                    <path d="M111.899 59.3823C111.55 59.814 111.139 60.1634 110.714 60.4923C110.282 60.8143 109.837 61.1089 109.323 61.3282C109.673 60.8965 110.084 60.5471 110.509 60.2182C110.94 59.8962 111.386 59.6016 111.899 59.3823Z" fill="white" />
                    <path d="M111.543 71.8315C111.112 71.4821 110.762 71.071 110.433 70.6462C110.111 70.2146 109.817 69.7692 109.597 69.2554C110.029 69.6048 110.378 70.0159 110.707 70.4407C111.023 70.8792 111.324 71.3245 111.543 71.8315Z" fill="white" />
                    <path d="M73.5171 80.4097C73.0855 80.0602 72.736 79.6492 72.4072 79.2244C72.0851 78.7927 71.7905 78.3474 71.5713 77.8335C72.0029 78.1829 72.3524 78.594 72.6812 79.0188C73.0033 79.4505 73.2979 79.8958 73.5171 80.4097Z" fill="white" />
                    <path d="M106.918 90.6118C106.487 90.2624 106.137 89.8513 105.809 89.4265C105.487 88.9949 105.192 88.5495 104.973 88.0356C105.404 88.3851 105.754 88.7962 106.083 89.221C106.405 89.6595 106.699 90.1048 106.918 90.6118Z" fill="white" />
                    <path d="M90.18 61.5269C89.7483 61.1774 89.3989 60.7664 89.07 60.3416C88.748 59.9099 88.4534 59.4645 88.2341 58.9507C88.6658 59.3001 89.0152 59.7112 89.3441 60.136C89.6592 60.5745 89.9607 61.0199 90.18 61.5269Z" fill="white" />
                    <path d="M90.4746 96.4219C90.043 96.0725 89.6936 95.6614 89.3647 95.2366C89.0427 94.8049 88.7481 94.3596 88.5288 93.8457C88.9605 94.1951 89.3099 94.6062 89.6388 95.031C89.9608 95.4695 90.2554 95.9149 90.4746 96.4219Z" fill="white" />
                    <path d="M93.3182 75.8399C92.8865 75.4904 92.5371 75.0793 92.2082 74.6545C91.8862 74.2229 91.5916 73.7775 91.3723 73.2637C91.804 73.6131 92.1534 74.0242 92.4823 74.449C92.8043 74.8806 93.1058 75.3328 93.3182 75.8399Z" fill="white" />
                    <path d="M107.384 58.7517C104.808 58.2721 102.376 52.9347 102.068 49.3445C102.047 49.0978 103.274 47.1452 104.651 44.6992C105.48 43.2124 106.37 41.5337 107.069 39.951C107.213 39.6222 108.056 40.7116 108.056 40.7116L109.892 42.1161L115.956 46.7683C115.956 46.7683 113.503 49.6665 112.297 52.4414C112.201 52.6744 112.126 52.9005 112.078 53.1266C112.071 53.1608 112.064 53.1951 112.043 53.243C111.715 54.5585 109.872 59.2107 107.384 58.7517Z" fill="#EB9481" />
                    <path d="M112.091 53.1198C112.085 53.1541 112.078 53.1883 112.057 53.2363C111.728 53.1404 111.379 53.0102 111.009 52.8389C104.37 49.7283 107.295 40.8281 107.295 40.8281L109.892 42.1162L115.956 46.7684C115.956 46.7684 113.503 49.6666 112.297 52.4415C112.208 52.6676 112.139 52.8937 112.091 53.1198Z" fill="#263238" />
                    <path d="M122.931 27.8032C122.931 27.8032 125.966 29.7285 125.986 33.1543C126.007 36.5801 124.644 39.9305 124.328 40.0469C124.013 40.1634 122.931 27.8032 122.931 27.8032Z" fill="#263238" />
                    <path d="M107.871 29.585C106.048 33.1889 106.137 44.5214 108.419 47.4401C111.722 51.6744 118.08 53.1338 121.923 48.9475C125.644 44.8913 125.267 30.1194 122.629 27.3651C118.751 23.309 110.57 24.2613 107.871 29.585Z" fill="#EB9481" />
                    <path d="M117.545 38.6626C117.538 38.6352 117.484 38.7037 117.49 38.7311C117.532 39.5053 117.449 40.396 116.757 40.6701C116.737 40.677 116.737 40.7181 116.764 40.7112C117.614 40.5742 117.71 39.3889 117.545 38.6626Z" fill="#263238" />
                    <path d="M116.839 37.8749C115.592 37.8064 115.558 40.3072 116.709 40.362C117.84 40.4237 117.881 37.9297 116.839 37.8749Z" fill="#263238" />
                    <path d="M121.773 38.6352C121.779 38.6078 121.834 38.6695 121.834 38.7038C121.8 39.478 121.882 40.3687 122.581 40.6359C122.602 40.6428 122.602 40.6839 122.574 40.677C121.718 40.5468 121.615 39.3615 121.773 38.6352Z" fill="#263238" />
                    <path d="M122.478 37.8405C123.725 37.7652 123.78 40.2591 122.629 40.3277C121.492 40.3962 121.437 37.9022 122.478 37.8405Z" fill="#263238" />
                    <path d="M116.058 35.9771C116.401 35.8948 116.703 35.7647 117.031 35.655C117.401 35.5249 117.71 35.4632 117.956 35.1343C118.087 34.9562 118.039 34.641 117.881 34.4971C117.511 34.1614 117.018 34.2025 116.565 34.3395C116.072 34.4903 115.73 34.7301 115.442 35.1549C115.168 35.5591 115.606 36.0798 116.058 35.9771Z" fill="#263238" />
                    <path d="M123.342 37.0801C122.999 37.0185 122.691 36.902 122.355 36.8061C121.978 36.6965 121.663 36.6485 121.403 36.3333C121.259 36.162 121.293 35.8469 121.444 35.6893C121.793 35.333 122.287 35.3536 122.753 35.4632C123.253 35.5865 123.602 35.8058 123.917 36.2168C124.212 36.6211 123.794 37.1624 123.342 37.0801Z" fill="#263238" />
                    <path d="M115.784 45.9873C115.969 46.1723 116.147 46.4258 116.428 46.4532C116.696 46.4806 117.011 46.3642 117.264 46.2751C117.292 46.2682 117.312 46.2957 117.299 46.3162C117.093 46.6108 116.668 46.789 116.312 46.7205C115.962 46.6519 115.798 46.3505 115.716 46.0284C115.702 45.9736 115.764 45.9599 115.784 45.9873Z" fill="#263238" />
                    <path d="M120.272 42.6846C120.272 42.6846 120.306 43.8425 120.245 44.3769C120.238 44.4249 118.724 44.1302 117.093 44.4865C116.846 44.5413 116.874 44.3426 117.155 44.2125C117.723 43.9521 118.436 43.7054 119.834 43.8562C119.888 43.7123 119.751 42.0748 119.834 42.0816C120.128 42.0885 120.69 42.3488 121.026 42.4927C121.026 40.081 120.642 37.6898 120.676 35.2917C120.676 35.2095 120.807 35.1958 120.82 35.2712C121.403 37.7515 121.457 40.5263 121.526 43.0134C121.54 43.3218 120.478 42.7942 120.272 42.6846Z" fill="#263238" />
                    <path d="M118.731 43.9659C118.731 43.9659 118.189 45.3225 117.292 45.6857C116.257 46.1036 115.901 45.165 116.956 44.3359C117.518 43.9043 118.731 43.9659 118.731 43.9659Z" fill="#263238" />
                    <path d="M117.655 45.4733C117.538 45.5624 117.422 45.6378 117.292 45.6857C116.339 46.0694 115.962 45.3089 116.73 44.5415C117.25 44.5826 117.819 44.7745 117.655 45.4733Z" fill="#FF99BA" />
                    <path d="M107.35 39.2797C108.604 39.6634 110.043 35.895 110.454 34.4493C110.81 33.175 111.228 29.1257 111.29 28.8448C111.352 28.5707 116.751 32.4281 119.909 31.5032C123.068 30.5782 125.178 27.7485 125.219 26.4262C125.26 25.1038 121.341 21.7466 117.95 21.5753C114.558 21.404 109.968 25.7136 109.968 25.7136C109.968 25.7136 111.53 23.85 111.475 23.6993C111.42 23.5485 109.228 24.4255 108.823 25.9808C108.823 25.9808 109.255 24.0213 109.091 23.987C108.926 23.9528 107.22 25.6314 107.604 26.8989C107.604 26.8989 105.63 28.605 105.452 30.4755C105.267 32.3528 105.877 38.8275 107.35 39.2797Z" fill="#263238" />
                    <path d="M122.149 30.8453C121.19 31.2838 120.224 31.7703 119.169 31.9142C118.025 32.0649 116.833 31.7771 115.764 31.366C114.674 30.9481 113.681 30.3383 112.777 29.5983C111.989 28.9475 111.283 28.1664 110.44 27.584C110.228 27.4401 109.988 27.7416 110.111 27.9403C111.393 29.8587 113.66 31.4688 115.839 32.1608C118.134 32.8871 120.3 32.3801 122.156 30.8727C122.17 30.8659 122.163 30.8385 122.149 30.8453Z" fill="#263238" />
                    <path d="M108.659 38.9439C108.659 38.9439 106.713 34.9974 104.959 35.6346C103.205 36.2718 104.288 41.7324 106.076 42.7259C107.864 43.7262 108.823 42.0887 108.823 42.0887L108.659 38.9439Z" fill="#EB9481" />
                    <path d="M105.309 37.1897C105.281 37.1829 105.267 37.224 105.288 37.2377C106.535 37.9845 107.049 39.3274 107.343 40.6772C107.021 40.1222 106.528 39.7728 105.795 40.1427C105.754 40.1633 105.781 40.225 105.822 40.2181C106.384 40.1839 106.768 40.3414 107.063 40.8348C107.275 41.1842 107.391 41.6021 107.528 41.9858C107.57 42.116 107.796 42.0817 107.775 41.9379C107.775 41.9241 107.768 41.9173 107.768 41.9036C108.063 40.225 107.104 37.6419 105.309 37.1897Z" fill="#263238" />
                    <path d="M95.8122 56.5664C94.4693 64.3292 102.856 90.4816 108.248 95.3667C116.271 102.629 131.105 107.405 136.483 108.96C138.826 109.639 145.308 93.1537 142.937 92.0643C137.86 89.7416 122.088 84.8222 120.601 83.5547C119.114 82.294 110.05 69.2486 106.021 61.7325C100.622 51.6401 96.4905 52.6405 95.8122 56.5664Z" fill="#EB9481" />
                    <path d="M138.943 90.6118C138.943 90.6118 145.938 92.3932 150.46 93.7772C152.982 94.5446 157.188 96.2575 158.785 97.6689C161.169 99.786 169.788 110.146 167.322 112.29C165.088 114.229 158.812 104.383 158.812 104.383C158.812 104.383 166.02 113.756 162.903 115.599C159.785 117.442 154.174 105.377 154.174 105.377C154.174 105.377 161.368 115.175 157.846 116.565C155.188 117.614 149.487 106.973 149.487 106.973C149.487 106.973 155.613 115.435 152.927 116.634C149.96 117.956 144.081 108.467 144.081 108.467C136.737 110.365 132.468 108.261 129.604 106.405C128.912 105.966 138.943 90.6118 138.943 90.6118Z" fill="#EB9481" />
                    <path d="M156.524 100.985C157.408 102.054 158.312 103.136 159.107 104.281C159.895 105.425 160.642 106.603 161.32 107.816C162.985 110.796 163.56 112.92 163.512 112.79C162.334 109.776 159.573 105.63 158.785 104.486C157.997 103.342 157.271 102.157 156.483 101.012C156.462 100.985 156.503 100.958 156.524 100.985Z" fill="#263238" />
                    <path d="M152.337 103.76C153.859 104.966 157.044 109.454 158.278 112.455C158.333 112.578 158.264 112.571 158.189 112.455C157.223 110.968 153.338 105.213 152.303 103.781C152.283 103.76 152.317 103.739 152.337 103.76Z" fill="#263238" />
                    <path d="M148.316 105.493C150.076 107.233 151.549 109.611 152.714 112.358C152.769 112.482 152.666 112.461 152.598 112.345C151.18 110.036 150.083 108.213 148.247 105.548C148.213 105.514 148.274 105.452 148.316 105.493Z" fill="#263238" />
                    <path d="M103.438 57.1349C97.1824 48.2895 93.4415 51.5646 94.6953 61.1704C95.8669 70.1528 99.0186 80.8549 99.0186 80.8549L114.805 73.2086C114.805 73.2086 107.439 62.8011 103.438 57.1349Z" fill="#3745A4" />
                    <path d="M107.261 60.6152C107.487 61.1222 107.604 61.643 107.706 62.1774C107.795 62.705 107.857 63.2462 107.816 63.7944C107.59 63.2873 107.467 62.7666 107.371 62.2322C107.282 61.7046 107.22 61.1634 107.261 60.6152Z" fill="white" />
                    <path d="M97.9226 65.9938C98.4296 65.7677 98.9572 65.6512 99.4848 65.5484C100.012 65.4594 100.554 65.3977 101.102 65.4388C100.595 65.6649 100.074 65.7882 99.5396 65.8842C99.0052 65.9732 98.4707 66.0349 97.9226 65.9938Z" fill="white" />
                    <path d="M98.3267 52.2358C98.128 52.7497 97.8403 53.2088 97.5388 53.6541C97.2236 54.0926 96.8879 54.5105 96.47 54.8737C96.6687 54.3598 96.9564 53.9008 97.2579 53.4554C97.5731 53.0169 97.9088 52.599 98.3267 52.2358Z" fill="white" />
                    <path d="M111.646 70.125C111.447 70.6389 111.16 71.0979 110.858 71.5433C110.543 71.9818 110.207 72.3997 109.789 72.7628C109.988 72.249 110.276 71.7899 110.577 71.3446C110.892 70.9129 111.228 70.4881 111.646 70.125Z" fill="white" />
                    <path d="M100.725 75.4901C100.211 75.2914 99.7518 75.0036 99.3065 74.7021C98.868 74.387 98.45 74.0512 98.0869 73.6333C98.6008 73.832 99.0598 74.1198 99.5052 74.4212C99.9437 74.7364 100.362 75.0721 100.725 75.4901Z" fill="white" />
                    <path d="M105.535 59.8001C106.377 60.958 107.247 62.0885 108.111 63.2259C107.891 62.6503 107.7 62.0748 107.528 61.4787C107.522 61.4513 107.563 61.4376 107.569 61.465C107.748 61.9172 107.939 62.3694 108.111 62.8216C108.193 63.0409 108.275 63.2601 108.357 63.4794C108.378 63.5273 108.392 63.5753 108.412 63.6233C109.091 64.5071 109.762 65.3978 110.406 66.3022C111.18 67.3779 111.927 68.481 112.681 69.5773C113.455 70.7078 114.195 72.037 115.01 73.1401C115.079 73.236 113.613 73.8252 113.476 73.9074C113.338 73.9828 113.243 73.8526 113.386 73.8047C113.523 73.7636 114.688 73.051 114.702 73.0373C113.948 71.9342 113.078 70.9133 112.29 69.8308C111.509 68.7551 110.721 67.6862 109.961 66.59C108.419 64.3701 107.001 62.068 105.473 59.8412C105.473 59.8001 105.514 59.7727 105.535 59.8001Z" fill="#263238" />
                    <path d="M95.0858 67.5288C95.3256 67.9947 95.586 68.4606 95.7984 68.9402C95.8875 69.1389 95.9697 69.3376 96.0587 69.5363C95.6956 67.8234 95.3462 66.1174 94.9968 64.4045C94.9899 64.384 95.0242 64.3771 95.031 64.3977C95.7573 67.1725 96.4835 69.9406 97.155 72.7291C97.799 75.3875 98.5664 78.0734 98.9364 80.7866C99.1556 80.7112 100.382 80.2042 100.416 80.2864C100.451 80.3686 98.8131 81.1428 98.7857 81.0743C97.895 78.4296 97.34 75.415 96.7302 72.6949C96.5589 71.9275 96.4013 71.1601 96.2369 70.3859C96.0587 69.92 95.8463 69.4747 95.6339 69.0293C95.4078 68.5497 95.2297 68.0564 95.0379 67.5631C95.0242 67.522 95.0721 67.4946 95.0858 67.5288Z" fill="#263238" />
                    <path d="M99.2722 78.2101C101.465 76.97 110.625 72.2287 112.681 71.338C112.825 71.2764 112.9 71.3517 112.756 71.434C106.274 75.2982 101.54 77.1893 99.327 78.2992C99.2653 78.3198 99.2105 78.2444 99.2722 78.2101Z" fill="#263238" />
                    <path d="M350.333 258.338H141.58L171.761 87.1519H380.514L350.333 258.338Z" fill="#C1C6E9" />
                    <path d="M243.209 69.4199H174.893L171.761 87.1517H244.874L243.209 69.4199Z" fill="#C1C6E9" />
                    <g opacity="0.1">
                        <path d="M350.333 258.338H141.58L171.761 87.1519H380.514L350.333 258.338Z" fill="#969696" />
                        <path d="M243.209 69.4199H174.893L171.761 87.1517H244.874L243.209 69.4199Z" fill="#969696" />
                    </g>
                    <path d="M167.52 76.6552C167.253 75.6617 167.191 74.6682 167.178 73.6748C167.185 72.6813 167.246 71.6878 167.52 70.6943C167.794 71.6878 167.856 72.6813 167.863 73.6748C167.849 74.6682 167.788 75.6617 167.52 76.6552Z" fill="#0C112E" />
                    <path d="M161.45 78.4092C160.717 77.683 160.169 76.8539 159.662 75.9975C159.175 75.1342 158.73 74.2435 158.469 73.2432C159.203 73.9694 159.751 74.7985 160.258 75.6549C160.737 76.5251 161.183 77.4158 161.45 78.4092Z" fill="#0C112E" />
                    <path d="M157.065 82.9653C156.072 82.7049 155.181 82.2596 154.311 81.7731C153.454 81.2661 152.625 80.718 151.899 79.9849C152.892 80.2452 153.783 80.6906 154.653 81.177C155.51 81.684 156.339 82.239 157.065 82.9653Z" fill="#0C112E" />
                    <path d="M155.551 89.1043C154.557 89.3715 153.564 89.4332 152.57 89.4469C151.577 89.44 150.583 89.3784 149.59 89.1043C150.583 88.8302 151.577 88.7686 152.57 88.7617C153.564 88.7686 154.557 88.8302 155.551 89.1043Z" fill="#0C112E" />
                    <path d="M157.312 95.1748C156.585 95.9079 155.756 96.456 154.9 96.9631C154.037 97.4495 153.146 97.8949 152.146 98.1552C152.872 97.4221 153.701 96.874 154.557 96.367C155.421 95.8805 156.311 95.4352 157.312 95.1748Z" fill="#0C112E" />
                    <path d="M161.861 99.5532C161.601 100.547 161.155 101.437 160.669 102.308C160.162 103.164 159.614 103.993 158.881 104.719C159.141 103.726 159.586 102.835 160.073 101.965C160.587 101.109 161.135 100.279 161.861 99.5532Z" fill="#0C112E" />
                    <path d="M168 101.067C168.267 102.061 168.329 103.054 168.343 104.048C168.336 105.041 168.274 106.035 168 107.028C167.726 106.035 167.664 105.041 167.657 104.048C167.671 103.054 167.726 102.061 168 101.067Z" fill="#0C112E" />
                    <path d="M174.071 99.3135C174.804 100.04 175.352 100.869 175.859 101.725C176.345 102.589 176.791 103.479 177.051 104.48C176.318 103.753 175.77 102.924 175.263 102.068C174.776 101.198 174.331 100.307 174.071 99.3135Z" fill="#0C112E" />
                    <path d="M178.448 94.7568C179.442 95.0172 180.333 95.4625 181.203 95.949C182.059 96.456 182.888 97.0041 183.615 97.7373C182.621 97.4769 181.73 97.0316 180.86 96.5451C180.004 96.0381 179.175 95.49 178.448 94.7568Z" fill="#0C112E" />
                    <path d="M179.963 88.618C180.956 88.3508 181.95 88.2891 182.943 88.2754C183.937 88.2822 184.93 88.3439 185.924 88.618C184.93 88.892 183.937 88.9537 182.943 88.9605C181.95 88.9537 180.956 88.892 179.963 88.618Z" fill="#0C112E" />
                    <path d="M178.209 82.5473C178.935 81.8142 179.764 81.2661 180.62 80.7591C181.484 80.2726 182.374 79.8273 183.375 79.5669C182.649 80.3 181.819 80.8481 180.963 81.3551C180.093 81.8416 179.202 82.287 178.209 82.5473Z" fill="#0C112E" />
                    <path d="M173.653 78.1695C173.913 77.176 174.358 76.2853 174.845 75.4152C175.352 74.5587 175.9 73.7297 176.633 73.0034C176.373 73.9969 175.927 74.8876 175.441 75.7577C174.934 76.6142 174.386 77.4432 173.653 78.1695Z" fill="#0C112E" />
                    <path d="M350.025 258.338H140.82L111.118 93.3662H320.324L350.025 258.338Z" fill="#C1C6E9" />
                    <path d="M183.615 194.214C188.416 194.214 192.309 190.321 192.309 185.519C192.309 180.717 188.416 176.825 183.615 176.825C178.813 176.825 174.92 180.717 174.92 185.519C174.92 190.321 178.813 194.214 183.615 194.214Z" fill="#0C112E" />
                    <path d="M252.349 194.214C257.151 194.214 261.044 190.321 261.044 185.519C261.044 180.717 257.151 176.825 252.349 176.825C247.547 176.825 243.655 180.717 243.655 185.519C243.655 190.321 247.547 194.214 252.349 194.214Z" fill="#0C112E" />
                    <path d="M230.472 195.605L229.993 194.694C229.952 194.611 225.457 186.307 216.42 186.307C208.177 186.307 206.17 194.125 206.088 194.461L205.841 195.454L203.847 194.975L204.087 193.974C204.108 193.878 206.533 184.252 216.42 184.252C226.724 184.252 231.61 193.351 231.815 193.741L232.295 194.653L230.472 195.605Z" fill="#0C112E" />
                    <path d="M336.144 184.519C336.589 184.423 337.035 184.321 337.48 184.204" stroke="#263238" stroke-miterlimit="10" />
                    <path d="M340.104 183.43C350.587 179.888 359.364 171.645 360.186 162.012C362.008 140.772 336.137 129.042 338.809 104.493C341.358 81.0814 365.914 79.4096 375.759 82.6436C386.633 86.2201 382.906 96.6687 373.06 95.3189C355.993 92.9826 345.263 74.4286 353.369 53.3806C359.425 37.6563 374.519 31.7229 380.651 29.9141" stroke="#263238" stroke-miterlimit="10" stroke-dasharray="4 4" />
                    <path d="M381.988 29.5578C382.837 29.3386 383.317 29.2495 383.317 29.2495" stroke="#263238" stroke-miterlimit="10" />
                    <path d="M394.183 25.4607C392.436 20.048 380.734 21.9938 383.015 29.0646C385.304 36.1423 395.931 30.8803 394.183 25.4607Z" fill="#263238" />
                    <path d="M376.65 23.2817C376.739 20.9042 380.042 19.0817 384.715 19.9244C389.387 20.7672 393.786 23.912 393.786 23.912C393.786 23.912 389.168 26.7349 384.447 27.235C379.727 27.7283 376.561 25.666 376.65 23.2817Z" fill="#EBEBEB" />
                    <path d="M393.779 23.9121C391.354 23.9258 388.935 23.8505 386.51 23.7751C384.091 23.6723 381.666 23.5764 379.254 23.3777C381.679 23.3572 384.098 23.4394 386.523 23.5147C388.942 23.6175 391.367 23.7134 393.779 23.9121Z" fill="#263238" />
                    <path d="M381.344 21.1782C382.042 21.4934 382.693 21.8908 383.344 22.2813C383.981 22.6993 384.625 23.1104 385.215 23.6037C384.516 23.2885 383.865 22.8911 383.214 22.5006C382.577 22.0826 381.933 21.6715 381.344 21.1782Z" fill="#263238" />
                    <path d="M387.695 23.686C387.078 24.2068 386.414 24.6453 385.749 25.0906C385.071 25.5085 384.393 25.9333 383.666 26.2759C384.283 25.7552 384.948 25.3167 385.612 24.8714C386.29 24.4534 386.969 24.0286 387.695 23.686Z" fill="#263238" />
                    <path d="M388.401 22.3496C388.764 22.5072 389.065 22.7401 389.367 22.9662C389.654 23.2129 389.942 23.4596 390.175 23.7816C389.812 23.624 389.511 23.391 389.209 23.1649C388.921 22.9114 388.627 22.6716 388.401 22.3496Z" fill="#263238" />
                    <path d="M381.104 37.3755C382.563 39.2529 386.311 38.8007 389.607 35.3886C392.902 31.9765 394.629 26.8516 394.629 26.8516C394.629 26.8516 389.23 27.2627 385.112 29.6196C380.994 31.9697 379.638 35.4914 381.104 37.3755Z" fill="#EBEBEB" />
                    <path d="M394.629 26.8447C392.649 28.2493 390.737 29.7292 388.812 31.2092C386.907 32.7097 385.002 34.2033 383.152 35.7723C385.132 34.3677 387.044 32.8878 388.969 31.4079C390.874 29.9142 392.786 28.4206 394.629 26.8447Z" fill="#263238" />
                    <path d="M386.14 36.3344C386.523 35.6698 386.818 34.964 387.119 34.2652C387.393 33.5526 387.674 32.8469 387.859 32.1001C387.476 32.7647 387.181 33.4704 386.88 34.1693C386.606 34.8818 386.331 35.5944 386.14 36.3344Z" fill="#263238" />
                    <path d="M389.819 30.5858C389.017 30.5242 388.216 30.5584 387.421 30.5858C386.626 30.6406 385.825 30.6886 385.037 30.8393C385.838 30.901 386.64 30.8667 387.435 30.8393C388.236 30.7845 389.031 30.7366 389.819 30.5858Z" fill="#263238" />
                    <path d="M391.176 31.2638C391.381 30.9281 391.484 30.5649 391.6 30.2018C391.689 29.8318 391.778 29.4618 391.778 29.0713C391.573 29.407 391.47 29.7701 391.354 30.1333C391.265 30.4964 391.176 30.8664 391.176 31.2638Z" fill="#263238" />
                    <path d="M394.183 25.4605C393.108 25.8099 391.95 25.2138 391.6 24.1381C391.251 23.0624 391.847 21.9045 392.923 21.5551C393.998 21.2057 395.156 21.8017 395.506 22.8774C395.855 23.96 395.259 25.1179 394.183 25.4605Z" fill="#455A64" />
                    <path d="M395.444 29.3726C394.368 29.722 393.21 29.1259 392.861 28.0502C392.512 26.9745 393.108 25.8166 394.183 25.4672C395.259 25.1178 396.417 25.7139 396.766 26.7896C397.116 27.8652 396.52 29.0232 395.444 29.3726Z" fill="#455A64" />
                    <path d="M170.816 27.6253C169.836 37.005 161.429 43.8155 152.056 42.8357C148.267 42.4383 144.897 40.8282 142.286 38.4302L133.742 39.684L138.018 32.298C136.983 29.7767 136.544 26.9675 136.846 24.0762C137.826 14.6964 146.233 7.88596 155.605 8.86573C164.985 9.8455 171.803 18.2455 170.816 27.6253Z" fill="white" />
                    <path d="M170.816 27.6252C170.46 30.7427 169.322 33.7985 167.37 36.2787C166.924 36.9296 166.342 37.4709 165.821 38.0601C165.225 38.574 164.677 39.1427 164.019 39.588C162.772 40.5472 161.368 41.3009 159.902 41.8833C158.442 42.4999 156.873 42.7877 155.304 42.9795C154.516 43.0206 153.721 43.096 152.933 43.0275C152.139 43.0069 151.351 42.9247 150.57 42.7808C147.445 42.2122 144.486 40.7528 142.122 38.6082L142.32 38.6699L133.783 39.9786L133.167 40.0745L133.482 39.5264L137.73 32.1267L137.709 32.4213C135.64 27.5498 136.106 21.7397 138.764 17.204C140.087 14.9293 141.937 12.9698 144.116 11.5104C146.294 10.0441 148.816 9.12603 151.406 8.7766C153.995 8.43402 156.654 8.66698 159.127 9.48916C161.594 10.3182 163.862 11.7159 165.712 13.5247C169.48 17.1081 171.371 22.4866 170.816 27.6252ZM170.816 27.6252C171.337 22.4797 169.405 17.1355 165.629 13.6001C163.759 11.8324 161.491 10.4895 159.045 9.71526C156.592 8.94789 153.975 8.7629 151.447 9.14658C148.925 9.53712 146.479 10.4758 144.396 11.9352C142.314 13.4014 140.56 15.313 139.285 17.5055C137.99 19.698 137.319 22.2125 137.12 24.7339C136.963 27.2621 137.374 29.8246 138.319 32.1746L138.381 32.3254L138.299 32.4624L133.996 39.8347L133.687 39.3825L142.238 38.1835L142.355 38.1697L142.437 38.252C144.698 40.3759 147.555 41.8559 150.611 42.4657C151.371 42.6164 152.146 42.7192 152.927 42.7466C153.708 42.8288 154.482 42.774 155.263 42.7397C156.811 42.5821 158.367 42.3218 159.826 41.7326C161.286 41.1844 162.704 40.465 163.944 39.5127C164.602 39.081 165.15 38.5192 165.746 38.0053C166.273 37.4229 166.849 36.8885 167.301 36.2445C169.281 33.7848 170.439 30.7427 170.816 27.6252Z" fill="#263238" />
                    <path d="M145.486 33.8122C145.486 32.7913 146.192 32.0582 147.158 32.0582C148.179 32.0582 148.829 32.7913 148.829 33.8122C148.829 34.8056 148.179 35.5662 147.158 35.5662C146.164 35.5662 145.486 34.8056 145.486 33.8122ZM146.192 29.7629L145.794 16.1694H148.514L148.117 29.7629H146.192Z" fill="#EF476F" />
                    <path d="M152.002 33.8122C152.002 32.7913 152.707 32.0582 153.673 32.0582C154.694 32.0582 155.345 32.7913 155.345 33.8122C155.345 34.8056 154.694 35.5662 153.673 35.5662C152.68 35.5662 152.002 34.8056 152.002 33.8122ZM152.707 29.7629L152.31 16.1694H155.03L154.633 29.7629H152.707Z" fill="#EF476F" />
                    <path d="M158.511 33.8122C158.511 32.7913 159.216 32.0582 160.183 32.0582C161.203 32.0582 161.854 32.7913 161.854 33.8122C161.854 34.8056 161.203 35.5662 160.183 35.5662C159.189 35.5662 158.511 34.8056 158.511 33.8122ZM159.223 29.7629L158.826 16.1694H161.546L161.149 29.7629H159.223Z" fill="#EF476F" />
                </g>
                <defs>
                    <clipPath id="clip0_286_6076">
                        <rect width="420" height="275.432" fill="white" />
                    </clipPath>
                </defs>
            </svg>