<svg width="580" height="353" viewBox="0 0 580 353" fill="none" xmlns="http://www.w3.org/2000/svg">
<g clip-path="url(#clip0_2276_5250)">
<path d="M531.586 90.3033C499.572 76.6457 461.646 82.7925 428.127 103.507C407.07 116.52 381.112 121.051 356.274 116.166C355.933 116.098 355.593 116.032 355.253 115.963C324.127 109.837 299.153 89.3274 287.47 62.2148C275.958 35.496 256.403 14.4075 229.611 2.9758C158.261 -27.467 62.669 22.0354 16.1 113.541C-30.469 205.046 -10.3791 303.902 60.9704 334.345C97.2528 349.823 139.798 344.63 178.984 323.755C216.077 303.996 259.494 296.805 301.358 305.443C305.858 306.371 310.358 307.31 314.858 308.254C340.374 313.616 363.562 325.113 384.234 339.824C389.098 343.286 394.384 346.268 400.089 348.702C456.945 372.958 532.471 334.779 568.784 263.426C605.09 192.07 588.438 114.562 531.586 90.3033Z" fill="#EBEDFF"/>
<path d="M226.121 153.38C206.938 138.318 163.233 170.088 172.393 199.332C176.059 211.039 209.129 196.808 209.129 196.808L227.959 189.815C241.522 188.089 235.332 172.412 226.121 153.38Z" fill="#0C112E"/>
<path d="M130.096 133.198C131.573 125.832 140.247 128.724 140.247 128.724C140.247 128.724 135.788 120.657 142.477 116.646C146.807 114.05 152.427 121.19 152.427 121.19C152.427 121.19 150.591 118.072 148.805 114.58C147.252 111.544 148.321 107.831 151.233 106.059C151.266 106.038 151.299 106.018 151.33 105.999C154.183 104.255 157.898 104.939 159.922 107.602C162.159 110.548 164.1 113.322 164.1 113.322C161.912 103.385 170.748 97.8124 176.625 108.233C180.531 115.157 203.949 139.682 203.949 139.682L216.191 148.584C217.733 156.908 229.936 170.727 229.936 170.727C220.47 192.396 208.544 201.666 186.179 204.111C186.179 204.111 175.109 194.714 168.508 187.698C159.293 177.903 128.618 140.567 130.096 133.198Z" fill="white"/>
<path d="M186.182 204.862C186.004 204.862 185.834 204.8 185.698 204.684C185.587 204.589 174.519 195.18 167.964 188.215C159.569 179.287 127.753 141.081 129.362 133.054C129.794 130.905 130.832 129.341 132.451 128.402C134.621 127.146 137.304 127.342 138.957 127.643C137.958 124.98 136.653 119.268 142.09 116.008C144.536 114.542 147.234 115.684 149.338 117.21C148.949 116.487 148.539 115.712 148.135 114.922C146.418 111.565 147.607 107.391 150.838 105.423L151.328 106.002L150.936 105.364C154.134 103.406 158.251 104.175 160.514 107.152C161.43 108.359 162.303 109.542 163.011 110.52C162.944 106.573 164.612 103.36 167.503 102.256C170.132 101.257 174.076 102.199 177.274 107.867C181.007 114.487 203.266 137.888 204.44 139.121L216.628 147.984C216.783 148.098 216.888 148.265 216.924 148.453C218.412 156.475 230.374 170.101 230.495 170.238C230.688 170.454 230.737 170.765 230.618 171.03C220.928 193.214 208.905 202.381 186.259 204.859C186.236 204.859 186.207 204.862 186.182 204.862ZM130.829 133.344C129.503 139.952 158.665 176.145 169.053 187.191C175.011 193.523 184.755 201.913 186.421 203.336C208.086 200.892 219.705 192.049 229.063 170.863C227.114 168.607 217.156 156.797 215.519 149.019L203.511 140.286C203.475 140.261 203.441 140.23 203.411 140.199C202.453 139.195 179.884 115.527 175.976 108.601C173.693 104.551 170.65 102.652 168.042 103.65C165.611 104.579 163.729 108.143 164.834 113.16C164.911 113.507 164.731 113.862 164.404 114.004C164.079 114.145 163.696 114.04 163.492 113.746C163.472 113.718 161.533 110.95 159.329 108.05C157.535 105.688 154.265 105.078 151.724 106.632L151.613 106.699C149.057 108.258 148.109 111.572 149.474 114.238C151.23 117.673 153.055 120.778 153.073 120.809C153.274 121.149 153.176 121.584 152.852 121.805C152.527 122.029 152.087 121.959 151.843 121.651C151.791 121.584 146.578 115.059 142.865 117.284C136.879 120.871 140.739 128.057 140.906 128.361C141.055 128.631 141.022 128.963 140.826 129.2C140.63 129.436 140.311 129.526 140.018 129.431C139.976 129.418 135.934 128.109 133.203 129.694C131.97 130.411 131.172 131.639 130.829 133.344Z" fill="#0C112E"/>
<path d="M164.103 113.322C164.103 113.322 172.439 127.406 178.952 133.782L164.103 113.322Z" fill="white"/>
<path d="M178.952 134.528C178.764 134.528 178.574 134.459 178.43 134.314C171.921 127.944 163.804 114.279 163.461 113.703C163.25 113.348 163.368 112.89 163.724 112.679C164.079 112.47 164.537 112.586 164.748 112.941C164.831 113.08 173.111 127.012 179.477 133.247C179.773 133.535 179.776 134.008 179.488 134.304C179.338 134.453 179.145 134.528 178.952 134.528Z" fill="#0C112E"/>
<path d="M152.427 121.192C152.427 121.192 157.782 131.183 167.318 140.067L152.427 121.192Z" fill="white"/>
<path d="M167.318 140.813C167.135 140.813 166.952 140.747 166.808 140.613C157.292 131.746 151.822 121.645 151.767 121.545C151.572 121.182 151.711 120.729 152.074 120.534C152.437 120.338 152.893 120.474 153.086 120.84C153.14 120.94 158.502 130.83 167.827 139.522C168.129 139.802 168.147 140.276 167.864 140.577C167.717 140.734 167.519 140.813 167.318 140.813Z" fill="#0C112E"/>
<path d="M140.247 128.724C140.247 128.724 146.145 139.782 154.121 146.86L140.247 128.724Z" fill="white"/>
<path d="M154.121 147.609C153.943 147.609 153.766 147.547 153.624 147.421C145.638 140.333 139.83 129.534 139.588 129.076C139.394 128.713 139.531 128.258 139.897 128.065C140.265 127.872 140.713 128.008 140.908 128.374C140.968 128.484 146.837 139.399 154.618 146.305C154.927 146.58 154.955 147.051 154.68 147.359C154.533 147.524 154.327 147.609 154.121 147.609Z" fill="#0C112E"/>
<path d="M222.357 161.881C220.565 153.086 224.788 122.044 216.096 119.965C198.522 115.761 201.022 149.904 201.022 149.904" fill="white"/>
<path d="M222.357 162.629C222.009 162.629 221.698 162.385 221.626 162.032C221.044 159.182 221.077 154.236 221.116 148.514C221.191 137.317 221.294 121.979 215.923 120.696C212.728 119.931 210.136 120.441 207.996 122.257C200.324 128.772 201.753 149.644 201.768 149.852C201.799 150.264 201.49 150.621 201.078 150.652C200.651 150.693 200.309 150.372 200.278 149.963C200.213 149.075 198.779 128.124 207.028 121.12C209.52 119.003 212.63 118.37 216.271 119.242C222.797 120.804 222.699 135.531 222.612 148.524C222.576 153.93 222.542 159.035 223.091 161.736C223.173 162.14 222.913 162.534 222.506 162.616C222.457 162.624 222.406 162.629 222.357 162.629Z" fill="#0C112E"/>
<path d="M376.389 161.798C376.389 161.798 358.097 159.673 340.422 163.844C322.748 168.017 272.084 213.365 272.084 213.365L226.121 153.377C235.834 175.561 193.514 209.948 172.393 199.332C172.393 199.332 222.215 281.581 269.28 282.404C316.345 283.228 371.044 194.927 371.044 194.927L376.389 161.798Z" fill="#3745A4"/>
<path d="M457.121 164.152C474.733 164.96 484.524 180.83 481.473 198.185L463.689 312.739C462.038 337.463 307.898 327.194 309.548 302.471L341.128 184.07C344.333 170.996 356.057 161.801 369.527 161.801L457.121 164.152Z" fill="#3745A4"/>
<path d="M309.551 303.217C309.487 303.217 309.423 303.209 309.358 303.191C308.959 303.086 308.722 302.676 308.828 302.278L340.407 183.876C340.513 183.478 340.925 183.241 341.321 183.346C341.72 183.452 341.957 183.861 341.851 184.26L310.272 302.661C310.182 302.995 309.881 303.217 309.551 303.217Z" fill="#0C112E"/>
<path d="M411.199 130.184C412.363 134.067 415.329 137.538 419.229 138.624C422.772 139.614 426.523 138.624 430.058 137.63C435.336 136.164 449.882 119.988 452.943 115.436C458.141 107.687 458.174 97.1814 454.341 88.6779C450.536 80.2387 448.594 80.231 440.536 75.6872C440.477 75.646 440.405 75.6203 440.346 75.5791L436.754 78.3836C429.911 87.8108 423.431 97.5031 417.337 107.432C416.405 108.958 415.473 110.491 414.623 112.066C413.527 114.06 412.551 116.098 411.83 118.241C410.525 122.082 410.048 126.302 411.199 130.184Z" fill="#0C112E"/>
<path d="M421.055 165.247C421.055 165.247 418.9 132.009 428.748 112.998L384.844 117.655L381.062 163.201C387.991 172.209 399.301 175.929 421.055 165.247Z" fill="white"/>
<path d="M398.329 172.551C390.889 172.551 385.035 169.592 380.47 163.656C380.357 163.51 380.303 163.325 380.318 163.139L384.1 117.593C384.128 117.236 384.409 116.95 384.767 116.911L428.67 112.254C428.941 112.229 429.211 112.35 429.366 112.576C429.52 112.802 429.538 113.096 429.412 113.34C419.778 131.945 421.781 164.866 421.802 165.198C421.822 165.499 421.657 165.782 421.384 165.915C412.386 170.336 404.766 172.551 398.329 172.551ZM381.829 162.972C389.774 173.081 402.011 173.66 420.28 164.794C420.071 160.636 418.967 131.716 427.471 113.886L385.534 118.334L381.829 162.972Z" fill="#0C112E"/>
<path d="M398.587 141.866C386.033 144.974 371.374 141.694 363.681 133.594C344.022 112.892 354.773 86.9804 365.728 70.3387C372.556 59.9672 385.112 54.9191 397.199 57.7699L407.835 60.276C424.245 64.1405 434.597 80.1313 431.775 96.7421C431.757 96.8553 431.737 96.966 431.719 97.0792C431.232 100.053 430.359 102.999 429.09 105.843C429.86 112.244 425.612 121.203 422.497 131.919" fill="white"/>
<path d="M388.968 143.757C378.886 143.757 368.949 140.224 363.141 134.106C343.479 113.402 353.357 87.7752 365.105 69.9242C372.092 59.316 385.058 54.1367 397.374 57.039L408.01 59.545C424.641 63.4636 435.405 79.8557 432.517 96.8628L432.463 97.1947C431.971 100.2 431.096 103.146 429.86 105.956C430.341 110.613 428.372 116.443 426.093 123.181C425.128 126.035 424.131 128.988 423.22 132.122C423.104 132.519 422.695 132.748 422.293 132.632C421.897 132.516 421.67 132.102 421.783 131.705C422.703 128.541 423.707 125.574 424.675 122.703C426.927 116.036 428.874 110.278 428.351 105.927C428.336 105.793 428.356 105.657 428.41 105.534C429.636 102.786 430.503 99.9015 430.985 96.9555L431.041 96.6158C433.799 80.3806 423.532 64.7372 407.667 61.0013L397.032 58.4953C385.323 55.7319 372.998 60.6591 366.356 70.7476C354.905 88.1457 345.24 113.085 364.227 133.079C371.588 140.832 385.961 144.223 398.409 141.143C398.806 141.043 399.215 141.287 399.315 141.688C399.416 142.09 399.171 142.494 398.77 142.594C395.577 143.381 392.266 143.757 388.968 143.757Z" fill="#0C112E"/>
<path d="M420.025 85.1741C420.37 84.8962 420.597 84.7521 420.656 84.7109C420.594 84.765 420.378 84.9271 420.025 85.1741Z" fill="#0C112E"/>
<path d="M363.365 71.4783C368.516 75.7674 375.583 76.7991 382.272 77.1387C383.539 77.2082 384.826 77.252 386.075 77.0976C388.966 82.156 395.067 84.4639 400.814 85.6011C403.347 86.1028 405.899 86.4553 408.476 86.6715C410.09 86.813 414.876 86.0926 416.076 87.0651C417.458 88.1792 416.058 90.2015 415.553 91.4134C414.693 93.5 414.137 95.6819 413.859 97.9203C413.221 103.017 413.599 107.162 414.098 109.98C414.237 110.785 414.618 111.5 415.136 112.066C415.986 110.492 416.918 108.956 417.85 107.432C423.943 97.5035 430.424 87.8113 437.267 78.384L440.858 75.5795C440.917 75.6207 440.99 75.6464 441.049 75.6876C441.435 73.3823 442.48 70.9637 442.66 68.6301C442.908 65.2698 442.516 61.8761 441.558 58.6471C440.977 56.7122 440.199 54.8391 439.223 53.0638C435.153 45.7155 427.991 40.2995 420.012 37.6803C412.523 35.2205 404.369 35.1253 396.643 36.7643C395.85 35.6322 394.743 34.6957 393.515 34.0447C391.358 32.8972 388.858 32.5164 386.396 32.416C379.77 32.1279 372.98 33.7077 367.468 37.4075C361.969 41.1074 357.858 47.0226 356.884 53.581C355.893 60.1394 358.262 67.2432 363.365 71.4783Z" fill="#0C112E"/>
<path d="M415.134 112.069C416.089 113.098 417.544 113.625 419.019 113.337C419.019 113.337 434.976 110.221 434.989 110.219C435.838 110.052 437.185 107.049 437.537 106.416C439.479 102.94 440.786 99.1115 441.494 95.2006C441.994 92.5119 442.195 89.7692 442.146 87.0367C442.089 83.8283 441.075 80.7279 440.913 77.6095C440.879 76.9869 440.936 76.3462 441.049 75.6901C440.99 75.6489 440.918 75.6232 440.859 75.582L437.267 78.3865C430.424 87.8137 423.944 97.506 417.85 107.435C416.915 108.958 415.983 110.494 415.134 112.069Z" fill="#0C112E"/>
<path d="M420.025 85.1741C420.378 84.9245 420.594 84.7624 420.656 84.7109C420.597 84.7521 420.37 84.8988 420.025 85.1741Z" fill="#0C112E"/>
<path d="M383.786 96.6445C383.76 98.8856 382.581 100.993 381.003 102.588C379.425 104.183 377.465 105.336 375.517 106.447C373.732 107.464 371.843 108.549 370.859 110.353C369.551 112.746 370.409 116.083 372.708 117.555" fill="white"/>
<path d="M372.707 118.298C372.568 118.298 372.429 118.259 372.306 118.18C369.667 116.492 368.704 112.743 370.205 109.993C371.299 107.988 373.343 106.823 375.148 105.796C377.192 104.631 379.002 103.547 380.475 102.06C382.107 100.411 383.018 98.4839 383.042 96.6339C383.047 96.2248 383.381 95.8955 383.788 95.8955C383.791 95.8955 383.793 95.8955 383.796 95.8955C384.208 95.9007 384.54 96.2403 384.535 96.652C384.509 98.8904 383.443 101.185 381.538 103.113C379.934 104.734 378.032 105.876 375.89 107.095C374.177 108.071 372.409 109.077 371.521 110.708C370.401 112.759 371.147 115.663 373.114 116.921C373.462 117.143 373.562 117.606 373.341 117.953C373.194 118.177 372.952 118.298 372.707 118.298Z" fill="#0C112E"/>
<path d="M413.841 109.807C413.841 109.807 432.071 95.4139 437.985 108.098C443.899 120.783 432.983 131.281 419.628 129.752" fill="white"/>
<path d="M422.221 130.648C421.338 130.648 420.445 130.596 419.544 130.494C419.135 130.447 418.838 130.077 418.887 129.665C418.934 129.256 419.302 128.955 419.716 129.009C426.596 129.796 433.022 127.316 436.469 122.535C439.376 118.504 439.674 113.489 437.308 108.415C436.134 105.899 434.432 104.409 432.103 103.856C424.883 102.148 414.41 110.311 414.305 110.396C413.98 110.654 413.512 110.597 413.254 110.273C412.999 109.949 413.053 109.48 413.378 109.223C413.828 108.868 424.518 100.519 432.447 102.402C435.213 103.058 437.303 104.87 438.662 107.785C441.268 113.371 440.918 118.921 437.682 123.41C434.373 127.995 428.606 130.648 422.221 130.648Z" fill="#0C112E"/>
<path d="M426.27 110.873C428.124 112.085 429.288 114.287 429.241 116.5C429.195 118.713 427.939 120.864 426.036 121.996" fill="white"/>
<path d="M426.036 122.742C425.781 122.742 425.532 122.611 425.392 122.376C425.181 122.021 425.297 121.563 425.653 121.352C427.336 120.351 428.451 118.44 428.492 116.482C428.533 114.526 427.501 112.568 425.861 111.495C425.516 111.269 425.418 110.806 425.645 110.461C425.871 110.116 426.335 110.021 426.68 110.245C428.742 111.593 430.04 114.053 429.988 116.513C429.937 118.972 428.533 121.378 426.417 122.634C426.296 122.708 426.165 122.742 426.036 122.742Z" fill="#0C112E"/>
<path d="M392.243 98.0926C393.592 98.0077 394.962 98.3576 396.066 99.0729C397.171 99.7881 397.997 100.858 398.371 102.06" fill="white"/>
<path d="M398.371 102.806C398.052 102.806 397.758 102.6 397.658 102.281C397.333 101.239 396.623 100.323 395.66 99.6981C394.7 99.0755 393.469 98.7641 392.293 98.8362C391.878 98.8413 391.525 98.5506 391.5 98.1389C391.474 97.7272 391.785 97.3722 392.197 97.3464C393.719 97.2538 395.233 97.6423 396.474 98.4451C397.727 99.2581 398.657 100.462 399.084 101.836C399.208 102.23 398.989 102.649 398.592 102.77C398.52 102.793 398.446 102.806 398.371 102.806Z" fill="#0C112E"/>
<path d="M393.96 106.387C395.009 104.649 394.876 102.648 393.663 101.917C392.45 101.186 390.617 102.002 389.568 103.74C388.52 105.478 388.653 107.479 389.866 108.21C391.079 108.941 392.912 108.125 393.96 106.387Z" fill="#0C112E"/>
<path d="M370.882 88.2049C372.231 88.12 373.601 88.4699 374.705 89.1852C375.809 89.9004 376.636 90.9708 377.009 92.1723" fill="white"/>
<path d="M377.009 92.9189C376.69 92.9189 376.397 92.713 376.296 92.394C375.972 91.352 375.261 90.436 374.298 89.8108C373.338 89.1881 372.107 88.8691 370.928 88.9489C370.527 88.9617 370.161 88.6633 370.135 88.2516C370.11 87.8399 370.421 87.4848 370.833 87.4591C372.355 87.3691 373.868 87.755 375.109 88.5578C376.366 89.3708 377.292 90.5749 377.722 91.9489C377.846 92.3425 377.625 92.7619 377.231 92.8854C377.159 92.906 377.084 92.9189 377.009 92.9189Z" fill="#0C112E"/>
<path d="M372.599 96.5002C373.648 94.7624 373.514 92.7611 372.302 92.0303C371.089 91.2994 369.256 92.1157 368.207 93.8535C367.159 95.5912 367.292 97.5925 368.505 98.3234C369.717 99.0542 371.551 98.2379 372.599 96.5002Z" fill="#0C112E"/>
<path d="M381.827 132.009C381.742 132.009 381.654 131.994 381.567 131.963C381.18 131.819 380.982 131.389 381.124 131.003C382.836 126.372 387.48 123.058 392.418 122.94C392.823 122.927 393.173 123.256 393.183 123.671C393.193 124.082 392.866 124.424 392.452 124.435C388.111 124.538 384.03 127.45 382.524 131.521C382.416 131.824 382.13 132.009 381.827 132.009Z" fill="#0C112E"/>
<path d="M58.659 36.2984C58.659 36.2984 40.3334 35.6887 34.9089 59.2104C29.4818 82.7296 44.8801 103.097 52.8122 111.639C85.4394 146.772 119.341 247.747 131.006 284.715C133.583 292.884 141.24 298.375 149.808 298.21L251.659 296.257C260.276 296.093 267.743 290.247 269.964 281.926L274.199 266.066L82.543 52.441C82.543 52.441 76.6344 35.8147 58.659 36.2984Z" fill="#D4E8E8"/>
<path d="M149.443 298.956C140.754 298.956 132.912 293.237 130.293 284.936C117.539 244.511 84.3995 146.747 52.2641 112.146C44.9576 104.278 28.5732 83.355 34.1806 59.0408C39.5794 35.6425 57.7968 35.5474 58.6567 35.5499C76.0349 35.0739 82.5356 50.3777 83.1921 52.045L274.758 265.565C274.926 265.753 274.99 266.013 274.923 266.257L270.688 282.117C268.392 290.71 260.575 296.831 251.675 297.001L149.824 298.954C149.695 298.956 149.569 298.956 149.443 298.956ZM58.4585 37.0422C56.4838 37.0422 40.6324 37.7292 35.6378 59.3779C30.19 82.9948 46.2166 103.437 53.3609 111.13C85.7023 145.957 118.932 243.965 131.72 284.489C134.145 292.172 141.4 297.464 149.443 297.464C149.561 297.464 149.677 297.462 149.793 297.462L251.644 295.509C259.88 295.352 267.117 289.686 269.241 281.731L273.373 266.262L81.9846 52.9404C81.9203 52.8683 81.8688 52.7834 81.8353 52.6908C81.6036 52.0424 76.0477 37.0345 59.4317 37.0345C59.1819 37.0345 58.9322 37.0371 58.6773 37.0448C58.6619 37.0448 58.6464 37.0448 58.6336 37.0448C58.6052 37.0448 58.546 37.0422 58.4585 37.0422Z" fill="#0C112E"/>
<path d="M262.926 275.124C270.838 275.088 276.388 267.318 273.845 259.831C258.655 215.139 216.68 86.8447 209.963 70.064C202.769 52.0947 189.168 50.5175 189.168 50.5175L58.6621 36.2969C58.6621 36.2969 69.2486 37.2849 76.4393 55.2542C83.6248 73.2056 139.732 230.888 152.88 267.868C154.528 272.502 158.925 275.59 163.847 275.569L262.926 275.124Z" fill="white"/>
<path d="M163.793 276.315C158.585 276.315 153.92 273.027 152.174 268.118C140.684 235.802 83.0068 73.6761 75.744 55.5318C68.9498 38.5581 59.1254 37.107 58.6105 37.0453L58.5796 37.0427C58.1702 36.9989 57.8767 36.6336 57.9179 36.2245C57.9591 35.8154 58.3299 35.5144 58.7315 35.5555C58.7444 35.5581 58.7649 35.5581 58.7933 35.5632L189.248 49.7787C189.827 49.8456 203.382 51.6158 210.655 69.791C214.993 80.6307 234.125 138.236 251.003 189.062C260.338 217.171 269.156 243.721 274.55 259.596C275.84 263.394 275.245 267.444 272.915 270.709C270.585 273.976 266.945 275.86 262.928 275.878L163.847 276.323C163.829 276.315 163.811 276.315 163.793 276.315ZM64.1303 37.6447C67.9406 39.9604 73.0665 44.8181 77.1343 54.976C84.4074 73.1461 142.095 235.297 153.585 267.616C155.12 271.931 159.218 274.82 163.796 274.82C163.811 274.82 163.827 274.82 163.845 274.82L262.926 274.375C266.456 274.36 269.656 272.705 271.702 269.834C273.749 266.965 274.272 263.407 273.139 260.07C267.743 244.189 258.925 217.637 249.587 189.525C232.716 138.72 213.593 81.1376 209.27 70.339C202.344 53.0334 189.214 51.2736 189.083 51.2581L64.1303 37.6447Z" fill="#0C112E"/>
<path d="M105.814 104.821C122.446 150.984 145.205 214.857 157.887 250.528C158.909 253.392 161.646 255.27 164.681 255.201L251.541 253.245C256.324 253.14 259.617 248.385 258.021 243.867C252.905 229.358 246.564 211.489 240.282 192.563C230.618 163.463 220.217 132.132 212.305 108.747C211.417 106.105 209.056 104.242 206.278 103.987L113.087 95.4295C107.954 94.9561 104.064 99.9708 105.814 104.821Z" fill="#C2F963"/>
<path d="M120.898 119.628L141.325 171.185C142.141 173.472 144.327 174.972 146.754 174.916L217.351 177.252C221.174 177.167 223.803 173.369 222.528 169.762C218.443 158.173 212.292 141.447 205.971 122.765C205.263 120.655 203.374 119.165 201.157 118.962L126.709 112.123C122.608 111.748 119.5 115.754 120.898 119.628Z" fill="white"/>
<path d="M216.993 90.5596C216.97 90.5596 216.947 90.5597 216.923 90.5571L84.7054 78.4051C84.2935 78.3665 83.9923 78.0037 84.0283 77.5921C84.0669 77.183 84.4274 76.8768 84.8419 76.9154L217.06 89.0673C217.472 89.1059 217.773 89.4687 217.737 89.8804C217.701 90.2689 217.374 90.5596 216.993 90.5596Z" fill="#0C112E"/>
<path d="M195.288 71.2394C195.265 71.2394 195.241 71.2394 195.218 71.2368L89.7162 61.5394C89.3042 61.5009 89.003 61.1381 89.0391 60.7264C89.0777 60.3173 89.4355 60.0214 89.8526 60.0497L195.355 69.7471C195.767 69.7857 196.068 70.1485 196.032 70.5601C195.996 70.9487 195.669 71.2394 195.288 71.2394Z" fill="#0C112E"/>
<path d="M86.6426 0.807617L177.256 10.9244C186.251 18.7461 194.341 40.5183 186.535 69.2476L95.6535 61.3333C104.649 41.2695 91.7479 12.0822 86.6426 0.807617Z" fill="white"/>
<path d="M186.537 69.9964C186.514 69.9964 186.493 69.9964 186.47 69.9939L95.5889 62.0795C95.3469 62.0589 95.1332 61.9226 95.0097 61.7142C94.8861 61.5058 94.8732 61.251 94.9711 61.0298C103.982 40.9249 90.4167 10.9631 85.9602 1.11646C85.8495 0.872036 85.8778 0.586442 86.0374 0.370316C86.197 0.15419 86.4596 0.0384097 86.7248 0.066712L177.338 10.1835C177.488 10.2015 177.632 10.2632 177.745 10.361C186.056 17.5884 195.45 39.2859 187.255 69.4458C187.168 69.7726 186.872 69.9964 186.537 69.9964ZM96.7501 60.6799L185.978 68.4501C193.651 39.484 184.869 18.723 176.942 11.6423L87.8679 1.69795C92.7621 12.566 104.886 40.7731 96.7501 60.6799Z" fill="#0C112E"/>
<path d="M174.603 21.0339C174.58 21.0339 174.554 21.0313 174.529 21.0313L112.526 14.9489C112.114 14.9077 111.815 14.5424 111.854 14.1333C111.895 13.7242 112.256 13.4206 112.67 13.4617L174.673 19.5416C175.085 19.5828 175.383 19.9481 175.345 20.3572C175.309 20.7457 174.984 21.0339 174.603 21.0339Z" fill="#0C112E"/>
<path d="M177.032 29.6627C177.006 29.6627 176.98 29.6601 176.952 29.6576L123.355 24.0537C122.946 24.0125 122.647 23.6446 122.691 23.2329C122.735 22.8238 123.082 22.5177 123.512 22.5691L177.109 28.173C177.518 28.2141 177.817 28.5821 177.773 28.9937C177.734 29.3771 177.41 29.6627 177.032 29.6627Z" fill="#0C112E"/>
<path d="M179.462 38.2928C179.433 38.2928 179.405 38.2902 179.377 38.2876L150.812 35.0895C150.403 35.0432 150.107 34.6727 150.153 34.2636C150.2 33.8545 150.565 33.5612 150.98 33.6049L179.544 36.8031C179.953 36.8494 180.25 37.2199 180.203 37.629C180.159 38.0098 179.838 38.2928 179.462 38.2928Z" fill="#0C112E"/>
<path d="M166.129 145.52L155.38 158.315L164.7 166.232L175.441 153.445L192.86 168.252L198.604 161.413L181.19 146.601L191.933 133.811L182.621 125.886L171.872 138.681L154.461 123.866L148.712 130.71L166.129 145.52Z" fill="#EF476F"/>
<path d="M157.462 193.338C156.445 193.338 155.611 192.522 155.593 191.501C155.575 190.469 156.399 189.62 157.431 189.602L225.399 188.478C226.462 188.472 227.281 189.283 227.299 190.315C227.317 191.346 226.493 192.195 225.461 192.213L157.493 193.338C157.485 193.338 157.475 193.338 157.462 193.338Z" fill="white"/>
<path d="M161.095 206.017C160.078 206.017 159.244 205.202 159.226 204.18C159.208 203.149 160.032 202.3 161.064 202.282L229.032 201.157C229.042 201.157 229.053 201.157 229.063 201.157C230.08 201.157 230.914 201.973 230.932 202.994C230.95 204.026 230.126 204.875 229.094 204.893L161.126 206.017C161.116 206.017 161.105 206.017 161.095 206.017Z" fill="white"/>
<path d="M193.218 219.286C192.224 219.286 191.395 218.501 191.351 217.5C191.308 216.471 192.106 215.599 193.138 215.552L232.616 213.839C233.656 213.808 234.519 214.593 234.565 215.624C234.609 216.654 233.811 217.526 232.778 217.572L193.3 219.286C193.272 219.283 193.246 219.286 193.218 219.286Z" fill="white"/>
<path d="M382.338 258.728C375.121 252.82 362.547 251.935 361.316 260.205C361.316 260.205 362.57 268.559 372.135 272.189" fill="white"/>
<path d="M372.135 272.936C372.047 272.936 371.957 272.92 371.87 272.887C362.009 269.143 360.629 260.673 360.575 260.316C360.565 260.244 360.565 260.169 360.575 260.094C360.997 257.262 362.66 255.208 365.387 254.156C370.25 252.28 377.74 253.996 382.811 258.149C383.131 258.412 383.177 258.88 382.917 259.202C382.657 259.521 382.186 259.569 381.864 259.307C377.253 255.533 370.253 253.883 365.925 255.553C363.737 256.397 362.442 257.961 362.074 260.202C362.256 261.19 363.845 268.245 372.4 271.495C372.786 271.642 372.979 272.074 372.832 272.46C372.722 272.753 372.439 272.936 372.135 272.936Z" fill="#0C112E"/>
<path d="M315.613 199.711L369.545 213.062C376.414 214.763 380.608 221.704 378.903 228.574L356.324 319.664C354.623 326.528 347.671 330.717 340.803 329.016L286.871 315.665C280.002 313.965 275.811 307.018 277.513 300.153L300.091 209.064C301.796 202.194 308.744 198.01 315.613 199.711Z" fill="#EF476F"/>
<path d="M343.885 330.143C342.809 330.143 341.714 330.014 340.625 329.744L286.694 316.393C279.434 314.595 274.99 307.231 276.79 299.975L299.368 208.886C301.165 201.63 308.539 197.189 315.796 198.988L369.728 212.339C373.245 213.208 376.211 215.395 378.082 218.496C379.954 221.596 380.502 225.239 379.632 228.756L357.053 319.846C355.524 326.008 349.971 330.143 343.885 330.143ZM312.532 200.081C307.115 200.081 302.177 203.758 300.815 209.243L278.237 300.333C277.462 303.459 277.951 306.701 279.616 309.462C281.28 312.222 283.921 314.167 287.049 314.942L340.981 328.293C347.44 329.893 353.997 325.941 355.596 319.486L378.175 228.396C378.95 225.268 378.461 222.026 376.795 219.267C375.132 216.509 372.49 214.564 369.362 213.79L315.431 200.439C314.463 200.197 313.49 200.081 312.532 200.081Z" fill="#0C112E"/>
<path d="M311.502 287.509L307.617 303.186C306.96 305.833 304.283 307.447 301.634 306.79L291.889 304.377C289.24 303.721 287.626 301.045 288.282 298.398L292.167 282.721C292.824 280.073 295.501 278.46 298.15 279.116L307.895 281.529C310.544 282.185 312.158 284.861 311.502 287.509Z" fill="white"/>
<path d="M316.993 236.104C316.762 236.104 316.525 236.05 316.303 235.934L311.628 233.495C310.897 233.112 310.611 232.211 310.995 231.478C311.378 230.747 312.282 230.464 313.011 230.845L317.686 233.284C318.417 233.668 318.703 234.568 318.319 235.301C318.054 235.813 317.532 236.104 316.993 236.104Z" fill="#0C112E"/>
<path d="M319.053 227.799C318.821 227.799 318.584 227.745 318.363 227.629L313.688 225.19C312.957 224.806 312.671 223.906 313.054 223.173C313.438 222.442 314.342 222.156 315.07 222.54L319.746 224.979C320.477 225.362 320.763 226.263 320.379 226.996C320.111 227.505 319.591 227.799 319.053 227.799Z" fill="#0C112E"/>
<path d="M321.113 219.491C320.881 219.491 320.644 219.437 320.423 219.321L315.747 216.882C315.016 216.499 314.73 215.598 315.114 214.865C315.498 214.134 316.401 213.851 317.13 214.232L321.805 216.671C322.536 217.054 322.822 217.955 322.438 218.688C322.171 219.198 321.651 219.491 321.113 219.491Z" fill="#0C112E"/>
<path d="M323.61 311.687C323.492 311.687 323.371 311.674 323.25 311.643L317.877 310.313C317.076 310.115 316.587 309.304 316.785 308.504C316.984 307.702 317.797 307.215 318.595 307.413L323.968 308.744C324.769 308.942 325.258 309.752 325.06 310.552C324.89 311.232 324.28 311.687 323.61 311.687Z" fill="white"/>
<path d="M326.1 301.64C325.981 301.64 325.86 301.627 325.739 301.596L320.366 300.266C319.565 300.068 319.076 299.257 319.275 298.457C319.473 297.654 320.286 297.163 321.084 297.366L326.458 298.696C327.258 298.895 327.747 299.705 327.549 300.505C327.382 301.184 326.772 301.64 326.1 301.64Z" fill="white"/>
<path d="M328.59 291.592C328.469 291.592 328.35 291.579 328.229 291.548L322.856 290.218C322.056 290.02 321.567 289.21 321.765 288.409C321.963 287.609 322.774 287.12 323.575 287.318L328.948 288.649C329.748 288.847 330.238 289.657 330.039 290.457C329.872 291.139 329.262 291.592 328.59 291.592Z" fill="white"/>
<path d="M331.082 281.545C330.964 281.545 330.843 281.532 330.722 281.501L325.349 280.171C324.548 279.973 324.059 279.163 324.257 278.362C324.455 277.562 325.269 277.071 326.067 277.271L331.44 278.602C332.241 278.8 332.73 279.61 332.532 280.41C332.362 281.09 331.751 281.545 331.082 281.545Z" fill="white"/>
<path d="M333.571 271.498C333.453 271.498 333.332 271.485 333.211 271.454L327.838 270.124C327.037 269.925 326.548 269.115 326.746 268.315C326.944 267.515 327.758 267.028 328.556 267.224L333.929 268.554C334.73 268.752 335.219 269.563 335.021 270.363C334.853 271.045 334.243 271.498 333.571 271.498Z" fill="white"/>
<path d="M336.061 261.451C335.942 261.451 335.821 261.438 335.7 261.407L330.327 260.077C329.526 259.879 329.037 259.068 329.235 258.268C329.434 257.465 330.247 256.979 331.045 257.177L336.418 258.507C337.219 258.705 337.708 259.516 337.51 260.316C337.343 260.998 336.733 261.451 336.061 261.451Z" fill="white"/>
<path d="M338.553 251.404C338.434 251.404 338.313 251.391 338.192 251.36L332.819 250.03C332.019 249.831 331.529 249.021 331.728 248.221C331.926 247.418 332.737 246.927 333.538 247.13L338.911 248.46C339.711 248.658 340.2 249.469 340.002 250.269C339.832 250.951 339.222 251.404 338.553 251.404Z" fill="white"/>
<path d="M341.043 241.356C340.925 241.356 340.804 241.343 340.683 241.312L335.31 239.982C334.509 239.784 334.02 238.973 334.218 238.173C334.416 237.373 335.227 236.884 336.028 237.082L341.401 238.412C342.202 238.61 342.691 239.421 342.492 240.221C342.323 240.903 341.712 241.356 341.043 241.356Z" fill="white"/>
<path d="M343.532 231.309C343.414 231.309 343.293 231.296 343.172 231.265L337.799 229.935C336.998 229.737 336.509 228.926 336.707 228.126C336.905 227.323 337.716 226.835 338.517 227.035L343.89 228.365C344.691 228.564 345.18 229.374 344.982 230.174C344.814 230.856 344.204 231.309 343.532 231.309Z" fill="white"/>
<path d="M346.024 221.261C345.906 221.261 345.785 221.248 345.664 221.217L340.291 219.887C339.49 219.689 339.001 218.879 339.199 218.078C339.398 217.278 340.211 216.792 341.009 216.988L346.382 218.318C347.183 218.516 347.672 219.326 347.474 220.127C347.304 220.808 346.694 221.261 346.024 221.261Z" fill="white"/>
<path d="M352.34 247.871C352.221 247.871 352.1 247.858 351.979 247.827C351.179 247.629 350.69 246.819 350.888 246.018L356.737 222.422C356.935 221.622 357.746 221.133 358.547 221.331C359.348 221.529 359.837 222.34 359.639 223.14L353.789 246.736C353.619 247.416 353.009 247.871 352.34 247.871Z" fill="white"/>
<path d="M355.378 265.009C355.26 265.009 355.139 264.996 355.018 264.966C354.217 264.768 353.728 263.957 353.926 263.157L363.601 224.12C363.799 223.32 364.61 222.831 365.411 223.029C366.212 223.228 366.701 224.038 366.503 224.838L356.827 263.875C356.66 264.557 356.05 265.009 355.378 265.009Z" fill="white"/>
<path d="M290.44 289.834L290.08 291.285L309.413 296.072L309.773 294.621L290.44 289.834Z" fill="#0C112E"/>
<path d="M298.431 279.18L295.304 291.811L296.756 292.17L299.883 279.54L298.431 279.18Z" fill="#0C112E"/>
<path d="M306.118 281.086L302.991 293.716L304.443 294.075L307.57 281.445L306.118 281.086Z" fill="#0C112E"/>
<path d="M299.146 292.762L296.019 305.392L297.471 305.751L300.598 293.121L299.146 292.762Z" fill="#0C112E"/>
<path d="M382.339 258.729C389.357 264.456 400.265 276.719 400.265 276.719L383.35 311.14C383.35 311.14 364.533 308.68 355.594 304.648C346.666 300.596 351.171 294.428 351.171 294.428C351.171 294.428 345.543 289.787 345.487 286.37C345.422 282.935 348.921 281.515 348.921 281.515C348.921 281.515 344.272 278.152 344.436 273.832C344.609 269.515 349.374 269.419 349.374 269.419C347.325 268.483 341.28 261.379 346.192 256.93C351.089 252.477 372.607 263.103 372.607 263.103" fill="white"/>
<path d="M383.353 311.886C383.322 311.886 383.288 311.883 383.255 311.878C382.483 311.778 364.224 309.356 355.29 305.327C352.054 303.858 350.103 301.936 349.492 299.61C348.918 297.428 349.701 295.512 350.206 294.583C348.733 293.286 344.794 289.532 344.74 286.383C344.691 283.74 346.424 282.158 347.595 281.391C346.171 280.113 343.558 277.282 343.689 273.806C343.805 270.914 345.754 269.533 347.536 268.982C345.945 267.487 344.071 264.847 343.656 262.161C343.306 259.902 344.009 257.903 345.69 256.38C350.816 251.718 370.689 261.325 372.936 262.436C373.307 262.619 373.459 263.067 373.276 263.437C373.093 263.805 372.648 263.96 372.275 263.777C366.418 260.885 350.404 254.113 346.694 257.489C345.384 258.675 344.858 260.172 345.131 261.935C345.623 265.102 348.535 268.22 349.683 268.745C350 268.889 350.175 269.234 350.105 269.576C350.033 269.916 349.737 270.166 349.39 270.171C349.225 270.176 345.324 270.317 345.183 273.868C345.036 277.727 349.315 280.884 349.359 280.915C349.577 281.075 349.693 281.342 349.662 281.61C349.629 281.88 349.454 282.109 349.202 282.212C349.081 282.264 346.179 283.493 346.233 286.36C346.274 288.876 350.157 292.625 351.647 293.855C351.954 294.107 352.008 294.552 351.776 294.871C351.763 294.889 350.322 296.929 350.939 299.247C351.436 301.11 353.107 302.698 355.906 303.969C363.81 307.532 379.808 309.892 382.92 310.326L399.374 276.842C397.49 274.745 388.075 264.374 381.867 259.305C381.548 259.043 381.499 258.575 381.762 258.253C382.022 257.934 382.493 257.885 382.815 258.147C389.797 263.846 400.718 276.099 400.829 276.222C401.032 276.449 401.076 276.775 400.942 277.048L384.027 311.469C383.896 311.726 383.633 311.886 383.353 311.886Z" fill="#0C112E"/>
<path d="M351.684 294.509C351.684 294.509 355.442 296.155 359.394 296.716L351.684 294.509Z" fill="white"/>
<path d="M359.394 297.465C359.358 297.465 359.325 297.462 359.289 297.457C355.283 296.888 351.539 295.262 351.382 295.193C351.004 295.028 350.831 294.586 350.999 294.21C351.163 293.832 351.601 293.659 351.982 293.827C352.018 293.842 355.7 295.44 359.497 295.978C359.906 296.037 360.19 296.415 360.133 296.822C360.079 297.195 359.76 297.465 359.394 297.465Z" fill="#0C112E"/>
<path d="M349.371 269.419C349.371 269.419 353.642 272.545 358.817 273.17L349.371 269.419Z" fill="white"/>
<path d="M358.818 273.919C358.787 273.919 358.758 273.917 358.727 273.914C353.419 273.274 349.111 270.158 348.931 270.024C348.599 269.78 348.527 269.314 348.769 268.982C349.011 268.65 349.48 268.575 349.814 268.82C349.856 268.851 353.998 271.841 358.908 272.432C359.317 272.481 359.608 272.854 359.559 273.263C359.515 273.642 359.191 273.919 358.818 273.919Z" fill="#0C112E"/>
<path d="M348.924 281.512C348.924 281.512 351.084 284.625 357.451 284.062L348.924 281.512Z" fill="white"/>
<path d="M355.95 284.878C350.42 284.878 348.401 282.068 348.311 281.937C348.074 281.597 348.159 281.131 348.499 280.897C348.836 280.66 349.3 280.745 349.537 281.08C349.629 281.206 351.609 283.82 357.386 283.316C357.796 283.285 358.161 283.583 358.197 283.995C358.233 284.407 357.93 284.769 357.518 284.805C356.967 284.857 356.444 284.878 355.95 284.878Z" fill="#0C112E"/>
<path d="M452.224 163.847C452.224 163.847 475.153 163.633 488.579 179.035C502.268 194.735 539.297 329.032 499.796 347.665C462.391 365.31 374.913 317.585 374.913 317.585L398.8 267.232L464.257 302.471L452.224 163.847Z" fill="#3745A4"/>
<path d="M479.05 352.365C464.376 352.365 445.656 348.218 423.07 339.943C396.776 330.31 374.774 318.362 374.555 318.241C374.207 318.05 374.068 317.623 374.238 317.266L398.125 266.913C398.212 266.728 398.372 266.589 398.568 266.525C398.763 266.46 398.974 266.481 399.155 266.576L463.392 301.159L456.801 225.234C456.765 224.823 457.069 224.46 457.481 224.426C457.916 224.38 458.256 224.694 458.289 225.106L465.001 302.407C465.024 302.68 464.896 302.945 464.666 303.096C464.435 303.248 464.141 303.258 463.902 303.13L399.137 268.264L375.894 317.263C383.81 321.475 464.484 363.491 499.477 346.991C499.85 346.813 500.296 346.975 500.471 347.348C500.646 347.721 500.489 348.166 500.113 348.341C494.426 351.022 487.392 352.365 479.05 352.365Z" fill="#0C112E"/>
<path d="M122.436 314.955C122.328 314.955 122.217 314.932 122.114 314.88C112.848 310.434 102.347 305.396 95.496 296.599C91.1733 291.05 88.537 283.153 89.5771 275.91C81.5832 271.49 75.2601 262.706 72.6135 252.028C69.8484 240.877 70.8577 229.358 71.8334 218.218C71.8694 217.806 72.2376 217.507 72.6418 217.538C73.0537 217.574 73.3575 217.937 73.3215 218.346C72.356 229.366 71.3597 240.759 74.0629 251.668C76.5628 261.749 82.4328 270.06 89.8603 274.354C90.5297 271.328 91.8891 268.457 94.0851 265.974C96.3147 263.452 99.0772 261.839 101.863 261.435C105.163 260.954 108.531 262.3 110.233 264.788C111.368 266.447 111.736 268.565 111.262 270.749C110.696 273.368 109.028 275.738 106.801 277.089C103.315 279.206 98.4696 279.42 93.5084 277.678C92.6769 277.387 91.8582 277.05 91.0549 276.669C90.3083 283.274 92.6588 290.527 96.6751 295.681C103.31 304.2 113.644 309.158 122.76 313.532C123.134 313.709 123.291 314.157 123.11 314.528C122.982 314.798 122.717 314.955 122.436 314.955ZM91.2892 275.123C92.1748 275.563 93.0811 275.946 94.0028 276.271C98.5417 277.863 102.921 277.696 106.023 275.813C107.88 274.686 109.326 272.625 109.8 270.433C110.184 268.652 109.901 266.946 108.997 265.629C107.612 263.604 104.829 262.511 102.077 262.912C99.641 263.267 97.2003 264.705 95.2051 266.962C93.1223 269.321 91.8633 272.131 91.2892 275.123Z" fill="#0C112E"/>
<path d="M472.413 132.56L528.036 86.1699L547.94 135.992L472.413 132.56Z" fill="#EF476F"/>
<path d="M479.323 141.97L515.205 141.496L509.196 156.216L479.323 141.97Z" fill="#D4E8E8"/>
<path d="M472.552 89.1436L470.229 121.671L496.227 101.113L472.552 89.1436Z" fill="white"/>
<path d="M470.23 122.42C470.111 122.42 469.99 122.391 469.88 122.332C469.62 122.193 469.463 121.915 469.483 121.619L471.805 89.0924C471.824 88.8428 471.965 88.619 472.181 88.4955C472.398 88.372 472.665 88.3668 472.887 88.4774L496.562 100.447C496.789 100.563 496.943 100.786 496.969 101.039C496.995 101.293 496.889 101.54 496.688 101.7L470.691 122.257C470.559 122.363 470.395 122.42 470.23 122.42ZM473.219 90.3197L471.095 120.034L494.845 101.255L473.219 90.3197Z" fill="#0C112E"/>
<path d="M301.613 115.56C279.297 110.836 258.989 102.716 240.738 91.0786C232.471 85.8067 231.766 74.0252 239.273 67.7138C255.024 54.4478 270.739 43.325 286.393 36.5067C293.519 33.4012 301.804 36.4141 305.277 43.361C315.253 63.3475 320.255 83.0433 319.061 102.361C318.525 111.135 310.22 117.377 301.613 115.56Z" fill="#D4E8E8"/>
<path d="M286.279 80.8053L296.959 58.6035C298.184 56.0588 297.558 53.0073 295.432 51.1497C291.997 48.1471 286.609 49.6857 285.275 54.0442L278.074 77.6046C277.485 79.5368 278.283 81.6235 280.013 82.6707C282.245 84.0189 285.152 83.1518 286.279 80.8053Z" fill="#0C112E"/>
<path d="M281.145 95.2974C283.56 93.2095 283.825 89.5602 281.735 87.1464C279.646 84.7327 275.995 84.4685 273.579 86.5564C271.164 88.6443 270.9 92.2937 272.989 94.7074C275.078 97.1212 278.73 97.3853 281.145 95.2974Z" fill="#0C112E"/>
</g>
<defs>
<clipPath id="clip0_2276_5250">
<rect width="580" height="352.57" fill="white"/>
</clipPath>
</defs>
</svg>