<svg width="15" height="14" viewBox="0 0 15 14" fill="none" xmlns="http://www.w3.org/2000/svg">
<path d="M14.75 6.99998C14.7502 8.77458 14.0515 10.4779 12.8051 11.7412C11.5588 13.0045 9.86515 13.7261 8.0907 13.75H8C6.27611 13.7543 4.61676 13.0946 3.36641 11.9078C3.31271 11.857 3.26955 11.7961 3.23938 11.7287C3.20921 11.6612 3.19262 11.5885 3.19056 11.5146C3.1885 11.4407 3.20102 11.3671 3.22739 11.2981C3.25376 11.2291 3.29347 11.1659 3.34426 11.1122C3.39504 11.0585 3.45591 11.0153 3.52337 10.9852C3.59084 10.955 3.66359 10.9384 3.73746 10.9364C3.81134 10.9343 3.8849 10.9468 3.95394 10.9732C4.02298 10.9996 4.08615 11.0393 4.13984 11.0901C4.94408 11.8485 5.95396 12.3532 7.04335 12.541C8.13273 12.7289 9.25332 12.5915 10.2651 12.1462C11.2769 11.7009 12.1351 10.9673 12.7324 10.0371C13.3297 9.10691 13.6396 8.02133 13.6235 6.91598C13.6075 5.81064 13.266 4.73454 12.6419 3.82211C12.0178 2.90968 11.1387 2.20137 10.1144 1.78567C9.09005 1.36998 7.96594 1.26532 6.88249 1.48477C5.79903 1.70422 4.80425 2.23806 4.02242 3.01959C4.01668 3.0258 4.01057 3.03167 4.00414 3.03717L2.13523 4.74998H4.0625C4.21168 4.74998 4.35476 4.80924 4.46025 4.91473C4.56574 5.02022 4.625 5.16329 4.625 5.31248C4.625 5.46166 4.56574 5.60474 4.46025 5.71023C4.35476 5.81571 4.21168 5.87498 4.0625 5.87498H0.6875C0.538316 5.87498 0.395242 5.81571 0.289752 5.71023C0.184263 5.60474 0.125 5.46166 0.125 5.31248V1.93748C0.125 1.78829 0.184263 1.64522 0.289752 1.53973C0.395242 1.43424 0.538316 1.37498 0.6875 1.37498C0.836684 1.37498 0.979758 1.43424 1.08525 1.53973C1.19074 1.64522 1.25 1.78829 1.25 1.93748V4.03279L3.23633 2.21873C4.18131 1.27741 5.384 0.637166 6.69256 0.378812C8.00112 0.120458 9.35689 0.255579 10.5887 0.767118C11.8205 1.27866 12.8732 2.14368 13.6138 3.25299C14.3544 4.3623 14.7498 5.66616 14.75 6.99998Z" fill="#0C112E"/>
</svg>
