 <svg class="icon-20" width="16" height="17" viewBox="0 0 16 17" fill="none" xmlns="http://www.w3.org/2000/svg">
                                     <path fill-rule="evenodd" clip-rule="evenodd" d="M14.605 5.71765L14.1382 4.90758C13.7432 4.22214 12.868 3.98568 12.1817 4.37898V4.37898C11.8549 4.57145 11.4651 4.62605 11.098 4.53075C10.731 4.43545 10.4169 4.19808 10.2251 3.87097C10.1017 3.66305 10.0354 3.42623 10.0329 3.18447V3.18447C10.044 2.79686 9.89781 2.42124 9.62752 2.14319C9.35723 1.86514 8.9859 1.70834 8.59813 1.7085H7.65762C7.27773 1.70849 6.91348 1.85987 6.6455 2.12915C6.37752 2.39842 6.22788 2.76338 6.22971 3.14328V3.14328C6.21845 3.92763 5.57936 4.55755 4.79492 4.55747C4.55316 4.55496 4.31634 4.48865 4.10843 4.36525V4.36525C3.42205 3.97195 2.54683 4.20841 2.1519 4.89385L1.65076 5.71765C1.25631 6.40223 1.48955 7.27689 2.1725 7.67417V7.67417C2.61643 7.93047 2.8899 8.40413 2.8899 8.91673C2.8899 9.42934 2.61643 9.903 2.1725 10.1593V10.1593C1.49042 10.5539 1.25692 11.4264 1.65076 12.109V12.109L2.12444 12.9259C2.30949 13.2598 2.61995 13.5062 2.98714 13.6105C3.35434 13.7149 3.74798 13.6686 4.08097 13.482V13.482C4.40831 13.2909 4.79839 13.2386 5.1645 13.3366C5.53062 13.4346 5.84243 13.6747 6.03062 14.0037C6.15402 14.2116 6.22033 14.4484 6.22284 14.6902V14.6902C6.22284 15.4826 6.86522 16.125 7.65762 16.125H8.59813C9.38786 16.125 10.0291 15.4868 10.0329 14.6971V14.6971C10.0311 14.316 10.1816 13.95 10.4511 13.6805C10.7206 13.411 11.0866 13.2604 11.4677 13.2623C11.7089 13.2687 11.9447 13.3348 12.1542 13.4545V13.4545C12.8388 13.8489 13.7134 13.6157 14.1107 12.9328V12.9328L14.605 12.109C14.7963 11.7806 14.8488 11.3894 14.7509 11.0222C14.653 10.655 14.4127 10.342 14.0833 10.1524V10.1524C13.7538 9.96291 13.5135 9.64987 13.4156 9.28265C13.3177 8.91542 13.3702 8.5243 13.5615 8.19591C13.6859 7.97869 13.866 7.79859 14.0833 7.67417V7.67417C14.7621 7.27711 14.9948 6.40756 14.605 5.72451V5.72451V5.71765Z" stroke="#7E7E7E" stroke-width="1.5" stroke-linecap="round" stroke-linejoin="round"/>
                                     <circle cx="8.13129" cy="8.91675" r="1.97712" stroke="#7E7E7E" stroke-width="1.5" stroke-linecap="round" stroke-linejoin="round"/>
                                  </svg>