<svg width="16" height="16" viewBox="0 0 16 16" fill="none" xmlns="http://www.w3.org/2000/svg">
<g clip-path="url(#clip0_1_2)">
<mask id="mask0_1_2" style="mask-type:luminance" maskUnits="userSpaceOnUse" x="0" y="0" width="16" height="16">
<path d="M16 0H0V16H16V0Z" fill="white"/>
</mask>
<g mask="url(#mask0_1_2)">
<path d="M1.11865 1.63127C1.11865 1.3819 1.31928 1.18127 1.56865 1.18127H15.0687C15.318 1.18127 15.5187 1.3819 15.5187 1.63127V13.8938C15.5187 14.1432 15.318 14.3438 15.0687 14.3438H1.56865C1.31928 14.3438 1.11865 14.1432 1.11865 13.8938V1.63127Z" fill="#0C112E" stroke="#0C112E" stroke-width="0.6"/>
<path d="M1.38135 1.81873C1.38135 1.61248 1.5501 1.44373 1.75635 1.44373H14.8813C15.0876 1.44373 15.2563 1.61248 15.2563 1.81873V13.7062C15.2563 13.9125 15.0876 14.0812 14.8813 14.0812H1.75635C1.5501 14.0812 1.38135 13.9125 1.38135 13.7062V1.81873Z" fill="white"/>
<path d="M1.38135 1.74373C1.38135 1.57873 1.51635 1.44373 1.68135 1.44373H14.9563C15.1213 1.44373 15.2563 1.57873 15.2563 1.74373V7.87498H1.38135V1.74373Z" fill="#FAFAFA"/>
<mask id="mask1_1_2" style="mask-type:luminance" maskUnits="userSpaceOnUse" x="1" y="1" width="15" height="7">
<path d="M1.38135 1.74373C1.38135 1.57798 1.5156 1.44373 1.68135 1.44373H1.38135V1.74373ZM14.9563 1.44373C15.1221 1.44373 15.2563 1.57798 15.2563 1.74373V1.44373H14.9563ZM15.2563 7.87498H1.38135V7.91248H15.2563V7.87498Z" fill="white"/>
</mask>
<g mask="url(#mask1_1_2)">
<path d="M15.2563 7.91246H1.38135V7.83746H15.2563V7.91246Z" fill="#E7E7E7"/>
</g>
<path d="M11.7876 0.168799C11.7876 0.0862988 11.8551 0.0187988 11.9376 0.0187988H12.5376C12.6201 0.0187988 12.6876 0.0862988 12.6876 0.168799V0.918799H11.7876V0.168799Z" fill="#0C112E"/>
<path d="M3.98755 0.15C3.98755 0.0675 4.05505 0 4.13755 0H4.73755C4.82005 0 4.88755 0.0675 4.88755 0.15V0.9H3.98755V0.15Z" fill="#0C112E"/>
<path d="M14.2062 11.7281L14.8906 10.8562L15.2937 9.88123L15.275 14.0812H11.8718L12.3875 13.9312L14.2062 11.7281Z" fill="#0C112E"/>
<path fill-rule="evenodd" clip-rule="evenodd" d="M15.2449 9.95068C15.2318 10.2751 15.138 10.5769 14.9524 10.8057L12.6443 13.6857L14.943 10.3838C15.0105 10.3501 15.0743 10.2994 15.1268 10.2338C15.1868 10.1588 15.2243 10.0576 15.2449 9.95068ZM14.7405 10.4326H13.4074C13.128 10.4326 12.858 10.5713 12.6593 10.8188C12.4605 11.0663 12.3499 11.4019 12.3499 11.7526V13.4157C12.3499 13.5938 12.2918 13.7663 12.1905 13.8919C12.1212 13.9801 12.0312 14.0419 11.9355 14.0719C12.0612 14.0663 12.1849 14.0326 12.2993 13.9726C12.4287 13.9069 12.5468 13.8094 12.6443 13.6857L14.943 10.3838C14.8793 10.4157 14.8118 10.4326 14.7405 10.4326Z" fill="#EFEFEF"/>
<path d="M15.2449 9.95068C15.2318 10.2751 15.138 10.5769 14.9524 10.8057L12.6443 13.6857M15.2449 9.95068C15.2243 10.0576 15.1868 10.1588 15.1268 10.2338C15.0743 10.2994 15.0105 10.3501 14.943 10.3838M15.2449 9.95068L14.943 10.3838M12.6443 13.6857L14.943 10.3838M12.6443 13.6857C12.5468 13.8094 12.4287 13.9069 12.2993 13.9726C12.1849 14.0326 12.0612 14.0663 11.9355 14.0719C12.0312 14.0419 12.1212 13.9801 12.1905 13.8919C12.2918 13.7663 12.3499 13.5938 12.3499 13.4157V11.7526C12.3499 11.4019 12.4605 11.0663 12.6593 10.8188C12.858 10.5713 13.128 10.4326 13.4074 10.4326H14.7405C14.8118 10.4326 14.8793 10.4157 14.943 10.3838" stroke="#BBBBBB" stroke-width="0.01875"/>
<path d="M4.84025 3H2.56885C2.25416 3 2 3.25448 2 3.56954V5.8436C2 6.15463 2.25416 6.40909 2.56885 6.40909H4.84025C5.15493 6.40909 5.40909 6.15463 5.40909 5.8436V3.56954C5.40909 3.25448 5.15493 3 4.84025 3Z" fill="#3745A4"/>
<path d="M9.38502 3H7.11096C6.79995 3 6.54547 3.25448 6.54547 3.56954V5.8436C6.54547 6.15463 6.79995 6.40909 7.11096 6.40909H9.38502C9.70008 6.40909 9.95456 6.15463 9.95456 5.8436V3.56954C9.95456 3.25448 9.70008 3 9.38502 3Z" fill="#BBBBBB"/>
<path d="M13.9345 3H11.6605C11.3454 3 11.0909 3.25448 11.0909 3.56954V5.8436C11.0909 6.15463 11.3454 6.40909 11.6605 6.40909H13.9345C14.2456 6.40909 14.5 6.15463 14.5 5.8436V3.56954C14.5 3.25448 14.2456 3 13.9345 3Z" fill="#D1D1D1"/>
<path d="M0 9.73846C0 9.33231 0.332308 9 0.738462 9H5.26154C5.66769 9 6 9.33231 6 9.73846V14.2615C6 14.6677 5.66769 15 5.26154 15H0.738462C0.332308 15 0 14.6677 0 14.2615V9.73846Z" fill="#3745A4"/>
<path d="M1.66504 12.0631L2.6018 13L4.31247 11.2895" stroke="white" stroke-width="0.5" stroke-linecap="round" stroke-linejoin="round"/>
</g>
</g>
<defs>
<clipPath id="clip0_1_2">
<rect width="16" height="16" fill="white"/>
</clipPath>
</defs>
</svg>
