<svg width="20" height="21" viewBox="0 0 20 21" fill="none" xmlns="http://www.w3.org/2000/svg">
<path d="M1.5 18.4999C1.49997 18.7761 1.7238 19 1.99994 19C2.27609 19 2.49997 18.7762 2.5 18.5001L1.5 18.4999ZM2.00034 15.4997L2.50034 15.4997L2.00034 15.4997ZM10.5 13C10.7761 13 11 12.7761 11 12.5C11 12.2239 10.7761 12 10.5 12V13ZM18 14C18.2761 14 18.5 13.7761 18.5 13.5C18.5 13.2239 18.2761 13 18 13V14ZM13.5 13C13.2239 13 13 13.2239 13 13.5C13 13.7761 13.2239 14 13.5 14V13ZM15.25 15.7499C15.25 16.026 15.4739 16.2499 15.75 16.2499C16.0261 16.2499 16.25 16.026 16.25 15.7499H15.25ZM16.25 11.2499C16.25 10.9737 16.0261 10.7499 15.75 10.7499C15.4739 10.7499 15.25 10.9737 15.25 11.2499H16.25ZM14.7445 2.06385C14.5036 1.92882 14.1989 2.01464 14.0638 2.25552C13.9288 2.4964 14.0146 2.80113 14.2555 2.93615L14.7445 2.06385ZM14.2555 8.06384C14.0146 8.19887 13.9288 8.5036 14.0638 8.74448C14.1989 8.98536 14.5036 9.07117 14.7445 8.93615L14.2555 8.06384ZM11.5 5.5C11.5 6.88071 10.3807 8 9 8V9C10.933 9 12.5 7.433 12.5 5.5H11.5ZM9 8C7.61929 8 6.5 6.88071 6.5 5.5H5.5C5.5 7.433 7.067 9 9 9V8ZM6.5 5.5C6.5 4.11929 7.61929 3 9 3V2C7.067 2 5.5 3.567 5.5 5.5H6.5ZM9 3C10.3807 3 11.5 4.11929 11.5 5.5H12.5C12.5 3.567 10.933 2 9 2V3ZM2.5 18.5001L2.50034 15.4997L1.50034 15.4996L1.5 18.4999L2.5 18.5001ZM5.00034 12C3.06749 12 1.50055 13.5668 1.50034 15.4996L2.50034 15.4997C2.50049 14.1191 3.61973 13 5.00034 13V12ZM5.00034 13H10.5V12H5.00034V13ZM18 13H15.75V14H18V13ZM15.75 13H13.5V14H15.75V13ZM16.25 15.7499V13.5H15.25V15.7499H16.25ZM16.25 13.5V11.2499H15.25V13.5H16.25ZM14.2555 2.93615C15.3597 3.55511 16 4.50112 16 5.5H17C17 4.04034 16.0673 2.80535 14.7445 2.06385L14.2555 2.93615ZM16 5.5C16 6.49888 15.3597 7.44489 14.2555 8.06384L14.7445 8.93615C16.0673 8.19465 17 6.95966 17 5.5H16Z" fill="currentColor"/>
</svg>
