<?xml version="1.0" encoding="UTF-8" standalone="no"?>
<!DOCTYPE svg PUBLIC "-//W3C//DTD SVG 1.1//EN" "http://www.w3.org/Graphics/SVG/1.1/DTD/svg11.dtd">
<svg width="100%" height="100%" viewBox="0 0 482 114" version="1.1" xmlns="http://www.w3.org/2000/svg" xmlns:xlink="http://www.w3.org/1999/xlink" xml:space="preserve" xmlns:serif="http://www.serif.com/" style="fill-rule:evenodd;clip-rule:evenodd;stroke-linecap:round;stroke-linejoin:round;stroke-miterlimit:1.5;">
    <g transform="matrix(0.345918,0,0,1,-256.12,-473.089)">
        <path d="M1401.62,527C1401.62,523.689 1393.84,521 1384.27,521L759.678,521C750.105,521 742.333,523.689 742.333,527L742.333,580.113C742.333,583.424 750.105,586.113 759.678,586.113L1384.27,586.113C1393.84,586.113 1401.62,583.424 1401.62,580.113L1401.62,527Z" style="fill:white;stroke:rgb(166,206,238);stroke-width:1.78px;"/>
    </g>
    <g transform="matrix(0.345831,0,0,1,-4.09666,-473.744)">
        <path d="M1401.62,527C1401.62,523.689 1393.84,521 1384.27,521L759.682,521C750.107,521 742.333,523.689 742.333,527L742.333,580.113C742.333,583.424 750.107,586.113 759.682,586.113L1384.27,586.113C1393.84,586.113 1401.62,583.424 1401.62,580.113L1401.62,527Z" style="fill:white;stroke:rgb(87,165,225);stroke-width:1.78px;"/>
    </g>
    <g id="Layer2" transform="matrix(1,0,0,1,-915.558,-911.394)">
        <path d="M1030.25,939.305L1030.25,919.394C1030.25,917.803 1030.89,916.277 1032.01,915.152C1033.14,914.026 1034.66,913.394 1036.25,913.394C1070.59,913.394 1241.85,913.394 1276.18,913.394C1277.77,913.394 1279.3,914.026 1280.43,915.152C1281.55,916.277 1282.18,917.803 1282.18,919.394L1282.18,933.65" style="fill:none;stroke:rgb(34,113,177);stroke-width:4px;stroke-linecap:butt;"/>
        <g transform="matrix(-1,-1.22465e-16,1.22465e-16,-1,2333.46,1770.16)">
            <path d="M1050.86,824.832L1058.47,837.487L1043.24,837.487L1050.86,824.832Z" style="fill:rgb(34,113,177);"/>
        </g>
    </g>
</svg>
