<?xml version="1.0" encoding="UTF-8" standalone="no"?>
<!DOCTYPE svg PUBLIC "-//W3C//DTD SVG 1.1//EN" "http://www.w3.org/Graphics/SVG/1.1/DTD/svg11.dtd">
<svg width="100%" height="100%" viewBox="0 0 383 155" version="1.1" xmlns="http://www.w3.org/2000/svg" xmlns:xlink="http://www.w3.org/1999/xlink" xml:space="preserve" xmlns:serif="http://www.serif.com/" style="fill-rule:evenodd;clip-rule:evenodd;stroke-linecap:round;stroke-linejoin:round;stroke-miterlimit:1.5;">
    <g transform="matrix(0.923034,0,0,0.781865,-895.599,-571.522)">
        <g transform="matrix(0.5156,0,0,1.27899,660.931,65.4699)">
            <path d="M1401.62,527C1401.62,523.689 1395.97,521 1389.01,521L754.94,521C747.982,521 742.333,523.689 742.333,527L742.333,580.113C742.333,583.424 747.982,586.113 754.94,586.113L1389.01,586.113C1395.97,586.113 1401.62,583.424 1401.62,580.113L1401.62,527Z" style="fill:white;stroke:rgb(166,206,238);stroke-width:1.7px;"/>
        </g>
        <g transform="matrix(0.5156,0,0,1.27899,660.931,178.562)">
            <path d="M1401.62,527C1401.62,523.689 1395.97,521 1389.01,521L754.94,521C747.982,521 742.333,523.689 742.333,527L742.333,580.113C742.333,583.424 747.982,586.113 754.94,586.113L1389.01,586.113C1395.97,586.113 1401.62,583.424 1401.62,580.113L1401.62,527Z" style="fill:white;stroke:rgb(87,165,225);stroke-width:1.7px;"/>
        </g>
    </g>
    <g id="Layer1" transform="matrix(1,0,0,1,-1013.25,-712.833)">
        <path d="M1050,746.056L1021.25,746.056C1019.66,746.056 1018.13,746.688 1017.01,747.813C1015.88,748.938 1015.25,750.464 1015.25,752.056C1015.25,768.186 1015.25,812.348 1015.25,828.478C1015.25,830.069 1015.88,831.596 1017.01,832.721C1018.13,833.846 1019.66,834.478 1021.25,834.478C1031.19,834.478 1050,834.478 1050,834.478" style="fill:none;stroke:rgb(34,113,177);stroke-width:4px;stroke-linecap:butt;"/>
        <g transform="matrix(-1.83697e-16,1,-1,-1.83697e-16,1886.68,-216.377)">
            <path d="M1050.86,824.832L1058.47,837.487L1043.24,837.487L1050.86,824.832Z" style="fill:rgb(34,113,177);"/>
        </g>
    </g>
</svg>
