<svg width="62" height="37" viewBox="0 0 62 37" fill="none" xmlns="http://www.w3.org/2000/svg">
<path d="M10.0173 11.5429C10.1347 10.7436 10.3583 10.0469 10.6883 9.45292C11.0257 8.85892 11.44 8.36392 11.9313 7.96792C12.43 7.57192 12.9983 7.27859 13.6363 7.08792C14.2743 6.88992 14.96 6.79092 15.6933 6.79092C16.4853 6.79092 17.1893 6.90459 17.8053 7.13192C18.4213 7.35192 18.942 7.65259 19.3673 8.03392C19.7927 8.41526 20.1153 8.85892 20.3353 9.36492C20.5553 9.86359 20.6653 10.3916 20.6653 10.9489C20.6653 11.4549 20.614 11.9023 20.5113 12.2909C20.4087 12.6723 20.2547 13.0059 20.0493 13.2919C19.8513 13.5706 19.602 13.8089 19.3013 14.0069C19.008 14.1976 18.6707 14.3589 18.2893 14.4909C20.064 15.1143 20.9513 16.3243 20.9513 18.1209C20.9513 18.9716 20.7973 19.7123 20.4893 20.3429C20.1813 20.9736 19.767 21.4979 19.2463 21.9159C18.733 22.3339 18.1353 22.6493 17.4533 22.8619C16.7713 23.0673 16.06 23.1699 15.3193 23.1699C14.5567 23.1699 13.8783 23.0893 13.2843 22.9279C12.6903 22.7593 12.1623 22.5026 11.7003 22.1579C11.2383 21.8059 10.8313 21.3586 10.4793 20.8159C10.1347 20.2733 9.83401 19.6279 9.57735 18.8799L11.0953 18.2639C11.4913 18.1099 11.858 18.0696 12.1953 18.1429C12.5327 18.2163 12.7747 18.3849 12.9213 18.6489C13.2513 19.2576 13.5997 19.7013 13.9663 19.9799C14.3403 20.2513 14.7767 20.3869 15.2753 20.3869C15.6567 20.3869 15.9867 20.3246 16.2653 20.1999C16.5513 20.0679 16.786 19.9029 16.9693 19.7049C17.16 19.4996 17.303 19.2686 17.3983 19.0119C17.4937 18.7553 17.5413 18.4949 17.5413 18.2309C17.5413 17.8863 17.5157 17.5783 17.4643 17.3069C17.4203 17.0283 17.2883 16.7899 17.0683 16.5919C16.8483 16.3939 16.5147 16.2436 16.0673 16.1409C15.6273 16.0309 15.0113 15.9759 14.2193 15.9759V13.6219C14.8867 13.6219 15.4257 13.5706 15.8363 13.4679C16.247 13.3653 16.5623 13.2259 16.7823 13.0499C17.0097 12.8666 17.16 12.6466 17.2333 12.3899C17.3067 12.1333 17.3433 11.8509 17.3433 11.5429C17.3433 10.9123 17.1893 10.4283 16.8813 10.0909C16.5807 9.74626 16.1187 9.57392 15.4953 9.57392C14.9893 9.57392 14.5603 9.70959 14.2083 9.98092C13.8637 10.2449 13.6253 10.5749 13.4933 10.9709C13.3393 11.3743 13.1377 11.6419 12.8883 11.7739C12.639 11.9059 12.2833 11.9353 11.8213 11.8619L10.0173 11.5429ZM34.1311 14.9749C34.1311 16.3756 33.9807 17.5893 33.6801 18.6159C33.3794 19.6426 32.9614 20.4933 32.4261 21.1679C31.8981 21.8426 31.2674 22.3449 30.5341 22.6749C29.8081 23.0049 29.0197 23.1699 28.1691 23.1699C27.3184 23.1699 26.5301 23.0049 25.8041 22.6749C25.0854 22.3449 24.4621 21.8426 23.9341 21.1679C23.4061 20.4933 22.9917 19.6426 22.6911 18.6159C22.3977 17.5893 22.2511 16.3756 22.2511 14.9749C22.2511 13.5743 22.3977 12.3606 22.6911 11.3339C22.9917 10.3073 23.4061 9.45659 23.9341 8.78192C24.4621 8.10726 25.0854 7.60859 25.8041 7.28592C26.5301 6.95592 27.3184 6.79092 28.1691 6.79092C29.0197 6.79092 29.8081 6.95592 30.5341 7.28592C31.2674 7.60859 31.8981 8.10726 32.4261 8.78192C32.9614 9.45659 33.3794 10.3073 33.6801 11.3339C33.9807 12.3606 34.1311 13.5743 34.1311 14.9749ZM30.6111 14.9749C30.6111 13.8676 30.5414 12.9619 30.4021 12.2579C30.2627 11.5466 30.0757 10.9893 29.8411 10.5859C29.6137 10.1826 29.3534 9.90759 29.0601 9.76092C28.7667 9.60692 28.4697 9.52992 28.1691 9.52992C27.8684 9.52992 27.5714 9.60692 27.2781 9.76092C26.9921 9.90759 26.7354 10.1826 26.5081 10.5859C26.2881 10.9893 26.1084 11.5466 25.9691 12.2579C25.8371 12.9619 25.7711 13.8676 25.7711 14.9749C25.7711 16.0896 25.8371 16.9989 25.9691 17.7029C26.1084 18.4069 26.2881 18.9643 26.5081 19.3749C26.7354 19.7783 26.9921 20.0569 27.2781 20.2109C27.5714 20.3576 27.8684 20.4309 28.1691 20.4309C28.4697 20.4309 28.7667 20.3576 29.0601 20.2109C29.3534 20.0569 29.6137 19.7783 29.8411 19.3749C30.0757 18.9643 30.2627 18.4069 30.4021 17.7029C30.5414 16.9989 30.6111 16.0896 30.6111 14.9749ZM42.9988 10.8499C42.9988 11.4366 42.8925 11.9719 42.6798 12.4559C42.4671 12.9399 42.1848 13.3579 41.8328 13.7099C41.4808 14.0546 41.0701 14.3223 40.6008 14.5129C40.1388 14.7036 39.6548 14.7989 39.1488 14.7989C38.5915 14.7989 38.0781 14.7036 37.6088 14.5129C37.1468 14.3223 36.7435 14.0546 36.3988 13.7099C36.0615 13.3579 35.7975 12.9399 35.6068 12.4559C35.4161 11.9719 35.3208 11.4366 35.3208 10.8499C35.3208 10.2413 35.4161 9.69126 35.6068 9.19992C35.7975 8.70126 36.0615 8.27592 36.3988 7.92392C36.7435 7.57192 37.1468 7.30059 37.6088 7.10992C38.0781 6.91192 38.5915 6.81292 39.1488 6.81292C39.7061 6.81292 40.2195 6.91192 40.6888 7.10992C41.1655 7.30059 41.5725 7.57192 41.9098 7.92392C42.2545 8.27592 42.5221 8.70126 42.7128 9.19992C42.9035 9.69126 42.9988 10.2413 42.9988 10.8499ZM40.3808 10.8499C40.3808 10.4759 40.3478 10.1679 40.2818 9.92592C40.2231 9.67659 40.1388 9.47859 40.0288 9.33192C39.9188 9.18526 39.7868 9.08259 39.6328 9.02392C39.4861 8.96526 39.3248 8.93592 39.1488 8.93592C38.9728 8.93592 38.8115 8.96526 38.6648 9.02392C38.5181 9.08259 38.3935 9.18526 38.2908 9.33192C38.1881 9.47859 38.1075 9.67659 38.0488 9.92592C37.9901 10.1679 37.9608 10.4759 37.9608 10.8499C37.9608 11.2019 37.9901 11.4953 38.0488 11.7299C38.1075 11.9646 38.1881 12.1516 38.2908 12.2909C38.3935 12.4303 38.5181 12.5293 38.6648 12.5879C38.8115 12.6466 38.9728 12.6759 39.1488 12.6759C39.3248 12.6759 39.4861 12.6466 39.6328 12.5879C39.7868 12.5293 39.9188 12.4303 40.0288 12.2909C40.1388 12.1516 40.2231 11.9646 40.2818 11.7299C40.3478 11.4953 40.3808 11.2019 40.3808 10.8499ZM48.0368 7.47292C48.1468 7.34826 48.2825 7.23459 48.4438 7.13192C48.6051 7.02192 48.8288 6.96692 49.1148 6.96692H51.6008L39.5228 22.5099C39.4128 22.6493 39.2735 22.7666 39.1048 22.8619C38.9435 22.9499 38.7455 22.9939 38.5108 22.9939H35.9588L48.0368 7.47292ZM52.2168 19.2319C52.2168 19.8186 52.1105 20.3576 51.8978 20.8489C51.6851 21.3329 51.4028 21.7509 51.0508 22.1029C50.6988 22.4476 50.2881 22.7153 49.8188 22.9059C49.3568 23.0966 48.8728 23.1919 48.3668 23.1919C47.8095 23.1919 47.2961 23.0966 46.8268 22.9059C46.3648 22.7153 45.9615 22.4476 45.6168 22.1029C45.2795 21.7509 45.0155 21.3329 44.8248 20.8489C44.6341 20.3576 44.5388 19.8186 44.5388 19.2319C44.5388 18.6233 44.6341 18.0733 44.8248 17.5819C45.0155 17.0833 45.2795 16.6579 45.6168 16.3059C45.9615 15.9539 46.3648 15.6826 46.8268 15.4919C47.2961 15.2939 47.8095 15.1949 48.3668 15.1949C48.9241 15.1949 49.4375 15.2939 49.9068 15.4919C50.3835 15.6826 50.7905 15.9539 51.1278 16.3059C51.4725 16.6579 51.7401 17.0833 51.9308 17.5819C52.1215 18.0733 52.2168 18.6233 52.2168 19.2319ZM49.5988 19.2319C49.5988 18.8653 49.5658 18.5609 49.4998 18.3189C49.4411 18.0696 49.3568 17.8716 49.2468 17.7249C49.1368 17.5783 49.0048 17.4756 48.8508 17.4169C48.7041 17.3583 48.5428 17.3289 48.3668 17.3289C48.1908 17.3289 48.0295 17.3583 47.8828 17.4169C47.7361 17.4756 47.6115 17.5783 47.5088 17.7249C47.4061 17.8716 47.3255 18.0696 47.2668 18.3189C47.2081 18.5609 47.1788 18.8653 47.1788 19.2319C47.1788 19.5839 47.2081 19.8773 47.2668 20.1119C47.3255 20.3466 47.4061 20.5336 47.5088 20.6729C47.6115 20.8123 47.7361 20.9113 47.8828 20.9699C48.0295 21.0286 48.1908 21.0579 48.3668 21.0579C48.5428 21.0579 48.7041 21.0286 48.8508 20.9699C49.0048 20.9113 49.1368 20.8123 49.2468 20.6729C49.3568 20.5336 49.4411 20.3466 49.4998 20.1119C49.5658 19.8773 49.5988 19.5839 49.5988 19.2319Z" fill="#F66123"/>
<path d="M8.76623 10.0503C8.87843 9.28592 9.0923 8.61975 9.40786 8.05175C9.73042 7.48375 10.1266 7.01042 10.5964 6.63175C11.0733 6.25309 11.6167 5.97259 12.2268 5.79027C12.8369 5.60094 13.4925 5.50628 14.1938 5.50628C14.9511 5.50628 15.6243 5.61497 16.2133 5.83235C16.8023 6.04272 17.3002 6.33022 17.7069 6.69486C18.1137 7.0595 18.4222 7.48375 18.6326 7.9676C18.8429 8.44444 18.9481 8.94933 18.9481 9.48226C18.9481 9.96611 18.899 10.3939 18.8009 10.7655C18.7027 11.1302 18.5554 11.4492 18.3591 11.7227C18.1698 11.9892 17.9313 12.2171 17.6438 12.4064C17.3633 12.5887 17.0408 12.743 16.6761 12.8692C18.3731 13.4653 19.2216 14.6223 19.2216 16.3403C19.2216 17.1537 19.0743 17.862 18.7798 18.465C18.4853 19.0681 18.0891 19.5695 17.5912 19.9692C17.1004 20.3689 16.5289 20.6704 15.8767 20.8738C15.2246 21.0701 14.5444 21.1683 13.8361 21.1683C13.1069 21.1683 12.4582 21.0912 11.8902 20.9369C11.3222 20.7756 10.8173 20.5302 10.3756 20.2006C9.93378 19.864 9.5446 19.4363 9.208 18.9173C8.87843 18.3984 8.59092 17.7813 8.34549 17.0661L9.79704 16.4771C10.1757 16.3298 10.5263 16.2912 10.8489 16.3613C11.1715 16.4315 11.4029 16.5928 11.5431 16.8452C11.8587 17.4272 12.1917 17.8515 12.5424 18.1179C12.9 18.3774 13.3172 18.5071 13.7941 18.5071C14.1587 18.5071 14.4743 18.4475 14.7407 18.3283C15.0142 18.2021 15.2386 18.0443 15.4139 17.855C15.5962 17.6586 15.733 17.4377 15.8241 17.1923C15.9153 16.9469 15.9609 16.6979 15.9609 16.4455C15.9609 16.1159 15.9363 15.8214 15.8872 15.5619C15.8452 15.2955 15.7189 15.0676 15.5086 14.8782C15.2982 14.6889 14.9791 14.5452 14.5514 14.447C14.1307 14.3418 13.5416 14.2892 12.7843 14.2892V12.0383C13.4224 12.0383 13.9378 11.9892 14.3305 11.891C14.7232 11.7928 15.0247 11.6596 15.2351 11.4913C15.4525 11.316 15.5962 11.1056 15.6664 10.8602C15.7365 10.6148 15.7715 10.3448 15.7715 10.0503C15.7715 9.4472 15.6243 8.98439 15.3298 8.66182C15.0423 8.33224 14.6005 8.16745 14.0044 8.16745C13.5206 8.16745 13.1104 8.29718 12.7738 8.55663C12.4442 8.80908 12.2163 9.12463 12.0901 9.5033C11.9428 9.88898 11.75 10.1449 11.5116 10.2711C11.2731 10.3974 10.933 10.4254 10.4913 10.3553L8.76623 10.0503ZM31.8244 13.332C31.8244 14.6714 31.6806 15.8319 31.3931 16.8136C31.1056 17.7954 30.7059 18.6088 30.194 19.2539C29.6891 19.8991 29.0861 20.3794 28.3848 20.695C27.6906 21.0105 26.9368 21.1683 26.1234 21.1683C25.3099 21.1683 24.5561 21.0105 23.8619 20.695C23.1747 20.3794 22.5786 19.8991 22.0738 19.2539C21.5689 18.6088 21.1727 17.7954 20.8852 16.8136C20.6047 15.8319 20.4644 14.6714 20.4644 13.332C20.4644 11.9927 20.6047 10.8321 20.8852 9.85041C21.1727 8.86868 21.5689 8.05525 22.0738 7.41012C22.5786 6.76499 23.1747 6.28815 23.8619 5.97961C24.5561 5.66405 25.3099 5.50628 26.1234 5.50628C26.9368 5.50628 27.6906 5.66405 28.3848 5.97961C29.0861 6.28815 29.6891 6.76499 30.194 7.41012C30.7059 8.05525 31.1056 8.86868 31.3931 9.85041C31.6806 10.8321 31.8244 11.9927 31.8244 13.332ZM28.4585 13.332C28.4585 12.2732 28.3919 11.4071 28.2586 10.734C28.1254 10.0538 27.9466 9.52083 27.7222 9.13515C27.5048 8.74947 27.2559 8.48651 26.9754 8.34627C26.6949 8.19901 26.4109 8.12538 26.1234 8.12538C25.8359 8.12538 25.5519 8.19901 25.2714 8.34627C24.9979 8.48651 24.7525 8.74947 24.5351 9.13515C24.3247 9.52083 24.1529 10.0538 24.0197 10.734C23.8935 11.4071 23.8303 12.2732 23.8303 13.332C23.8303 14.3979 23.8935 15.2674 24.0197 15.9406C24.1529 16.6138 24.3247 17.1467 24.5351 17.5394C24.7525 17.9251 24.9979 18.1916 25.2714 18.3388C25.5519 18.4791 25.8359 18.5492 26.1234 18.5492C26.4109 18.5492 26.6949 18.4791 26.9754 18.3388C27.2559 18.1916 27.5048 17.9251 27.7222 17.5394C27.9466 17.1467 28.1254 16.6138 28.2586 15.9406C28.3919 15.2674 28.4585 14.3979 28.4585 13.332ZM40.3039 9.38759C40.3039 9.94858 40.2022 10.4605 39.9989 10.9233C39.7955 11.3861 39.5256 11.7858 39.189 12.1224C38.8524 12.452 38.4597 12.7079 38.0109 12.8902C37.5691 13.0726 37.1063 13.1637 36.6225 13.1637C36.0895 13.1637 35.5987 13.0726 35.1499 12.8902C34.7081 12.7079 34.3224 12.452 33.9928 12.1224C33.6703 11.7858 33.4178 11.3861 33.2355 10.9233C33.0532 10.4605 32.962 9.94858 32.962 9.38759C32.962 8.80557 33.0532 8.27965 33.2355 7.80982C33.4178 7.33299 33.6703 6.92627 33.9928 6.58968C34.3224 6.25309 34.7081 5.99363 35.1499 5.81131C35.5987 5.62198 36.0895 5.52731 36.6225 5.52731C37.1554 5.52731 37.6463 5.62198 38.095 5.81131C38.5508 5.99363 38.94 6.25309 39.2626 6.58968C39.5922 6.92627 39.8481 7.33299 40.0304 7.80982C40.2128 8.27965 40.3039 8.80557 40.3039 9.38759ZM37.8005 9.38759C37.8005 9.02997 37.769 8.73545 37.7059 8.50404C37.6498 8.26562 37.5691 8.07629 37.4639 7.93604C37.3588 7.7958 37.2325 7.69763 37.0853 7.64153C36.945 7.58543 36.7908 7.55738 36.6225 7.55738C36.4542 7.55738 36.2999 7.58543 36.1596 7.64153C36.0194 7.69763 35.9002 7.7958 35.802 7.93604C35.7038 8.07629 35.6267 8.26562 35.5706 8.50404C35.5145 8.73545 35.4865 9.02997 35.4865 9.38759C35.4865 9.72419 35.5145 10.0047 35.5706 10.2291C35.6267 10.4535 35.7038 10.6323 35.802 10.7655C35.9002 10.8988 36.0194 10.9934 36.1596 11.0495C36.2999 11.1056 36.4542 11.1337 36.6225 11.1337C36.7908 11.1337 36.945 11.1056 37.0853 11.0495C37.2325 10.9934 37.3588 10.8988 37.4639 10.7655C37.5691 10.6323 37.6498 10.4535 37.7059 10.2291C37.769 10.0047 37.8005 9.72419 37.8005 9.38759ZM45.1214 6.15842C45.2266 6.03921 45.3563 5.93052 45.5106 5.83235C45.6648 5.72716 45.8787 5.67457 46.1522 5.67457H48.5294L36.9801 20.5372C36.8749 20.6704 36.7417 20.7826 36.5804 20.8738C36.4261 20.9579 36.2368 21 36.0124 21H33.5721L45.1214 6.15842ZM49.1184 17.4027C49.1184 17.9637 49.0167 18.4791 48.8134 18.9489C48.61 19.4117 48.34 19.8114 48.0035 20.148C47.6669 20.4776 47.2742 20.7335 46.8254 20.9159C46.3836 21.0982 45.9208 21.1893 45.4369 21.1893C44.904 21.1893 44.4131 21.0982 43.9644 20.9159C43.5226 20.7335 43.1369 20.4776 42.8073 20.148C42.4848 19.8114 42.2323 19.4117 42.05 18.9489C41.8677 18.4791 41.7765 17.9637 41.7765 17.4027C41.7765 16.8207 41.8677 16.2947 42.05 15.8249C42.2323 15.3481 42.4848 14.9414 42.8073 14.6048C43.1369 14.2682 43.5226 14.0087 43.9644 13.8264C44.4131 13.6371 44.904 13.5424 45.4369 13.5424C45.9699 13.5424 46.4607 13.6371 46.9095 13.8264C47.3653 14.0087 47.7545 14.2682 48.0771 14.6048C48.4067 14.9414 48.6626 15.3481 48.8449 15.8249C49.0273 16.2947 49.1184 16.8207 49.1184 17.4027ZM46.615 17.4027C46.615 17.0521 46.5835 16.7611 46.5204 16.5296C46.4643 16.2912 46.3836 16.1019 46.2784 15.9616C46.1732 15.8214 46.047 15.7232 45.8998 15.6671C45.7595 15.611 45.6052 15.583 45.4369 15.583C45.2687 15.583 45.1144 15.611 44.9741 15.6671C44.8339 15.7232 44.7147 15.8214 44.6165 15.9616C44.5183 16.1019 44.4412 16.2912 44.3851 16.5296C44.329 16.7611 44.3009 17.0521 44.3009 17.4027C44.3009 17.7393 44.329 18.0198 44.3851 18.2442C44.4412 18.4686 44.5183 18.6474 44.6165 18.7806C44.7147 18.9138 44.8339 19.0085 44.9741 19.0646C45.1144 19.1207 45.2687 19.1487 45.4369 19.1487C45.6052 19.1487 45.7595 19.1207 45.8998 19.0646C46.047 19.0085 46.1732 18.9138 46.2784 18.7806C46.3836 18.6474 46.4643 18.4686 46.5204 18.2442C46.5835 18.0198 46.615 17.7393 46.615 17.4027Z" fill="white"/>
<path d="M8.76623 10.0503L8.2104 9.96867L8.13117 10.5085L8.66841 10.6035L8.76623 10.0503ZM9.40786 8.05175L8.91933 7.77431L8.91677 7.77892L9.40786 8.05175ZM10.5964 6.63175L10.2471 6.1918L10.2439 6.19435L10.5964 6.63175ZM12.2268 5.79027L12.3877 6.32856L12.3933 6.32681L12.2268 5.79027ZM16.2133 5.83235L16.0188 6.35942L16.0244 6.3614L16.2133 5.83235ZM17.7069 6.69486L17.3319 7.11315L17.3319 7.11315L17.7069 6.69486ZM18.6326 7.9676L18.1174 8.1916L18.1186 8.19436L18.6326 7.9676ZM18.8009 10.7655L19.3433 10.9116L19.344 10.909L18.8009 10.7655ZM18.3591 11.7227L17.9027 11.3951L17.9011 11.3973L18.3591 11.7227ZM17.6438 12.4064L17.95 12.8774L17.9528 12.8756L17.6438 12.4064ZM16.6761 12.8692L16.4924 12.3383L14.9699 12.8653L16.49 13.3993L16.6761 12.8692ZM18.7798 18.465L19.2846 18.7116L19.2846 18.7116L18.7798 18.465ZM17.5912 19.9692L17.2395 19.5311L17.2365 19.5336L17.5912 19.9692ZM15.8767 20.8738L16.0387 21.4117L16.044 21.4101L15.8767 20.8738ZM11.8902 20.9369L11.7368 21.4773L11.743 21.479L11.8902 20.9369ZM10.3756 20.2006L10.0351 20.6475L10.0396 20.6509L10.3756 20.2006ZM9.208 18.9173L8.73376 19.2185L8.73669 19.2231L9.208 18.9173ZM8.34549 17.0661L8.13425 16.5455L7.64154 16.7455L7.81412 17.2484L8.34549 17.0661ZM9.79704 16.4771L9.5934 15.9534L9.5858 15.9565L9.79704 16.4771ZM10.8489 16.3613L10.7295 16.9103L10.7295 16.9103L10.8489 16.3613ZM11.5431 16.8452L12.037 16.5774L12.0342 16.5724L11.5431 16.8452ZM12.5424 18.1179L12.2024 18.5653L12.2125 18.5727L12.5424 18.1179ZM14.7407 18.3283L14.9702 18.8411L14.9761 18.8384L14.7407 18.3283ZM15.4139 17.855L15.0022 17.4727L15.0017 17.4733L15.4139 17.855ZM15.8241 17.1923L16.3508 17.3879L16.3508 17.3879L15.8241 17.1923ZM15.8872 15.5619L15.3323 15.6496L15.3337 15.658L15.3353 15.6664L15.8872 15.5619ZM15.5086 14.8782L15.1328 15.2958L15.1328 15.2958L15.5086 14.8782ZM14.5514 14.447L14.4151 14.9921L14.4257 14.9945L14.5514 14.447ZM12.7843 14.2892H12.2225V14.851H12.7843V14.2892ZM12.7843 12.0383V11.4765H12.2225V12.0383H12.7843ZM15.2351 11.4913L15.586 11.93L15.5878 11.9286L15.2351 11.4913ZM15.3298 8.66182L14.9063 9.03121L14.9149 9.04061L15.3298 8.66182ZM12.7738 8.55663L13.1154 9.00262L13.1167 9.00157L12.7738 8.55663ZM12.0901 9.5033L12.6149 9.70369L12.6192 9.69241L12.623 9.68095L12.0901 9.5033ZM11.5116 10.2711L11.2487 9.77465L11.2487 9.77465L11.5116 10.2711ZM10.4913 10.3553L10.3934 10.9086L10.4032 10.9101L10.4913 10.3553ZM9.32205 10.1318C9.42622 9.42225 9.62192 8.82322 9.89894 8.32457L8.91677 7.77892C8.56269 8.41627 8.33063 9.14958 8.2104 9.96867L9.32205 10.1318ZM9.89636 8.32917C10.187 7.81748 10.5385 7.39998 10.949 7.06915L10.2439 6.19435C9.71473 6.62086 9.27389 7.15002 8.91935 7.77433L9.89636 8.32917ZM10.9458 7.07169C11.3641 6.73952 11.8429 6.49133 12.3877 6.32853L12.0659 5.25201C11.3905 5.45386 10.7825 5.76666 10.2471 6.19181L10.9458 7.07169ZM12.3933 6.32681C12.9445 6.15576 13.5435 6.06806 14.1938 6.06806V4.94449C13.4416 4.94449 12.7293 5.04612 12.0603 5.25374L12.3933 6.32681ZM14.1938 6.06806C14.898 6.06806 15.5034 6.16918 16.0188 6.35939L16.4078 5.30531C15.7451 5.06075 15.0042 4.94449 14.1938 4.94449V6.06806ZM16.0244 6.3614C16.5547 6.55079 16.9868 6.80369 17.3319 7.11315L18.082 6.27658C17.6137 5.85676 17.05 5.53465 16.4023 5.30329L16.0244 6.3614ZM17.3319 7.11315C17.6807 7.42582 17.9404 7.78448 18.1174 8.1916L19.1478 7.7436C18.904 7.18302 18.5466 6.69319 18.082 6.27658L17.3319 7.11315ZM18.1186 8.19436C18.2967 8.59812 18.3863 9.0256 18.3863 9.48226H19.5099C19.5099 8.87305 19.3892 8.29076 19.1465 7.74084L18.1186 8.19436ZM18.3863 9.48226C18.3863 9.92956 18.3408 10.3074 18.2577 10.622L19.344 10.909C19.4573 10.4803 19.5099 10.0027 19.5099 9.48226H18.3863ZM18.2584 10.6195C18.1757 10.9268 18.0552 11.1827 17.9027 11.3951L18.8154 12.0503C19.0557 11.7157 19.2297 11.3335 19.3433 10.9116L18.2584 10.6195ZM17.9011 11.3973C17.7542 11.6041 17.5673 11.7841 17.3349 11.9372L17.9528 12.8756C18.2953 12.65 18.5853 12.3743 18.817 12.0481L17.9011 11.3973ZM17.3377 11.9354C17.1007 12.0894 16.8204 12.2248 16.4924 12.3383L16.8599 13.4001C17.2612 13.2612 17.626 13.088 17.95 12.8774L17.3377 11.9354ZM16.49 13.3993C17.2588 13.6693 17.7902 14.0498 18.1322 14.5162C18.4727 14.9806 18.6598 15.5766 18.6598 16.3403H19.7834C19.7834 15.386 19.5462 14.5445 19.0383 13.8518C18.5318 13.1612 17.7905 12.6652 16.8623 12.3392L16.49 13.3993ZM18.6598 16.3403C18.6598 17.0861 18.5249 17.7068 18.275 18.2185L19.2846 18.7116C19.6237 18.0172 19.7834 17.2213 19.7834 16.3403H18.6598ZM18.275 18.2185C18.0149 18.7511 17.6696 19.1859 17.2395 19.5311L17.9429 20.4073C18.5086 19.9531 18.9557 19.3851 19.2846 18.7116L18.275 18.2185ZM17.2365 19.5336C16.8054 19.8846 16.2987 20.1537 15.7095 20.3375L16.044 21.4101C16.759 21.1871 17.3953 20.8532 17.946 20.4048L17.2365 19.5336ZM15.7148 20.3358C15.1172 20.5158 14.4917 20.6065 13.8361 20.6065V21.7301C14.597 21.7301 15.3319 21.6245 16.0387 21.4117L15.7148 20.3358ZM13.8361 20.6065C13.1453 20.6065 12.5476 20.5333 12.0375 20.3947L11.743 21.479C12.3688 21.649 13.0685 21.7301 13.8361 21.7301V20.6065ZM12.0437 20.3965C11.5368 20.2525 11.0946 20.0362 10.7115 19.7503L10.0396 20.6509C10.54 21.0242 11.1077 21.2987 11.7368 21.4773L12.0437 20.3965ZM10.716 19.7537C10.3312 19.4605 9.98471 19.0824 9.67932 18.6116L8.73669 19.2231C9.10448 19.7901 9.5364 20.2675 10.0351 20.6475L10.716 19.7537ZM9.68222 18.6161C9.38097 18.1418 9.11111 17.5664 8.87686 16.8838L7.81412 17.2484C8.07073 17.9963 8.37588 18.655 8.73379 19.2185L9.68222 18.6161ZM8.55673 17.5866L10.0083 16.9976L9.5858 15.9565L8.13425 16.5455L8.55673 17.5866ZM10.0007 17.0006C10.3004 16.8841 10.5374 16.8685 10.7295 16.9103L10.9682 15.8124C10.5153 15.7139 10.051 15.7755 9.59342 15.9535L10.0007 17.0006ZM10.7295 16.9103C10.9193 16.9516 11.0019 17.0278 11.052 17.118L12.0342 16.5724C11.8038 16.1577 11.4236 15.9114 10.9682 15.8124L10.7295 16.9103ZM11.0492 17.113C11.3854 17.733 11.7646 18.2325 12.2024 18.5652L12.8823 17.6707C12.6189 17.4705 12.3319 17.1214 12.037 16.5774L11.0492 17.113ZM12.2125 18.5727C12.6738 18.9073 13.2086 19.0689 13.7941 19.0689V17.9453C13.4258 17.9453 13.1262 17.8475 12.8723 17.6632L12.2125 18.5727ZM13.7941 19.0689C14.2187 19.0689 14.6159 18.9996 14.9701 18.8411L14.5113 17.8155C14.3326 17.8954 14.0987 17.9453 13.7941 17.9453V19.0689ZM14.9761 18.8384C15.3054 18.6864 15.5932 18.4882 15.8261 18.2367L15.0017 17.4733C14.884 17.6004 14.723 17.7177 14.5053 17.8182L14.9761 18.8384ZM15.8256 18.2372C16.0569 17.9881 16.2333 17.7041 16.3508 17.3879L15.2975 16.9967C15.2326 17.1713 15.1356 17.3291 15.0022 17.4727L15.8256 18.2372ZM16.3508 17.3879C16.4643 17.0822 16.5227 16.7672 16.5227 16.4455H15.3991C15.3991 16.6287 15.3663 16.8115 15.2975 16.9967L16.3508 17.3879ZM16.5227 16.4455C16.5227 16.0891 16.4962 15.7586 16.4392 15.4575L15.3353 15.6664C15.3765 15.8842 15.3991 16.1427 15.3991 16.4455H16.5227ZM16.4421 15.4743C16.3789 15.074 16.1854 14.7316 15.8844 14.4607L15.1328 15.2958C15.2524 15.4035 15.3114 15.517 15.3323 15.6496L16.4421 15.4743ZM15.8844 14.4607C15.5744 14.1817 15.1512 14.0083 14.6771 13.8994L14.4257 14.9945C14.8071 15.0821 15.022 15.1962 15.1328 15.2958L15.8844 14.4607ZM14.6876 13.902C14.2012 13.7804 13.5589 13.7274 12.7843 13.7274V14.851C13.5243 14.851 14.0601 14.9032 14.4151 14.992L14.6876 13.902ZM13.3461 14.2892V12.0383H12.2225V14.2892H13.3461ZM12.7843 12.6C13.4452 12.6 14.0116 12.5498 14.4668 12.436L14.1943 11.346C13.864 11.4285 13.3996 11.4765 12.7843 11.4765V12.6ZM14.4668 12.436C14.902 12.3272 15.289 12.1676 15.586 11.93L14.8842 11.0526C14.7604 11.1516 14.5444 11.2584 14.1943 11.346L14.4668 12.436ZM15.5878 11.9286C15.8864 11.6877 16.1016 11.3819 16.2065 11.0145L15.1262 10.7058C15.0909 10.8294 15.0185 10.9442 14.8824 11.054L15.5878 11.9286ZM16.2065 11.0145C16.293 10.7119 16.3333 10.3891 16.3333 10.0503H15.2098C15.2098 10.3004 15.18 10.5176 15.1262 10.7058L16.2065 11.0145ZM16.3333 10.0503C16.3333 9.36073 16.1645 8.7429 15.7446 8.28303L14.9149 9.04061C15.084 9.22587 15.2098 9.53367 15.2098 10.0503H16.3333ZM15.7531 8.29252C15.3241 7.80077 14.7011 7.60567 14.0044 7.60567V8.72923C14.4999 8.72923 14.7604 8.86371 14.9064 9.03112L15.7531 8.29252ZM14.0044 7.60567C13.4145 7.60567 12.879 7.76617 12.4308 8.1117L13.1167 9.00157C13.3417 8.82819 13.6267 8.72923 14.0044 8.72923V7.60567ZM12.4322 8.11065C12.0172 8.42849 11.7203 8.83598 11.5571 9.32565L12.623 9.68095C12.7122 9.41329 12.8712 9.18966 13.1154 9.00262L12.4322 8.11065ZM11.5652 9.30291C11.4418 9.62626 11.3171 9.73846 11.2487 9.77465L11.7744 10.7676C12.1829 10.5514 12.4438 10.1517 12.6149 9.70369L11.5652 9.30291ZM11.2487 9.77465C11.1682 9.81726 10.9731 9.86296 10.5793 9.80046L10.4032 10.9101C10.893 10.9879 11.378 10.9775 11.7744 10.7676L11.2487 9.77465ZM10.5891 9.80209L8.86405 9.49706L8.66841 10.6035L10.3934 10.9085L10.5891 9.80209ZM31.3931 16.8136L30.854 16.6558L30.854 16.6558L31.3931 16.8136ZM30.194 19.2539L29.7539 18.9047L29.7516 18.9077L30.194 19.2539ZM28.3848 20.695L28.1543 20.1827L28.1524 20.1835L28.3848 20.695ZM23.8619 20.695L23.6275 21.2055L23.6294 21.2064L23.8619 20.695ZM22.0738 19.2539L21.6313 19.6002L21.6313 19.6002L22.0738 19.2539ZM20.8852 16.8136L20.345 16.968L20.346 16.9715L20.8852 16.8136ZM20.8852 9.85041L20.346 9.69251L20.345 9.69607L20.8852 9.85041ZM22.0738 7.41012L21.6313 7.06389L21.6313 7.06389L22.0738 7.41012ZM23.8619 5.97961L24.092 6.49211L24.0944 6.49103L23.8619 5.97961ZM28.3848 5.97961L28.1524 6.49107L28.1586 6.49381L28.3848 5.97961ZM30.194 7.41012L29.7516 7.75636L29.7539 7.75931L30.194 7.41012ZM31.3931 9.85041L30.854 10.0083L30.854 10.0083L31.3931 9.85041ZM28.2586 10.734L27.7073 10.8419L27.7075 10.843L28.2586 10.734ZM27.7222 9.13515L27.2327 9.41102L27.2366 9.41767L27.7222 9.13515ZM26.9754 8.34627L26.7142 8.84376L26.7241 8.84874L26.9754 8.34627ZM25.2714 8.34627L25.5277 8.84617L25.5325 8.84367L25.2714 8.34627ZM24.5351 9.13515L24.0456 8.85928L24.0419 8.86614L24.5351 9.13515ZM24.0197 10.734L23.4683 10.626L23.4675 10.6304L24.0197 10.734ZM24.0197 15.9406L23.4675 16.0441L23.4686 16.0497L24.0197 15.9406ZM24.5351 17.5394L24.0398 17.8048L24.0457 17.8153L24.5351 17.5394ZM25.2714 18.3388L25.005 18.8335L25.0125 18.8375L25.0201 18.8413L25.2714 18.3388ZM26.9754 18.3388L27.2267 18.8414L27.2365 18.8362L26.9754 18.3388ZM27.7222 17.5394L27.2344 17.2607L27.2328 17.2636L27.7222 17.5394ZM28.2586 15.9406L27.7075 15.8315L27.7075 15.8315L28.2586 15.9406ZM31.2626 13.332C31.2626 14.6334 31.1227 15.7383 30.854 16.6558L31.9323 16.9715C32.2386 15.9255 32.3862 14.7093 32.3862 13.332H31.2626ZM30.854 16.6558C30.5821 17.5842 30.2113 18.3283 29.7539 18.9047L30.6341 19.6031C31.2005 18.8893 31.6292 18.0065 31.9323 16.9715L30.854 16.6558ZM29.7516 18.9077C29.2991 19.4859 28.7671 19.9069 28.1543 20.1827L28.6154 21.2073C29.4051 20.8519 30.0792 20.3122 30.6364 19.6002L29.7516 18.9077ZM28.1524 20.1835C27.536 20.4637 26.862 20.6065 26.1234 20.6065V21.7301C27.0115 21.7301 27.8453 21.5573 28.6173 21.2064L28.1524 20.1835ZM26.1234 20.6065C25.3847 20.6065 24.7108 20.4637 24.0944 20.1835L23.6294 21.2064C24.4015 21.5573 25.2352 21.7301 26.1234 21.7301V20.6065ZM24.0963 20.1844C23.4972 19.9093 22.9705 19.4883 22.5162 18.9077L21.6313 19.6002C22.1868 20.3099 22.8522 20.8495 23.6275 21.2055L24.0963 20.1844ZM22.5162 18.9077C22.0646 18.3307 21.6966 17.5855 21.4243 16.6558L20.346 16.9715C20.6487 18.0052 21.0731 18.8869 21.6313 19.6002L22.5162 18.9077ZM21.4253 16.6593C21.1628 15.7406 21.0262 14.6344 21.0262 13.332H19.9026C19.9026 14.7083 20.0465 15.9233 20.345 16.968L21.4253 16.6593ZM21.0262 13.332C21.0262 12.0296 21.1628 10.9235 21.4253 10.0047L20.345 9.69607C20.0465 10.7408 19.9026 11.9557 19.9026 13.332H21.0262ZM21.4243 10.0083C21.6966 9.07853 22.0646 8.33336 22.5162 7.75635L21.6313 7.06389C21.0731 7.77714 20.6487 8.65884 20.346 9.69252L21.4243 10.0083ZM22.5162 7.75635C22.9699 7.17663 23.4951 6.76008 24.092 6.4921L23.6318 5.46711C22.8542 5.81622 22.1874 6.35335 21.6313 7.06389L22.5162 7.75635ZM24.0944 6.49103C24.7108 6.21085 25.3847 6.06806 26.1234 6.06806V4.94449C25.2352 4.94449 24.4015 5.11726 23.6294 5.46818L24.0944 6.49103ZM26.1234 6.06806C26.862 6.06806 27.536 6.21085 28.1524 6.49103L28.6173 5.46818C27.8453 5.11726 27.0115 4.94449 26.1234 4.94449V6.06806ZM28.1586 6.49381C28.7692 6.76247 29.2998 7.17897 29.7516 7.75635L30.6364 7.06389C30.0785 6.351 29.403 5.81383 28.6111 5.4654L28.1586 6.49381ZM29.7539 7.75931C30.2113 8.33574 30.5821 9.07985 30.854 10.0083L31.9323 9.69252C31.6292 8.65752 31.2005 7.77477 30.6341 7.06093L29.7539 7.75931ZM30.854 10.0083C31.1227 10.9257 31.2626 12.0306 31.2626 13.332H32.3862C32.3862 11.9547 32.2386 10.7385 31.9323 9.69252L30.854 10.0083ZM29.0203 13.332C29.0203 12.254 28.9528 11.3478 28.8097 10.6249L27.7075 10.843C27.8309 11.4665 27.8967 12.2924 27.8967 13.332H29.0203ZM28.8099 10.626C28.6706 9.91446 28.476 9.31376 28.2078 8.85263L27.2366 9.41767C27.4171 9.7279 27.5802 10.1931 27.7073 10.8419L28.8099 10.626ZM28.2116 8.85931C27.961 8.41467 27.6407 8.05086 27.2266 7.84379L26.7241 8.84874C26.871 8.92216 27.0486 9.08428 27.2328 9.41099L28.2116 8.85931ZM27.2365 7.84886C26.8838 7.66371 26.5108 7.56359 26.1234 7.56359V8.68716C26.3109 8.68716 26.5059 8.73431 26.7142 8.84367L27.2365 7.84886ZM26.1234 7.56359C25.7359 7.56359 25.3629 7.66371 25.0102 7.84886L25.5325 8.84367C25.7408 8.73431 25.9358 8.68716 26.1234 8.68716V7.56359ZM25.015 7.84638C24.6093 8.05444 24.2944 8.41795 24.0457 8.85931L25.0245 9.41099C25.2105 9.081 25.3865 8.91858 25.5277 8.84615L25.015 7.84638ZM24.0419 8.86614C23.7929 9.32261 23.607 9.91801 23.4684 10.626L24.571 10.8419C24.6988 10.1895 24.8565 9.71905 25.0283 9.40416L24.0419 8.86614ZM23.4675 10.6304C23.3324 11.3509 23.2686 12.255 23.2686 13.332H24.3921C24.3921 12.2913 24.4545 11.4634 24.5718 10.8375L23.4675 10.6304ZM23.2686 13.332C23.2686 14.4158 23.3324 15.3235 23.4675 16.0441L24.5718 15.8371C24.4545 15.2114 24.3921 14.38 24.3921 13.332H23.2686ZM23.4686 16.0497C23.6074 16.7513 23.7931 17.3441 24.0399 17.8047L25.0303 17.2741C24.8563 16.9494 24.6984 16.4763 24.5708 15.8315L23.4686 16.0497ZM24.0457 17.8153C24.2941 18.256 24.6062 18.6187 25.005 18.8335L25.5377 17.8442C25.3895 17.7644 25.2108 17.5942 25.0245 17.2636L24.0457 17.8153ZM25.0201 18.8413C25.3714 19.0169 25.7409 19.111 26.1234 19.111V17.9874C25.9308 17.9874 25.7323 17.9412 25.5226 17.8364L25.0201 18.8413ZM26.1234 19.111C26.5058 19.111 26.8753 19.0169 27.2266 18.8413L26.7241 17.8364C26.5144 17.9412 26.3159 17.9874 26.1234 17.9874V19.111ZM27.2365 18.8362C27.6438 18.6224 27.9613 18.2592 28.2116 17.8153L27.2328 17.2636C27.0483 17.591 26.8679 17.7608 26.7142 17.8414L27.2365 18.8362ZM28.2099 17.8181C28.4758 17.3529 28.6701 16.7549 28.8097 16.0497L27.7075 15.8315C27.5806 16.4727 27.4173 16.9406 27.2344 17.2607L28.2099 17.8181ZM28.8097 16.0497C28.9528 15.3266 29.0203 14.4168 29.0203 13.332H27.8967C27.8967 14.379 27.8309 15.2083 27.7075 15.8315L28.8097 16.0497ZM39.9989 10.9233L40.5132 11.1493L40.5132 11.1493L39.9989 10.9233ZM39.189 12.1224L39.582 12.5238L39.5862 12.5196L39.189 12.1224ZM38.0109 12.8902L37.7995 12.3698L37.7966 12.371L38.0109 12.8902ZM35.1499 12.8902L34.9356 13.4096L34.9384 13.4107L35.1499 12.8902ZM33.9928 12.1224L33.5871 12.5112L33.5956 12.5196L33.9928 12.1224ZM33.2355 10.9233L33.7582 10.7174L33.7582 10.7174L33.2355 10.9233ZM33.2355 7.80982L33.7592 8.01306L33.7602 8.01046L33.2355 7.80982ZM33.9928 6.58968L33.5914 6.19662L33.5872 6.20098L33.9928 6.58968ZM35.1499 5.81131L35.3642 6.33062L35.3682 6.32892L35.1499 5.81131ZM38.095 5.81131L37.8766 6.32901L37.8864 6.33291L38.095 5.81131ZM39.2626 6.58968L38.857 6.9784L38.8612 6.98271L39.2626 6.58968ZM40.0304 7.80982L39.5057 8.01046L39.5067 8.01306L40.0304 7.80982ZM37.7059 8.50404L37.159 8.63271L37.1613 8.64233L37.1639 8.65186L37.7059 8.50404ZM37.4639 7.93604L37.9134 7.59898L37.9134 7.59897L37.4639 7.93604ZM37.0853 7.64153L36.8766 8.1632L36.8853 8.16651L37.0853 7.64153ZM36.1596 7.64153L35.951 7.11992L35.951 7.11992L36.1596 7.64153ZM35.802 7.93604L35.3418 7.61388L35.3418 7.61388L35.802 7.93604ZM35.5706 8.50404L36.1166 8.6364L36.1175 8.63271L35.5706 8.50404ZM35.5706 10.2291L36.1156 10.0928L36.1156 10.0928L35.5706 10.2291ZM35.802 10.7655L36.2543 10.4323L36.2543 10.4323L35.802 10.7655ZM36.1596 11.0495L35.951 11.5711L35.951 11.5711L36.1596 11.0495ZM37.0853 11.0495L36.8853 10.5245L36.8766 10.5279L37.0853 11.0495ZM37.4639 10.7655L37.023 10.4174L37.023 10.4174L37.4639 10.7655ZM37.7059 10.2291L37.1651 10.077L37.1628 10.0849L37.1609 10.0928L37.7059 10.2291ZM45.1214 6.15842L44.7001 5.78674L44.6887 5.79973L44.678 5.81341L45.1214 6.15842ZM45.5106 5.83235L45.8122 6.3063L45.8197 6.30152L45.827 6.29651L45.5106 5.83235ZM48.5294 5.67457L48.973 6.01928L49.6774 5.11279H48.5294V5.67457ZM36.9801 20.5372L37.421 20.8853L37.4237 20.8819L36.9801 20.5372ZM36.5804 20.8738L36.8494 21.367L36.8568 21.3628L36.5804 20.8738ZM33.5721 21L33.1287 20.655L32.4231 21.5618H33.5721V21ZM48.8134 18.9489L49.3277 19.1749L49.3289 19.172L48.8134 18.9489ZM48.0035 20.148L48.3965 20.5494L48.4007 20.5452L48.0035 20.148ZM46.8254 20.9159L46.6139 20.3954L46.6111 20.3966L46.8254 20.9159ZM43.9644 20.9159L43.75 21.4352L43.7529 21.4363L43.9644 20.9159ZM42.8073 20.148L42.4016 20.5368L42.4101 20.5452L42.8073 20.148ZM42.05 18.9489L41.5263 19.1521L41.5273 19.1548L42.05 18.9489ZM42.05 15.8249L42.5737 16.0281L42.5747 16.0255L42.05 15.8249ZM42.8073 14.6048L42.4059 14.2117L42.4017 14.2161L42.8073 14.6048ZM43.9644 13.8264L44.1787 14.3457L44.1827 14.344L43.9644 13.8264ZM46.9095 13.8264L46.6911 14.3441L46.7009 14.348L46.9095 13.8264ZM48.0771 14.6048L47.6715 14.9935L47.6757 14.9978L48.0771 14.6048ZM48.8449 15.8249L48.3202 16.0255L48.3212 16.0281L48.8449 15.8249ZM46.5204 16.5296L45.9735 16.6583L45.9758 16.6679L45.9784 16.6775L46.5204 16.5296ZM46.2784 15.9616L46.7279 15.6246L46.7279 15.6246L46.2784 15.9616ZM45.8998 15.6671L45.6911 16.1888L45.6998 16.1921L45.8998 15.6671ZM44.6165 15.9616L44.1563 15.6395L44.1563 15.6395L44.6165 15.9616ZM44.3851 16.5296L44.9311 16.662L44.9319 16.6583L44.3851 16.5296ZM44.3851 18.2442L44.9301 18.1079L44.9301 18.1079L44.3851 18.2442ZM44.6165 18.7806L44.1642 19.1138L44.1642 19.1138L44.6165 18.7806ZM44.9741 19.0646L45.1828 18.543L45.1828 18.543L44.9741 19.0646ZM45.8998 19.0646L45.6997 18.5395L45.6911 18.543L45.8998 19.0646ZM46.2784 18.7806L46.7194 19.1287L46.7194 19.1287L46.2784 18.7806ZM46.5204 18.2442L45.9795 18.0921L45.9773 18.1L45.9753 18.1079L46.5204 18.2442ZM39.7421 9.38759C39.7421 9.87935 39.6534 10.3132 39.4846 10.6973L40.5132 11.1493C40.7511 10.6078 40.8657 10.0178 40.8657 9.38759H39.7421ZM39.4846 10.6973C39.3075 11.1003 39.076 11.4409 38.7917 11.7252L39.5862 12.5196C39.9751 12.1307 40.2836 11.672 40.5132 11.1493L39.4846 10.6973ZM38.7959 11.721C38.513 11.998 38.1825 12.2142 37.7995 12.3698L38.2223 13.4107C38.7369 13.2017 39.1917 12.906 39.582 12.5238L38.7959 11.721ZM37.7966 12.371C37.4236 12.5249 37.0337 12.6019 36.6225 12.6019V13.7255C37.1789 13.7255 37.7146 13.6203 38.2252 13.4095L37.7966 12.371ZM36.6225 12.6019C36.1547 12.6019 35.7365 12.5222 35.3613 12.3698L34.9384 13.4107C35.4608 13.6229 36.0243 13.7255 36.6225 13.7255V12.6019ZM35.3642 12.371C34.9891 12.2161 34.666 12.0011 34.3901 11.7252L33.5956 12.5196C33.9789 12.9029 34.4271 13.1997 34.9356 13.4095L35.3642 12.371ZM34.3984 11.7337C34.1297 11.4533 33.9156 11.1168 33.7582 10.7174L32.7128 11.1292C32.9201 11.6554 33.2108 12.1183 33.5872 12.5111L34.3984 11.7337ZM33.7582 10.7174C33.6048 10.328 33.5238 9.88705 33.5238 9.38759H32.4002C32.4002 10.0101 32.5016 10.593 32.7128 11.1292L33.7582 10.7174ZM33.5238 9.38759C33.5238 8.86447 33.6056 8.40886 33.7592 8.01306L32.7118 7.60658C32.5007 8.15043 32.4002 8.74668 32.4002 9.38759H33.5238ZM33.7602 8.01046C33.9184 7.59693 34.1325 7.25591 34.3984 6.97838L33.5872 6.20098C33.2081 6.59663 32.9173 7.06904 32.7108 7.60919L33.7602 8.01046ZM34.3942 6.98272C34.6698 6.70124 34.9916 6.48436 35.3642 6.33061L34.9356 5.29201C34.4246 5.5029 33.975 5.80494 33.5914 6.19664L34.3942 6.98272ZM35.3682 6.32892C35.7417 6.17138 36.1574 6.08909 36.6225 6.08909V4.96553C36.0216 4.96553 35.4557 5.07258 34.9315 5.2937L35.3682 6.32892ZM36.6225 6.08909C37.0875 6.08909 37.5033 6.17138 37.8767 6.32892L38.3134 5.2937C37.7893 5.07258 37.2233 4.96553 36.6225 4.96553V6.08909ZM37.8864 6.33291C38.2719 6.48709 38.5928 6.70267 38.857 6.97838L39.6682 6.20098C39.2873 5.8035 38.8298 5.50017 38.3037 5.28971L37.8864 6.33291ZM38.8612 6.98271C39.1325 7.25983 39.3486 7.59944 39.5057 8.01046L40.5552 7.60919C40.3477 7.06653 40.0518 6.59271 39.664 6.19664L38.8612 6.98271ZM39.5067 8.01306C39.6603 8.40886 39.7421 8.86447 39.7421 9.38759H40.8657C40.8657 8.74668 40.7652 8.15043 40.5542 7.60658L39.5067 8.01306ZM38.3623 9.38759C38.3623 9.00194 38.3288 8.65315 38.2478 8.35623L37.1639 8.65186C37.2091 8.81775 37.2387 9.05799 37.2387 9.38759H38.3623ZM38.2527 8.37537C38.1854 8.08945 38.0796 7.82067 37.9134 7.59898L37.0145 8.27311C37.0586 8.33191 37.1141 8.4418 37.159 8.63271L38.2527 8.37537ZM37.9134 7.59897C37.7519 7.38364 37.5427 7.21461 37.2853 7.11655L36.8853 8.16651C36.9224 8.18064 36.9656 8.20795 37.0145 8.27311L37.9134 7.59897ZM37.2939 7.11992C37.0801 7.03442 36.8541 6.9956 36.6225 6.9956V8.11916C36.7274 8.11916 36.8099 8.13644 36.8766 8.16313L37.2939 7.11992ZM36.6225 6.9956C36.3908 6.9956 36.1648 7.03442 35.951 7.11992L36.3683 8.16313C36.435 8.13644 36.5175 8.11916 36.6225 8.11916V6.9956ZM35.951 7.11992C35.6962 7.22186 35.494 7.3964 35.3418 7.61388L36.2622 8.25821C36.3064 8.19519 36.3426 8.1734 36.3683 8.16313L35.951 7.11992ZM35.3418 7.61388C35.1892 7.83192 35.0897 8.09504 35.0238 8.37537L36.1175 8.63271C36.1637 8.4362 36.2185 8.32066 36.2622 8.2582L35.3418 7.61388ZM35.0246 8.37169C34.9542 8.66223 34.9247 9.00527 34.9247 9.38759H36.0482C36.0482 9.05467 36.0748 8.80866 36.1166 8.6364L35.0246 8.37169ZM34.9247 9.38759C34.9247 9.7513 34.9546 10.0812 35.0256 10.3653L36.1156 10.0928C36.0745 9.92815 36.0482 9.69707 36.0482 9.38759H34.9247ZM35.0256 10.3653C35.0929 10.6345 35.1945 10.8881 35.3498 11.0988L36.2543 10.4323C36.2132 10.3765 36.1605 10.2724 36.1156 10.0928L35.0256 10.3653ZM35.3497 11.0988C35.5039 11.3079 35.7044 11.4725 35.951 11.5711L36.3683 10.5279C36.3344 10.5144 36.2965 10.4896 36.2543 10.4323L35.3497 11.0988ZM35.951 11.5711C36.1648 11.6566 36.3908 11.6954 36.6225 11.6954V10.5719C36.5175 10.5719 36.435 10.5546 36.3683 10.5279L35.951 11.5711ZM36.6225 11.6954C36.8541 11.6954 37.0801 11.6566 37.2939 11.5711L36.8766 10.5279C36.8099 10.5546 36.7274 10.5719 36.6225 10.5719V11.6954ZM37.2853 11.5745C37.5346 11.4795 37.7418 11.3201 37.9049 11.1136L37.023 10.4174C36.9757 10.4774 36.9304 10.5073 36.8853 10.5245L37.2853 11.5745ZM37.9049 11.1136C38.0738 10.8996 38.1821 10.6405 38.2509 10.3653L37.1609 10.0928C37.1175 10.2664 37.0644 10.3649 37.023 10.4174L37.9049 11.1136ZM38.2467 10.3812C38.3284 10.0907 38.3623 9.75494 38.3623 9.38759H37.2387C37.2387 9.69343 37.2096 9.91866 37.1651 10.077L38.2467 10.3812ZM45.5426 6.53011C45.6082 6.45584 45.6959 6.38032 45.8122 6.3063L45.209 5.35839C45.0167 5.48072 44.845 5.62258 44.7001 5.78674L45.5426 6.53011ZM45.827 6.29651C45.854 6.27815 45.9418 6.23635 46.1522 6.23635V5.11279C45.8156 5.11279 45.4757 5.17618 45.1941 5.36819L45.827 6.29651ZM46.1522 6.23635H48.5294V5.11279H46.1522V6.23635ZM48.0858 5.32987L36.5365 20.1925L37.4237 20.8819L48.973 6.01928L48.0858 5.32987ZM36.5392 20.1891C36.4831 20.2601 36.4076 20.3261 36.304 20.3847L36.8568 21.3628C37.0757 21.2391 37.2667 21.0808 37.421 20.8853L36.5392 20.1891ZM36.3114 20.3806C36.2594 20.409 36.1682 20.4382 36.0124 20.4382V21.5618C36.3054 21.5618 36.5928 21.5069 36.8494 21.367L36.3114 20.3806ZM36.0124 20.4382H33.5721V21.5618H36.0124V20.4382ZM34.0155 21.345L45.5648 6.50343L44.678 5.81341L33.1287 20.655L34.0155 21.345ZM48.5566 17.4027C48.5566 17.8943 48.4679 18.3329 48.2978 18.7257L49.3289 19.172C49.5656 18.6253 49.6802 18.033 49.6802 17.4027H48.5566ZM48.2991 18.7229C48.122 19.1259 47.8905 19.4665 47.6062 19.7508L48.4007 20.5452C48.7896 20.1563 49.098 19.6976 49.3277 19.1749L48.2991 18.7229ZM47.6104 19.7466C47.3275 20.0236 46.997 20.2398 46.6139 20.3954L47.0368 21.4363C47.5514 21.2273 48.0062 20.9316 48.3965 20.5494L47.6104 19.7466ZM46.6111 20.3966C46.2381 20.5505 45.8482 20.6276 45.4369 20.6276V21.7511C45.9934 21.7511 46.5291 21.6459 47.0397 21.4351L46.6111 20.3966ZM45.4369 20.6276C44.9692 20.6276 44.551 20.5478 44.1758 20.3954L43.7529 21.4363C44.2753 21.6485 44.8388 21.7511 45.4369 21.7511V20.6276ZM44.1787 20.3966C43.8035 20.2417 43.4805 20.0267 43.2046 19.7508L42.4101 20.5452C42.7933 20.9285 43.2416 21.2253 43.75 21.4351L44.1787 20.3966ZM43.2129 19.7593C42.9442 19.4789 42.73 19.1424 42.5727 18.743L41.5273 19.1548C41.7346 19.681 42.0253 20.1439 42.4017 20.5367L43.2129 19.7593ZM42.5737 18.7457C42.4192 18.3476 42.3383 17.902 42.3383 17.4027H41.2147C41.2147 18.0253 41.3161 18.6106 41.5263 19.1521L42.5737 18.7457ZM42.3383 17.4027C42.3383 16.8795 42.4201 16.4239 42.5737 16.0281L41.5263 15.6217C41.3152 16.1655 41.2147 16.7618 41.2147 17.4027H42.3383ZM42.5747 16.0255C42.7328 15.612 42.947 15.271 43.2129 14.9935L42.4017 14.2161C42.0226 14.6117 41.7318 15.0841 41.5253 15.6243L42.5747 16.0255ZM43.2087 14.9978C43.4843 14.7163 43.8061 14.4994 44.1787 14.3457L43.75 13.3071C43.2391 13.518 42.7895 13.82 42.4059 14.2117L43.2087 14.9978ZM44.1827 14.344C44.5561 14.1865 44.9719 14.1042 45.4369 14.1042V12.9806C44.8361 12.9806 44.2701 13.0877 43.746 13.3088L44.1827 14.344ZM45.4369 14.1042C45.902 14.1042 46.3177 14.1865 46.6912 14.344L47.1279 13.3088C46.6037 13.0877 46.0378 12.9806 45.4369 12.9806V14.1042ZM46.7009 14.348C47.0863 14.5022 47.4073 14.7178 47.6715 14.9935L48.4827 14.2161C48.1018 13.8186 47.6443 13.5153 47.1182 13.3048L46.7009 14.348ZM47.6757 14.9978C47.947 15.2749 48.163 15.6145 48.3202 16.0255L49.3697 15.6243C49.1622 15.0816 48.8663 14.6078 48.4785 14.2117L47.6757 14.9978ZM48.3212 16.0281C48.4748 16.4239 48.5566 16.8795 48.5566 17.4027H49.6802C49.6802 16.7618 49.5797 16.1655 49.3687 15.6217L48.3212 16.0281ZM47.1768 17.4027C47.1768 17.0229 47.1431 16.678 47.0623 16.3818L45.9784 16.6775C46.0238 16.8441 46.0532 17.0812 46.0532 17.4027H47.1768ZM47.0672 16.401C46.9999 16.115 46.8941 15.8463 46.7279 15.6246L45.829 16.2987C45.8731 16.3575 45.9286 16.4674 45.9735 16.6583L47.0672 16.401ZM46.7279 15.6246C46.5664 15.4092 46.3572 15.2402 46.0998 15.1422L45.6998 16.1921C45.7369 16.2062 45.7801 16.2336 45.829 16.2987L46.7279 15.6246ZM46.1084 15.1455C45.8946 15.06 45.6686 15.0212 45.4369 15.0212V16.1448C45.5419 16.1448 45.6244 16.162 45.6911 16.1887L46.1084 15.1455ZM45.4369 15.0212C45.2053 15.0212 44.9793 15.06 44.7655 15.1455L45.1828 16.1887C45.2495 16.162 45.332 16.1448 45.4369 16.1448V15.0212ZM44.7655 15.1455C44.5107 15.2475 44.3085 15.422 44.1563 15.6395L45.0767 16.2838C45.1208 16.2208 45.1571 16.199 45.1828 16.1887L44.7655 15.1455ZM44.1563 15.6395C44.0036 15.8575 43.9042 16.1206 43.8382 16.401L44.9319 16.6583C44.9782 16.4618 45.033 16.3463 45.0767 16.2838L44.1563 15.6395ZM43.8391 16.3973C43.7689 16.6872 43.7392 17.0263 43.7392 17.4027H44.8627C44.8627 17.0778 44.8891 16.8349 44.9311 16.662L43.8391 16.3973ZM43.7392 17.4027C43.7392 17.7664 43.7691 18.0963 43.8401 18.3804L44.9301 18.1079C44.8889 17.9432 44.8627 17.7122 44.8627 17.4027H43.7392ZM43.8401 18.3804C43.9074 18.6496 44.009 18.9032 44.1642 19.1138L45.0688 18.4474C45.0277 18.3916 44.975 18.2875 44.9301 18.1079L43.8401 18.3804ZM44.1642 19.1138C44.3183 19.323 44.5189 19.4876 44.7655 19.5862L45.1828 18.543C45.1489 18.5294 45.111 18.5047 45.0688 18.4474L44.1642 19.1138ZM44.7655 19.5862C44.9793 19.6717 45.2053 19.7105 45.4369 19.7105V18.587C45.332 18.587 45.2495 18.5697 45.1828 18.543L44.7655 19.5862ZM45.4369 19.7105C45.6686 19.7105 45.8946 19.6717 46.1084 19.5862L45.6911 18.543C45.6244 18.5697 45.5419 18.587 45.4369 18.587V19.7105ZM46.0998 19.5896C46.3491 19.4946 46.5563 19.3352 46.7194 19.1287L45.8375 18.4325C45.7901 18.4925 45.7449 18.5224 45.6998 18.5396L46.0998 19.5896ZM46.7194 19.1287C46.8883 18.9147 46.9966 18.6556 47.0654 18.3804L45.9753 18.1079C45.9319 18.2815 45.8789 18.38 45.8375 18.4325L46.7194 19.1287ZM47.0612 18.3963C47.1428 18.1058 47.1768 17.77 47.1768 17.4027H46.0532C46.0532 17.7085 46.0241 17.9337 45.9795 18.0921L47.0612 18.3963Z" fill="#4944FF"/>
<path d="M1.06092 30.6681C2.91199 30.4569 4.68415 29.5575 6.53609 29.4524C8.31337 29.3517 10.1071 29.3901 11.8865 29.3515C15.1255 29.2814 18.3687 29.0484 21.61 28.9904C23.8876 28.9497 26.1726 28.7941 28.4465 28.6602C29.6495 28.5894 30.8932 28.5823 32.076 28.3353C33.0555 28.1308 34.0846 28.1971 35.0775 28.0737C36.1951 27.9348 37.2908 27.6772 38.4094 27.5462C41.1146 27.2294 43.8242 27.1894 46.5492 27.1407C48.9211 27.0983 51.2538 26.7337 53.608 26.5517C54.1158 26.5125 54.5727 26.3421 55.0737 26.3332C55.7883 26.3204 56.5097 26.335 57.2231 26.2895C58.4304 26.2125 59.631 26.1581 60.8452 26.1363" stroke="#7EED9D" stroke-width="2" stroke-linecap="round"/>
<path d="M21.4743 35.6365C21.9992 35.6271 22.5077 35.3433 23.0347 35.2343C23.9736 35.0402 24.865 34.9292 25.7235 34.4896C26.2259 34.2324 26.7812 34.1758 27.2976 33.9832C27.9695 33.7325 28.6433 33.4629 29.2995 33.178C30.0026 32.8727 30.7215 32.5922 31.4398 32.3288C32.2302 32.039 32.9823 31.5926 33.7842 31.3511C35.2301 30.9158 36.6108 30.3965 38.0978 30.0575C38.771 29.904 39.44 29.7593 40.0999 29.5538C40.3904 29.4634 40.6674 29.2756 40.9549 29.2058C41.7089 29.0227 42.3322 28.6863 43.0715 28.4714C43.2125 28.4303 43.5859 28.4798 43.6939 28.3874C43.8292 28.2717 43.8075 28.2273 44.0106 28.2154C44.2364 28.2023 44.3282 28.0226 44.5898 28.0179C44.7229 28.0155 45.3663 27.8671 45.4672 27.7735C45.6982 27.5589 46.0063 27.7463 46.2112 27.5678C46.5414 27.2802 47.4353 27.0313 47.8671 27.0236" stroke="#7EED9D" stroke-width="2" stroke-linecap="round"/>
</svg>
