<svg width="18" height="18" viewBox="0 0 18 18" fill="none"
                                                                xmlns="http://www.w3.org/2000/svg">
                                                                <path fill-rule="evenodd" clip-rule="evenodd"
                                                                    d="M7.00199 11.6137C6.84199 11.6137 6.68199 11.5529 6.56032 11.4304C6.31616 11.1862 6.31616 10.7912 6.56032 10.5471L10.5537 6.55373C10.7978 6.30956 11.1928 6.30956 11.437 6.55373C11.6812 6.7979 11.6812 7.1929 11.437 7.43706L7.44366 11.4304C7.32199 11.5529 7.16199 11.6137 7.00199 11.6137Z"
                                                                    fill="#EF476F" />
                                                                <path fill-rule="evenodd" clip-rule="evenodd"
                                                                    d="M10.9971 11.6159C10.8371 11.6159 10.6771 11.5551 10.5554 11.4326L6.55874 7.43511C6.31457 7.19094 6.31457 6.79594 6.55874 6.55178C6.80374 6.30761 7.19874 6.30761 7.44207 6.55178L11.4387 10.5493C11.6829 10.7934 11.6829 11.1884 11.4387 11.4326C11.3171 11.5551 11.1562 11.6159 10.9971 11.6159Z"
                                                                    fill="#EF476F" />
                                                                <path fill-rule="evenodd" clip-rule="evenodd"
                                                                    d="M5.38746 1.9165C3.27913 1.9165 1.91663 3.36067 1.91663 5.5965V12.4032C1.91663 14.639 3.27913 16.0832 5.38746 16.0832H12.6108C14.72 16.0832 16.0833 14.639 16.0833 12.4032V5.5965C16.0833 3.36067 14.72 1.9165 12.6116 1.9165H5.38746ZM12.6108 17.3332H5.38746C2.56329 17.3332 0.666626 15.3515 0.666626 12.4032V5.5965C0.666626 2.64817 2.56329 0.666504 5.38746 0.666504H12.6116C15.4358 0.666504 17.3333 2.64817 17.3333 5.5965V12.4032C17.3333 15.3515 15.4358 17.3332 12.6108 17.3332Z"
                                                                    fill="#EF476F" />
                                                            </svg>