<svg width="100%" height="100%" viewBox="0 0 1344 167" style="max-width:130px" version="1.1" xmlns="http://www.w3.org/2000/svg" xmlns:xlink="http://www.w3.org/1999/xlink" xml:space="preserve" xmlns:serif="http://www.serif.com/">
    <g transform="matrix(5.622,0,0,5.622,-354.878,-2434.78)">
        <g transform="matrix(33.1234,0,0,33.1234,62.03,456.366)">
            <path d="M0.147,-0.044C0.147,-0.032 0.153,-0.025 0.164,-0.023C0.165,-0.022 0.176,-0.022 0.195,-0.022L0.195,-0.005C0.177,-0.004 0.15,-0.003 0.114,-0C0.078,0.003 0.051,0.004 0.033,0.005L0.033,-0.012C0.048,-0.012 0.056,-0.012 0.059,-0.013C0.067,-0.016 0.071,-0.022 0.071,-0.033L0.071,-0.444C0.071,-0.457 0.065,-0.464 0.053,-0.464C0.041,-0.471 0.035,-0.477 0.035,-0.482C0.079,-0.485 0.115,-0.488 0.144,-0.493L0.144,-0.364C0.171,-0.453 0.222,-0.497 0.298,-0.497C0.33,-0.497 0.346,-0.485 0.346,-0.462C0.346,-0.451 0.341,-0.442 0.33,-0.433C0.319,-0.424 0.308,-0.419 0.297,-0.419C0.287,-0.419 0.282,-0.423 0.282,-0.43C0.282,-0.438 0.286,-0.445 0.294,-0.45C0.293,-0.45 0.29,-0.45 0.287,-0.451L0.279,-0.451C0.233,-0.451 0.198,-0.418 0.174,-0.353C0.156,-0.304 0.147,-0.252 0.147,-0.197L0.147,-0.044Z" style="fill-rule:nonzero;"></path>
        </g>
        <g transform="matrix(33.1234,0,0,33.1234,73.0932,456.366)">
            <path d="M0.464,-0.076C0.417,-0.017 0.351,0.013 0.268,0.013C0.201,0.013 0.144,-0.012 0.098,-0.061C0.051,-0.11 0.028,-0.171 0.028,-0.242C0.028,-0.315 0.051,-0.375 0.097,-0.424C0.142,-0.473 0.199,-0.497 0.268,-0.497C0.323,-0.497 0.37,-0.479 0.409,-0.444C0.446,-0.411 0.467,-0.368 0.474,-0.317L0.114,-0.194C0.122,-0.153 0.136,-0.119 0.157,-0.093C0.189,-0.053 0.231,-0.033 0.282,-0.033C0.345,-0.033 0.402,-0.062 0.452,-0.119C0.454,-0.114 0.456,-0.107 0.458,-0.098C0.46,-0.088 0.462,-0.081 0.464,-0.076ZM0.11,-0.237C0.169,-0.26 0.258,-0.294 0.377,-0.34C0.365,-0.414 0.328,-0.451 0.267,-0.451C0.217,-0.451 0.178,-0.433 0.151,-0.398C0.124,-0.363 0.11,-0.314 0.11,-0.251L0.11,-0.237Z" style="fill-rule:nonzero;"></path>
        </g>
        <g transform="matrix(33.1234,0,0,33.1234,89.6549,456.366)">
            <path d="M0.243,-0.453C0.206,-0.453 0.177,-0.442 0.154,-0.419C0.131,-0.396 0.119,-0.365 0.119,-0.328C0.119,-0.29 0.13,-0.26 0.152,-0.237C0.174,-0.214 0.204,-0.202 0.242,-0.202C0.278,-0.202 0.307,-0.214 0.329,-0.237C0.351,-0.26 0.362,-0.29 0.362,-0.327C0.362,-0.364 0.351,-0.395 0.329,-0.418C0.306,-0.441 0.278,-0.453 0.243,-0.453ZM0.04,-0.326C0.04,-0.375 0.059,-0.416 0.097,-0.449C0.134,-0.481 0.181,-0.497 0.237,-0.497C0.258,-0.497 0.279,-0.494 0.302,-0.488C0.371,-0.518 0.417,-0.533 0.441,-0.533C0.462,-0.533 0.472,-0.524 0.472,-0.506C0.472,-0.493 0.465,-0.486 0.451,-0.485L0.426,-0.484C0.391,-0.484 0.371,-0.476 0.366,-0.46C0.37,-0.457 0.375,-0.454 0.381,-0.449C0.421,-0.417 0.441,-0.377 0.441,-0.328C0.441,-0.281 0.423,-0.243 0.386,-0.213C0.349,-0.182 0.302,-0.167 0.247,-0.167C0.207,-0.167 0.175,-0.172 0.152,-0.183L0.149,-0.182C0.137,-0.178 0.131,-0.173 0.131,-0.167C0.131,-0.156 0.144,-0.148 0.17,-0.144C0.186,-0.142 0.222,-0.14 0.277,-0.139C0.331,-0.138 0.376,-0.124 0.411,-0.099C0.448,-0.072 0.467,-0.034 0.467,0.013C0.467,0.066 0.444,0.109 0.398,0.142C0.351,0.175 0.295,0.192 0.229,0.192C0.176,0.192 0.127,0.178 0.081,0.15C0.035,0.122 0.012,0.094 0.012,0.067C0.012,0.035 0.046,0.016 0.115,0.009C0.122,0.008 0.132,0.007 0.146,0.005C0.095,0.016 0.069,0.029 0.069,0.045C0.069,0.064 0.085,0.085 0.118,0.108C0.154,0.133 0.193,0.146 0.235,0.146C0.28,0.146 0.318,0.136 0.35,0.117C0.385,0.096 0.403,0.068 0.403,0.033C0.403,0 0.387,-0.027 0.356,-0.049C0.325,-0.071 0.283,-0.081 0.23,-0.08L0.195,-0.079C0.194,-0.079 0.174,-0.08 0.135,-0.081C0.099,-0.082 0.081,-0.092 0.081,-0.109C0.081,-0.12 0.088,-0.135 0.103,-0.153C0.116,-0.169 0.129,-0.18 0.141,-0.187C0.074,-0.219 0.04,-0.265 0.04,-0.326Z" style="fill-rule:nonzero;"></path>
        </g>
        <g transform="matrix(33.1234,0,0,33.1234,106.217,456.366)">
            <path d="M0.066,-0.649C0.066,-0.656 0.073,-0.666 0.087,-0.681C0.1,-0.696 0.11,-0.703 0.117,-0.703C0.124,-0.703 0.134,-0.696 0.148,-0.681C0.161,-0.666 0.168,-0.656 0.168,-0.649C0.168,-0.642 0.161,-0.632 0.148,-0.617C0.134,-0.602 0.124,-0.595 0.117,-0.595C0.11,-0.595 0.1,-0.602 0.087,-0.617C0.073,-0.632 0.066,-0.642 0.066,-0.649ZM0.163,-0.044C0.163,-0.029 0.171,-0.022 0.187,-0.022L0.201,-0.022L0.202,-0.005C0.185,-0.004 0.16,-0.003 0.126,-0C0.092,0.003 0.066,0.004 0.049,0.005L0.049,-0.012L0.063,-0.012C0.079,-0.012 0.087,-0.019 0.087,-0.033L0.087,-0.44C0.087,-0.453 0.081,-0.46 0.068,-0.46C0.055,-0.465 0.049,-0.471 0.049,-0.478C0.074,-0.481 0.112,-0.486 0.163,-0.493L0.163,-0.044Z" style="fill-rule:nonzero;"></path>
        </g>
        <g transform="matrix(33.1234,0,0,33.1234,114.497,456.366)">
            <path d="M0.385,-0.143C0.385,-0.096 0.368,-0.059 0.335,-0.03C0.302,-0.001 0.258,0.013 0.203,0.013C0.146,0.013 0.095,-0.006 0.05,-0.045C0.042,-0.045 0.037,-0.04 0.036,-0.029L0.022,-0.029L0.022,-0.115C0.026,-0.118 0.032,-0.121 0.04,-0.125C0.048,-0.129 0.054,-0.132 0.058,-0.134C0.087,-0.067 0.136,-0.033 0.206,-0.033C0.237,-0.033 0.263,-0.041 0.285,-0.058C0.306,-0.074 0.317,-0.094 0.317,-0.118C0.317,-0.145 0.307,-0.166 0.286,-0.181C0.265,-0.196 0.232,-0.208 0.187,-0.217C0.082,-0.238 0.03,-0.285 0.03,-0.358C0.03,-0.398 0.046,-0.431 0.079,-0.458C0.111,-0.484 0.15,-0.497 0.195,-0.497C0.224,-0.497 0.253,-0.491 0.284,-0.48C0.308,-0.471 0.326,-0.461 0.339,-0.45C0.345,-0.45 0.349,-0.454 0.35,-0.463L0.366,-0.463L0.366,-0.39C0.355,-0.382 0.344,-0.374 0.333,-0.367C0.307,-0.423 0.262,-0.451 0.197,-0.451C0.165,-0.451 0.14,-0.444 0.124,-0.431C0.107,-0.417 0.098,-0.399 0.098,-0.376C0.098,-0.355 0.107,-0.337 0.124,-0.324C0.141,-0.311 0.172,-0.299 0.217,-0.289C0.28,-0.275 0.323,-0.257 0.348,-0.234C0.373,-0.211 0.385,-0.18 0.385,-0.143Z" style="fill-rule:nonzero;"></path>
        </g>
        <g transform="matrix(33.1234,0,0,33.1234,128.31,456.366)">
            <path d="M0.149,-0.113C0.149,-0.084 0.155,-0.063 0.166,-0.052C0.177,-0.04 0.197,-0.034 0.225,-0.034C0.247,-0.034 0.266,-0.056 0.282,-0.101L0.296,-0.074C0.29,-0.059 0.283,-0.046 0.275,-0.035C0.256,-0.008 0.234,0.007 0.207,0.01C0.2,0.011 0.193,0.011 0.186,0.011C0.15,0.011 0.122,-0.001 0.103,-0.026C0.083,-0.05 0.073,-0.082 0.073,-0.123L0.073,-0.44L0.004,-0.44L0.011,-0.486C0.045,-0.486 0.07,-0.497 0.085,-0.518C0.096,-0.526 0.106,-0.546 0.115,-0.579C0.125,-0.617 0.131,-0.638 0.133,-0.641L0.149,-0.641L0.149,-0.486L0.287,-0.486L0.287,-0.44L0.149,-0.44L0.149,-0.113Z" style="fill-rule:nonzero;"></path>
        </g>
        <g transform="matrix(33.1234,0,0,33.1234,138.446,456.366)">
            <path d="M0.147,-0.044C0.147,-0.032 0.153,-0.025 0.164,-0.023C0.165,-0.022 0.176,-0.022 0.195,-0.022L0.195,-0.005C0.177,-0.004 0.15,-0.003 0.114,-0C0.078,0.003 0.051,0.004 0.033,0.005L0.033,-0.012C0.048,-0.012 0.056,-0.012 0.059,-0.013C0.067,-0.016 0.071,-0.022 0.071,-0.033L0.071,-0.444C0.071,-0.457 0.065,-0.464 0.053,-0.464C0.041,-0.471 0.035,-0.477 0.035,-0.482C0.079,-0.485 0.115,-0.488 0.144,-0.493L0.144,-0.364C0.171,-0.453 0.222,-0.497 0.298,-0.497C0.33,-0.497 0.346,-0.485 0.346,-0.462C0.346,-0.451 0.341,-0.442 0.33,-0.433C0.319,-0.424 0.308,-0.419 0.297,-0.419C0.287,-0.419 0.282,-0.423 0.282,-0.43C0.282,-0.438 0.286,-0.445 0.294,-0.45C0.293,-0.45 0.29,-0.45 0.287,-0.451L0.279,-0.451C0.233,-0.451 0.198,-0.418 0.174,-0.353C0.156,-0.304 0.147,-0.252 0.147,-0.197L0.147,-0.044Z" style="fill-rule:nonzero;"></path>
        </g>
        <g transform="matrix(33.1234,0,0,33.1234,149.509,456.366)">
            <path d="M0.325,-0.171L0.325,-0.214C0.321,-0.235 0.312,-0.25 0.298,-0.26C0.283,-0.27 0.269,-0.274 0.256,-0.273L0.244,-0.272C0.204,-0.269 0.171,-0.254 0.144,-0.228C0.117,-0.201 0.104,-0.171 0.104,-0.136C0.104,-0.107 0.113,-0.084 0.132,-0.065C0.15,-0.046 0.175,-0.037 0.206,-0.037C0.24,-0.037 0.268,-0.05 0.291,-0.076C0.314,-0.102 0.325,-0.134 0.325,-0.171ZM0.329,-0.072C0.302,-0.015 0.255,0.013 0.187,0.013C0.136,0.013 0.096,-0.001 0.066,-0.029C0.036,-0.056 0.021,-0.092 0.021,-0.135C0.021,-0.178 0.039,-0.215 0.075,-0.248C0.111,-0.28 0.155,-0.3 0.207,-0.309C0.216,-0.31 0.227,-0.311 0.241,-0.31L0.261,-0.309C0.28,-0.308 0.301,-0.304 0.325,-0.295L0.325,-0.375C0.325,-0.4 0.315,-0.419 0.295,-0.432C0.274,-0.445 0.249,-0.452 0.218,-0.452C0.196,-0.452 0.172,-0.448 0.145,-0.44C0.123,-0.433 0.107,-0.426 0.097,-0.419C0.112,-0.416 0.119,-0.407 0.119,-0.392C0.119,-0.383 0.115,-0.379 0.106,-0.379C0.104,-0.379 0.1,-0.38 0.093,-0.381C0.076,-0.386 0.067,-0.396 0.067,-0.41C0.067,-0.43 0.082,-0.449 0.111,-0.468C0.143,-0.488 0.181,-0.498 0.226,-0.498C0.343,-0.498 0.401,-0.451 0.401,-0.356L0.401,-0.051C0.401,-0.032 0.406,-0.023 0.416,-0.023C0.429,-0.023 0.436,-0.035 0.436,-0.058L0.45,-0.058C0.45,-0.04 0.442,-0.024 0.426,-0.011C0.409,0.002 0.39,0.009 0.369,0.009C0.347,0.009 0.334,-0.018 0.329,-0.072Z" style="fill-rule:nonzero;"></path>
        </g>
        <g transform="matrix(33.1234,0,0,33.1234,165.143,456.366)">
            <path d="M0.149,-0.113C0.149,-0.084 0.155,-0.063 0.166,-0.052C0.177,-0.04 0.197,-0.034 0.225,-0.034C0.247,-0.034 0.266,-0.056 0.282,-0.101L0.296,-0.074C0.29,-0.059 0.283,-0.046 0.275,-0.035C0.256,-0.008 0.234,0.007 0.207,0.01C0.2,0.011 0.193,0.011 0.186,0.011C0.15,0.011 0.122,-0.001 0.103,-0.026C0.083,-0.05 0.073,-0.082 0.073,-0.123L0.073,-0.44L0.004,-0.44L0.011,-0.486C0.045,-0.486 0.07,-0.497 0.085,-0.518C0.096,-0.526 0.106,-0.546 0.115,-0.579C0.125,-0.617 0.131,-0.638 0.133,-0.641L0.149,-0.641L0.149,-0.486L0.287,-0.486L0.287,-0.44L0.149,-0.44L0.149,-0.113Z" style="fill-rule:nonzero;"></path>
        </g>
        <g transform="matrix(33.1234,0,0,33.1234,175.279,456.366)">
            <path d="M0.066,-0.649C0.066,-0.656 0.073,-0.666 0.087,-0.681C0.1,-0.696 0.11,-0.703 0.117,-0.703C0.124,-0.703 0.134,-0.696 0.148,-0.681C0.161,-0.666 0.168,-0.656 0.168,-0.649C0.168,-0.642 0.161,-0.632 0.148,-0.617C0.134,-0.602 0.124,-0.595 0.117,-0.595C0.11,-0.595 0.1,-0.602 0.087,-0.617C0.073,-0.632 0.066,-0.642 0.066,-0.649ZM0.163,-0.044C0.163,-0.029 0.171,-0.022 0.187,-0.022L0.201,-0.022L0.202,-0.005C0.185,-0.004 0.16,-0.003 0.126,-0C0.092,0.003 0.066,0.004 0.049,0.005L0.049,-0.012L0.063,-0.012C0.079,-0.012 0.087,-0.019 0.087,-0.033L0.087,-0.44C0.087,-0.453 0.081,-0.46 0.068,-0.46C0.055,-0.465 0.049,-0.471 0.049,-0.478C0.074,-0.481 0.112,-0.486 0.163,-0.493L0.163,-0.044Z" style="fill-rule:nonzero;"></path>
        </g>
        <g transform="matrix(33.1234,0,0,33.1234,183.56,456.366)">
            <path d="M0.529,-0.242C0.529,-0.171 0.505,-0.11 0.456,-0.061C0.407,-0.012 0.348,0.013 0.278,0.013C0.208,0.013 0.149,-0.012 0.101,-0.061C0.052,-0.11 0.028,-0.171 0.028,-0.242C0.028,-0.313 0.052,-0.374 0.101,-0.423C0.149,-0.472 0.208,-0.497 0.278,-0.497C0.349,-0.497 0.408,-0.472 0.457,-0.423C0.505,-0.374 0.529,-0.313 0.529,-0.242ZM0.446,-0.242C0.446,-0.306 0.431,-0.357 0.401,-0.395C0.371,-0.432 0.33,-0.451 0.278,-0.451C0.226,-0.451 0.185,-0.432 0.156,-0.395C0.126,-0.357 0.111,-0.306 0.111,-0.242C0.111,-0.178 0.126,-0.127 0.156,-0.09C0.185,-0.052 0.226,-0.033 0.278,-0.033C0.33,-0.033 0.371,-0.052 0.401,-0.09C0.431,-0.127 0.446,-0.178 0.446,-0.242Z" style="fill-rule:nonzero;"></path>
        </g>
        <g transform="matrix(33.1234,0,0,33.1234,201.976,456.366)">
            <path d="M0.458,-0.044C0.458,-0.029 0.465,-0.022 0.48,-0.022L0.493,-0.022L0.494,-0.005C0.445,-0.002 0.408,0.001 0.382,0.005L0.382,-0.333C0.382,-0.412 0.347,-0.451 0.278,-0.451C0.241,-0.451 0.209,-0.436 0.183,-0.406C0.157,-0.375 0.144,-0.339 0.144,-0.296L0.144,-0.044C0.144,-0.029 0.152,-0.022 0.168,-0.022L0.183,-0.022L0.183,-0.005C0.166,-0.004 0.141,-0.003 0.108,-0C0.075,0.003 0.05,0.004 0.033,0.005L0.033,-0.012L0.046,-0.012C0.061,-0.012 0.068,-0.019 0.068,-0.033L0.068,-0.444C0.068,-0.457 0.062,-0.464 0.051,-0.464C0.039,-0.47 0.033,-0.476 0.033,-0.482C0.039,-0.483 0.048,-0.484 0.06,-0.485C0.072,-0.486 0.081,-0.487 0.086,-0.487C0.103,-0.488 0.121,-0.49 0.14,-0.493L0.14,-0.404C0.181,-0.466 0.232,-0.497 0.295,-0.497C0.347,-0.497 0.387,-0.481 0.416,-0.45C0.444,-0.418 0.458,-0.373 0.458,-0.315L0.458,-0.044Z" style="fill-rule:nonzero;"></path>
        </g>
        <g transform="matrix(33.1234,0,0,33.1234,219.466,456.366)">
            <path d="M0.727,-0.044C0.727,-0.029 0.735,-0.022 0.75,-0.022L0.764,-0.022L0.764,-0.005C0.721,-0.002 0.683,0.001 0.651,0.005L0.651,-0.336C0.651,-0.413 0.619,-0.451 0.556,-0.451C0.521,-0.451 0.493,-0.438 0.472,-0.411C0.451,-0.384 0.44,-0.35 0.44,-0.307L0.44,-0.044C0.44,-0.029 0.447,-0.022 0.462,-0.022L0.475,-0.022L0.475,-0.005C0.433,-0.003 0.396,0 0.363,0.005L0.363,-0.336C0.363,-0.413 0.331,-0.451 0.267,-0.451C0.231,-0.451 0.202,-0.437 0.182,-0.41C0.161,-0.383 0.15,-0.346 0.15,-0.299L0.15,-0.044C0.15,-0.029 0.158,-0.022 0.174,-0.022L0.189,-0.022L0.19,-0.005C0.173,-0.004 0.148,-0.003 0.114,-0C0.08,0.003 0.054,0.004 0.037,0.005L0.037,-0.012L0.051,-0.012C0.066,-0.012 0.074,-0.019 0.074,-0.033L0.074,-0.444C0.074,-0.457 0.068,-0.464 0.057,-0.464C0.045,-0.47 0.039,-0.476 0.039,-0.482C0.051,-0.483 0.069,-0.485 0.093,-0.487C0.112,-0.488 0.129,-0.49 0.146,-0.493L0.146,-0.407C0.179,-0.467 0.226,-0.497 0.287,-0.497C0.359,-0.497 0.406,-0.465 0.427,-0.402C0.458,-0.465 0.508,-0.497 0.575,-0.497C0.676,-0.497 0.727,-0.439 0.727,-0.324L0.727,-0.044Z" style="fill:rgb(2,96,255);fill-rule:nonzero;"></path>
        </g>
        <g transform="matrix(33.1234,0,0,33.1234,246.163,456.366)">
            <path d="M0.325,-0.171L0.325,-0.214C0.321,-0.235 0.312,-0.25 0.298,-0.26C0.283,-0.27 0.269,-0.274 0.256,-0.273L0.244,-0.272C0.204,-0.269 0.171,-0.254 0.144,-0.228C0.117,-0.201 0.104,-0.171 0.104,-0.136C0.104,-0.107 0.113,-0.084 0.132,-0.065C0.15,-0.046 0.175,-0.037 0.206,-0.037C0.24,-0.037 0.268,-0.05 0.291,-0.076C0.314,-0.102 0.325,-0.134 0.325,-0.171ZM0.329,-0.072C0.302,-0.015 0.255,0.013 0.187,0.013C0.136,0.013 0.096,-0.001 0.066,-0.029C0.036,-0.056 0.021,-0.092 0.021,-0.135C0.021,-0.178 0.039,-0.215 0.075,-0.248C0.111,-0.28 0.155,-0.3 0.207,-0.309C0.216,-0.31 0.227,-0.311 0.241,-0.31L0.261,-0.309C0.28,-0.308 0.301,-0.304 0.325,-0.295L0.325,-0.375C0.325,-0.4 0.315,-0.419 0.295,-0.432C0.274,-0.445 0.249,-0.452 0.218,-0.452C0.196,-0.452 0.172,-0.448 0.145,-0.44C0.123,-0.433 0.107,-0.426 0.097,-0.419C0.112,-0.416 0.119,-0.407 0.119,-0.392C0.119,-0.383 0.115,-0.379 0.106,-0.379C0.104,-0.379 0.1,-0.38 0.093,-0.381C0.076,-0.386 0.067,-0.396 0.067,-0.41C0.067,-0.43 0.082,-0.449 0.111,-0.468C0.143,-0.488 0.181,-0.498 0.226,-0.498C0.343,-0.498 0.401,-0.451 0.401,-0.356L0.401,-0.051C0.401,-0.032 0.406,-0.023 0.416,-0.023C0.429,-0.023 0.436,-0.035 0.436,-0.058L0.45,-0.058C0.45,-0.04 0.442,-0.024 0.426,-0.011C0.409,0.002 0.39,0.009 0.369,0.009C0.347,0.009 0.334,-0.018 0.329,-0.072Z" style="fill:rgb(2,96,255);fill-rule:nonzero;"></path>
        </g>
        <g transform="matrix(33.1234,0,0,33.1234,261.797,456.366)">
            <path d="M0.243,-0.453C0.206,-0.453 0.177,-0.442 0.154,-0.419C0.131,-0.396 0.119,-0.365 0.119,-0.328C0.119,-0.29 0.13,-0.26 0.152,-0.237C0.174,-0.214 0.204,-0.202 0.242,-0.202C0.278,-0.202 0.307,-0.214 0.329,-0.237C0.351,-0.26 0.362,-0.29 0.362,-0.327C0.362,-0.364 0.351,-0.395 0.329,-0.418C0.306,-0.441 0.278,-0.453 0.243,-0.453ZM0.04,-0.326C0.04,-0.375 0.059,-0.416 0.097,-0.449C0.134,-0.481 0.181,-0.497 0.237,-0.497C0.258,-0.497 0.279,-0.494 0.302,-0.488C0.371,-0.518 0.417,-0.533 0.441,-0.533C0.462,-0.533 0.472,-0.524 0.472,-0.506C0.472,-0.493 0.465,-0.486 0.451,-0.485L0.426,-0.484C0.391,-0.484 0.371,-0.476 0.366,-0.46C0.37,-0.457 0.375,-0.454 0.381,-0.449C0.421,-0.417 0.441,-0.377 0.441,-0.328C0.441,-0.281 0.423,-0.243 0.386,-0.213C0.349,-0.182 0.302,-0.167 0.247,-0.167C0.207,-0.167 0.175,-0.172 0.152,-0.183L0.149,-0.182C0.137,-0.178 0.131,-0.173 0.131,-0.167C0.131,-0.156 0.144,-0.148 0.17,-0.144C0.186,-0.142 0.222,-0.14 0.277,-0.139C0.331,-0.138 0.376,-0.124 0.411,-0.099C0.448,-0.072 0.467,-0.034 0.467,0.013C0.467,0.066 0.444,0.109 0.398,0.142C0.351,0.175 0.295,0.192 0.229,0.192C0.176,0.192 0.127,0.178 0.081,0.15C0.035,0.122 0.012,0.094 0.012,0.067C0.012,0.035 0.046,0.016 0.115,0.009C0.122,0.008 0.132,0.007 0.146,0.005C0.095,0.016 0.069,0.029 0.069,0.045C0.069,0.064 0.085,0.085 0.118,0.108C0.154,0.133 0.193,0.146 0.235,0.146C0.28,0.146 0.318,0.136 0.35,0.117C0.385,0.096 0.403,0.068 0.403,0.033C0.403,0 0.387,-0.027 0.356,-0.049C0.325,-0.071 0.283,-0.081 0.23,-0.08L0.195,-0.079C0.194,-0.079 0.174,-0.08 0.135,-0.081C0.099,-0.082 0.081,-0.092 0.081,-0.109C0.081,-0.12 0.088,-0.135 0.103,-0.153C0.116,-0.169 0.129,-0.18 0.141,-0.187C0.074,-0.219 0.04,-0.265 0.04,-0.326Z" style="fill:rgb(2,96,255);fill-rule:nonzero;"></path>
        </g>
        <g transform="matrix(33.1234,0,0,33.1234,278.359,456.366)">
            <path d="M0.066,-0.649C0.066,-0.656 0.073,-0.666 0.087,-0.681C0.1,-0.696 0.11,-0.703 0.117,-0.703C0.124,-0.703 0.134,-0.696 0.148,-0.681C0.161,-0.666 0.168,-0.656 0.168,-0.649C0.168,-0.642 0.161,-0.632 0.148,-0.617C0.134,-0.602 0.124,-0.595 0.117,-0.595C0.11,-0.595 0.1,-0.602 0.087,-0.617C0.073,-0.632 0.066,-0.642 0.066,-0.649ZM0.163,-0.044C0.163,-0.029 0.171,-0.022 0.187,-0.022L0.201,-0.022L0.202,-0.005C0.185,-0.004 0.16,-0.003 0.126,-0C0.092,0.003 0.066,0.004 0.049,0.005L0.049,-0.012L0.063,-0.012C0.079,-0.012 0.087,-0.019 0.087,-0.033L0.087,-0.44C0.087,-0.453 0.081,-0.46 0.068,-0.46C0.055,-0.465 0.049,-0.471 0.049,-0.478C0.074,-0.481 0.112,-0.486 0.163,-0.493L0.163,-0.044Z" style="fill:rgb(2,96,255);fill-rule:nonzero;"></path>
        </g>
        <g transform="matrix(33.1234,0,0,33.1234,286.64,456.366)">
            <path d="M0.438,-0.103C0.442,-0.1 0.447,-0.096 0.454,-0.09C0.461,-0.083 0.466,-0.078 0.469,-0.075C0.422,-0.016 0.359,0.013 0.28,0.013C0.208,0.013 0.148,-0.011 0.101,-0.06C0.054,-0.108 0.03,-0.168 0.03,-0.241C0.03,-0.312 0.056,-0.372 0.108,-0.422C0.159,-0.472 0.222,-0.497 0.295,-0.497C0.339,-0.497 0.379,-0.486 0.414,-0.463C0.447,-0.442 0.463,-0.421 0.463,-0.4C0.463,-0.383 0.45,-0.372 0.425,-0.367C0.418,-0.366 0.413,-0.365 0.41,-0.365C0.397,-0.365 0.388,-0.371 0.384,-0.382C0.384,-0.393 0.388,-0.399 0.396,-0.402C0.403,-0.405 0.408,-0.406 0.41,-0.406L0.42,-0.405C0.394,-0.436 0.353,-0.451 0.296,-0.451C0.24,-0.451 0.196,-0.432 0.163,-0.395C0.13,-0.358 0.113,-0.308 0.113,-0.246C0.113,-0.183 0.13,-0.132 0.163,-0.093C0.196,-0.053 0.238,-0.033 0.291,-0.033C0.325,-0.033 0.358,-0.042 0.389,-0.06C0.412,-0.074 0.429,-0.088 0.438,-0.103Z" style="fill:rgb(2,96,255);fill-rule:nonzero;"></path>
        </g>
    </g>
</svg>